{
.appVersion = "1342";
DisplayStrings = (
"digraphs:\012th\012he\012in\012er\012an\012re\012nd\012\012at\012\012bigrams:\012ll\012ss\012ee\012oo\012tt\012\012ff\012pp\012rr\012"
);
classes = (
{

glyphs = (
{
color = 4;
glyphname = A;
lastChange = "2021-11-08 14:02:47 +0000";
layers = (
{
anchors = (
{
name = bottom;
position = "{324, 0}";
},
{
name = ogonek;
position = "{614, 0}";
},
{
name = top;
position = "{324, 706}";
}
);
guideLines = (
{
angle = 248.6566;
position = "{0, 0}";
}
);
layerId = "501D5CC1-F731-4DBC-B0A3-CA82AE369B50";
paths = (
{
closed = 1;
nodes = (
"547 142 LINE",
"518 222 LINE",
"128 222 LINE",
"99 142 LINE"
);
},
{
closed = 1;
nodes = (
"94 0 LINE",
"322 621 LINE",
"324 621 LINE",
"553 0 LINE",
"652 0 LINE",
"378 706 LINE",
"271 706 LINE",
"-3 0 LINE"
);
}
);
width = 648;
}
);
leftKerningGroup = A;
rightKerningGroup = A;
unicode = 0041;
},
{
color = 4;
glyphname = AE;
lastChange = "2021-11-08 14:02:47 +0000";
layers = (
{
anchors = (
{
name = bottom;
position = "{493, 0}";
},
{
name = top;
position = "{493, 706}";
}
);
layerId = "501D5CC1-F731-4DBC-B0A3-CA82AE369B50";
paths = (
{
closed = 1;
nodes = (
"97 0 LINE",
"401 626 LINE",
"445 626 LINE",
"445 0 LINE",
"890 0 LINE",
"890 80 LINE",
"540 80 LINE",
"540 626 LINE",
"880 626 LINE",
"880 706 LINE",
"348 706 LINE",
"-7 3 LINE",
"-7 0 LINE"
);
},
{
closed = 1;
nodes = (
"479 142 LINE",
"479 220 LINE",
"196 220 LINE",
"157 142 LINE"
);
},
{
closed = 1;
nodes = (
"845 323 LINE",
"845 403 LINE",
"518 403 LINE",
"518 323 LINE"
);
}
);
width = 928;
}
);
leftKerningGroup = AE;
rightKerningGroup = E;
rightMetricsKey = E;
unicode = 00C6;
},
{
color = 4;
glyphname = B;
lastChange = "2021-11-08 14:02:47 +0000";
layers = (
{
hints = (
{
horizontal = 1;
origin = "{0, 15}";
target = "{1, 17}";
type = Stem;
},
{
horizontal = 1;
origin = "{1, 9}";
target = "{1, 8}";
type = Stem;
},
{
horizontal = 1;
origin = "{0, 14}";
target = "{1, 0}";
type = Stem;
},
{
origin = "{0, 15}";
target = "{1, 17}";
type = Stem;
},
{
origin = "{1, 13}";
target = "{0, 3}";
type = Stem;
},
{
origin = "{1, 4}";
target = "{0, 10}";
type = Stem;
}
);
layerId = "501D5CC1-F731-4DBC-B0A3-CA82AE369B50";
paths = (
{
closed = 1;
nodes = (
"412 0 LINE SMOOTH",
"540 0 OFFCURVE",
"633 79 OFFCURVE",
"633 197 CURVE SMOOTH",
"633 295 OFFCURVE",
"584 354 OFFCURVE",
"498 373 CURVE",
"498 375 LINE",
"566 403 OFFCURVE",
"603 461 OFFCURVE",
"603 524 CURVE SMOOTH",
"603 643 OFFCURVE",
"532 706 OFFCURVE",
"392 706 CURVE SMOOTH",
"78 706 LINE",
"78 0 LINE"
);
},
{
closed = 1;
nodes = (
"173 626 LINE",
"381 626 LINE SMOOTH",
"456 626 OFFCURVE",
"508 596 OFFCURVE",
"508 516 CURVE SMOOTH",
"508 444 OFFCURVE",
"460 403 OFFCURVE",
"377 403 CURVE SMOOTH",
"154 403 LINE",
"154 323 LINE",
"399 323 LINE SMOOTH",
"482 323 OFFCURVE",
"538 276 OFFCURVE",
"538 205 CURVE SMOOTH",
"538 127 OFFCURVE",
"483 80 OFFCURVE",
"402 80 CURVE SMOOTH",
"173 80 LINE"
);
}
);
width = 678;
}
);
leftKerningGroup = H;
leftMetricsKey = H;
rightKerningGroup = B;
unicode = 0042;
},
{
color = 4;
glyphname = C;
lastChange = "2021-11-08 14:02:47 +0000";
layers = (
{
anchors = (
{
name = bottom;
position = "{371, 0}";
},
{
name = top;
position = "{380, 706}";
}
);
layerId = "501D5CC1-F731-4DBC-B0A3-CA82AE369B50";
paths = (
{
closed = 1;
nodes = (
"469 -16 OFFCURVE",
"587 23 OFFCURVE",
"651 152 CURVE",
"565 183 LINE",
"527 97 OFFCURVE",
"447 63 OFFCURVE",
"371 63 CURVE SMOOTH",
"226 63 OFFCURVE",
"138 184 OFFCURVE",
"138 354 CURVE SMOOTH",
"138 518 OFFCURVE",
"226 642 OFFCURVE",
"380 642 CURVE SMOOTH",
"457 642 OFFCURVE",
"537 609 OFFCURVE",
"574 523 CURVE",
"659 555 LINE",
"596 683 OFFCURVE",
"479 722 OFFCURVE",
"380 722 CURVE SMOOTH",
"173 722 OFFCURVE",
"43 558 OFFCURVE",
"43 354 CURVE SMOOTH",
"43 141 OFFCURVE",
"179 -16 OFFCURVE",
"371 -16 CURVE SMOOTH"
);
}
);
width = 694;
}
);
leftKerningGroup = O;
rightKerningGroup = C;
unicode = 0043;
},
{
color = 4;
glyphname = D;
lastChange = "2021-11-08 14:02:47 +0000";
layers = (
{
anchors = (
{
name = bottom;
position = "{350, 0}";
},
{
name = center;
position = "{350, 356}";
},
{
name = top;
position = "{350, 712}";
}
);
layerId = "501D5CC1-F731-4DBC-B0A3-CA82AE369B50";
paths = (
{
closed = 1;
nodes = (
"320 0 LINE SMOOTH",
"546 0 OFFCURVE",
"661 147 OFFCURVE",
"661 352 CURVE SMOOTH",
"661 558 OFFCURVE",
"543 706 OFFCURVE",
"320 706 CURVE SMOOTH",
"78 706 LINE",
"78 0 LINE"
);
},
{
closed = 1;
nodes = (
"173 662 LINE",
"131 626 LINE",
"328 626 LINE SMOOTH",
"492 626 OFFCURVE",
"566 507 OFFCURVE",
"566 352 CURVE SMOOTH",
"566 198 OFFCURVE",
"494 80 OFFCURVE",
"328 80 CURVE SMOOTH",
"131 80 LINE",
"173 44 LINE"
);
}
);
width = 699;
}
);
leftKerningGroup = H;
leftMetricsKey = H;
rightKerningGroup = O;
rightMetricsKey = O;
unicode = 0044;
},
{
color = 4;
glyphname = Eth;
lastChange = "2021-11-08 14:02:47 +0000";
layers = (
{
layerId = "501D5CC1-F731-4DBC-B0A3-CA82AE369B50";
paths = (
{
closed = 1;
nodes = (
"367 319 LINE",
"367 389 LINE",
"28 389 LINE",
"28 319 LINE"
);
},
{
closed = 1;
nodes = (
"343 0 LINE SMOOTH",
"569 0 OFFCURVE",
"684 147 OFFCURVE",
"684 352 CURVE SMOOTH",
"684 558 OFFCURVE",
"566 706 OFFCURVE",
"343 706 CURVE SMOOTH",
"101 706 LINE",
"101 0 LINE"
);
},
{
closed = 1;
nodes = (
"196 662 LINE",
"154 626 LINE",
"351 626 LINE SMOOTH",
"515 626 OFFCURVE",
"589 507 OFFCURVE",
"589 352 CURVE SMOOTH",
"589 198 OFFCURVE",
"517 80 OFFCURVE",
"351 80 CURVE SMOOTH",
"154 80 LINE",
"196 44 LINE"
);
}
);
width = 722;
}
);
leftKerningGroup = H;
rightKerningGroup = O;
rightMetricsKey = O;
unicode = 00D0;
},
{
color = 4;
glyphname = E;
lastChange = "2021-11-08 14:02:47 +0000";
layers = (
{
anchors = (
{
name = bottom;
position = "{318, 0}";
},
{
name = ogonek;
position = "{521, 0}";
},
{
name = top;
position = "{318, 706}";
},
{
name = topleft;
position = "{20, 706}";
}
);
layerId = "501D5CC1-F731-4DBC-B0A3-CA82AE369B50";
paths = (
{
closed = 1;
nodes = (
"568 0 LINE",
"568 80 LINE",
"173 80 LINE",
"173 626 LINE",
"559 626 LINE",
"559 706 LINE",
"78 706 LINE",
"78 0 LINE"
);
},
{
closed = 1;
nodes = (
"517 323 LINE",
"517 403 LINE",
"153 403 LINE",
"153 323 LINE"
);
}
);
width = 606;
}
);
leftKerningGroup = H;
leftMetricsKey = H;
rightKerningGroup = E;
unicode = 0045;
},
{
color = 4;
glyphname = F;
lastChange = "2021-11-08 14:02:47 +0000";
layers = (
{
layerId = "501D5CC1-F731-4DBC-B0A3-CA82AE369B50";
paths = (
{
closed = 1;
nodes = (
"173 0 LINE",
"173 626 LINE",
"547 626 LINE",
"547 706 LINE",
"78 706 LINE",
"78 0 LINE"
);
},
{
closed = 1;
nodes = (
"499 320 LINE",
"499 400 LINE",
"155 400 LINE",
"155 320 LINE"
);
}
);
width = 577;
}
);
leftKerningGroup = H;
leftMetricsKey = H;
rightKerningGroup = F;
unicode = 0046;
},
{
color = 4;
glyphname = G;
lastChange = "2021-11-08 14:02:47 +0000";
layers = (
{
anchors = (
{
name = bottom;
position = "{395, 0}";
},
{
name = top;
position = "{392, 706}";
}
);
guideLines = (
{
angle = 20.8545;
position = "{604, 512}";
}
);
layerId = "501D5CC1-F731-4DBC-B0A3-CA82AE369B50";
paths = (
{
closed = 1;
nodes = (
"515 -16 OFFCURVE",
"615 30 OFFCURVE",
"683 97 CURVE",
"683 385 LINE",
"387 385 LINE",
"387 305 LINE",
"637 305 LINE",
"597 343 LINE",
"597 95 LINE",
"626 161 LINE",
"579 106 OFFCURVE",
"498 64 OFFCURVE",
"403 64 CURVE SMOOTH",
"234 64 OFFCURVE",
"133 185 OFFCURVE",
"133 354 CURVE SMOOTH",
"133 517 OFFCURVE",
"226 642 OFFCURVE",
"395 642 CURVE SMOOTH",
"487 642 OFFCURVE",
"554 608 OFFCURVE",
"591 523 CURVE",
"676 555 LINE",
"614 683 OFFCURVE",
"510 722 OFFCURVE",
"392 722 CURVE SMOOTH",
"174 722 OFFCURVE",
"38 558 OFFCURVE",
"38 354 CURVE SMOOTH",
"38 141 OFFCURVE",
"187 -16 OFFCURVE",
"395 -16 CURVE SMOOTH"
);
}
);
width = 747;
}
);
leftKerningGroup = O;
leftMetricsKey = O;
rightKerningGroup = G;
unicode = 0047;
},
{
color = 4;
glyphname = H;
lastChange = "2021-11-08 14:02:47 +0000";
layers = (
{
anchors = (
{
name = bottom;
position = "{358, 0}";
},
{
name = center;
position = "{358, 353}";
},
{
name = top;
position = "{358, 706}";
},
{
name = topleft;
position = "{18, 706}";
}
);
layerId = "501D5CC1-F731-4DBC-B0A3-CA82AE369B50";
paths = (
{
closed = 1;
nodes = (
"638 0 LINE",
"638 706 LINE",
"543 706 LINE",
"543 0 LINE"
);
},
{
closed = 1;
nodes = (
"173 0 LINE",
"173 706 LINE",
"78 706 LINE",
"78 0 LINE"
);
},
{
closed = 1;
nodes = (
"559 323 LINE",
"559 403 LINE",
"156 403 LINE",
"156 323 LINE"
);
}
);
width = 716;
}
);
leftKerningGroup = H;
rightKerningGroup = H;
unicode = 0048;
},
{
color = 4;
glyphname = Hbar;
lastChange = "2021-11-08 14:02:47 +0000";
layers = (
{
layerId = "501D5CC1-F731-4DBC-B0A3-CA82AE369B50";
paths = (
{
closed = 1;
nodes = (
"720 517 LINE",
"720 587 LINE",
"40 587 LINE",
"40 517 LINE"
);
},
{
closed = 1;
nodes = (
"660 0 LINE",
"660 706 LINE",
"565 706 LINE",
"565 0 LINE"
);
},
{
closed = 1;
nodes = (
"195 0 LINE",
"195 706 LINE",
"100 706 LINE",
"100 0 LINE"
);
},
{
closed = 1;
nodes = (
"581 323 LINE",
"581 403 LINE",
"178 403 LINE",
"178 323 LINE"
);
}
);
width = 760;
}
);
leftKerningGroup = H;
rightKerningGroup = H;
unicode = 0126;
},
{
color = 4;
glyphname = I;
lastChange = "2021-11-08 14:02:47 +0000";
layers = (
{
anchors = (
{
name = bottom;
position = "{129, 0}";
},
{
name = ogonek;
position = "{175, 0}";
},
{
name = top;
position = "{129, 706}";
},
{
name = topleft;
position = "{20, 706}";
}
);
layerId = "501D5CC1-F731-4DBC-B0A3-CA82AE369B50";
paths = (
{
closed = 1;
nodes = (
"175 0 LINE",
"175 706 LINE",
"82 706 LINE",
"82 0 LINE"
);
}
);
width = 257;
}
);
leftKerningGroup = H;
rightKerningGroup = H;
unicode = 0049;
},
{
color = 4;
glyphname = Iogonek;
lastChange = "2021-11-08 14:59:56 +0000";
layers = (
{
layerId = "501D5CC1-F731-4DBC-B0A3-CA82AE369B50";
paths = (
{
closed = 1;
nodes = (
"161 -221 OFFCURVE",
"192 -212 OFFCURVE",
"217 -196 CURVE",
"196 -132 LINE",
"182 -141 OFFCURVE",
"167 -148 OFFCURVE",
"150 -148 CURVE SMOOTH",
"125 -148 OFFCURVE",
"113 -135 OFFCURVE",
"113 -115 CURVE SMOOTH",
"113 -80 OFFCURVE",
"138 -41 OFFCURVE",
"175 0 CURVE",
"104 28 LINE",
"59 -27 OFFCURVE",
"27 -78 OFFCURVE",
"27 -133 CURVE SMOOTH",
"27 -186 OFFCURVE",
"64 -221 OFFCURVE",
"130 -221 CURVE SMOOTH"
);
},
{
closed = 1;
nodes = (
"175 0 LINE {name = \"\";}",
"175 706 LINE",
"82 706 LINE",
"82 0 LINE"
);
}
);
width = 257;
}
);
leftKerningGroup = H;
rightKerningGroup = H;
unicode = 012E;
},
{
color = 4;
glyphname = J;
lastChange = "2021-11-08 14:59:56 +0000";
layers = (
{
anchors = (
{
name = bottom;
position = "{296, 0}";
},
{
name = top;
position = "{296, 706}";
}
);
guideLines = (
{
angle = 14.7436;
position = "{124, 183}";
}
);
layerId = "501D5CC1-F731-4DBC-B0A3-CA82AE369B50";
paths = (
{
closed = 1;
nodes = (
"396 -12 OFFCURVE",
"477 71 OFFCURVE",
"477 227 CURVE SMOOTH",
"477 706 LINE",
"382 706 LINE {name = \"\";}",
"382 228 LINE SMOOTH",
"382 123 OFFCURVE",
"334 68 OFFCURVE",
"262 68 CURVE SMOOTH",
"193 68 OFFCURVE",
"145 108 OFFCURVE",
"125 186 CURVE",
"38 160 LINE",
"76 27 OFFCURVE",
"168 -12 OFFCURVE",
"265 -12 CURVE SMOOTH"
);
},
{
closed = 1;
nodes = (
"402 627 LINE",
"402 706 LINE {name = \"\";}",
"112 706 LINE",
"112 627 LINE"
);
}
);
width = 555;
}
);
leftKerningGroup = J;
rightKerningGroup = U;
unicode = 004A;
},
{
color = 4;
glyphname = K;
lastChange = "2021-11-08 14:59:56 +0000";
layers = (
{
anchors = (
{
name = bottom;
position = "{331, 0}";
},
{
name = top;
position = "{331, 706}";
}
);
guideLines = (
{
angle = -57.0115;
position = "{546, 0}";
}
);
layerId = "501D5CC1-F731-4DBC-B0A3-CA82AE369B50";
paths = (
{
closed = 1;
nodes = (
"651 706 LINE",
"530 706 LINE",
"160 343 LINE",
"160 233 LINE"
);
},
{
closed = 1;
nodes = (
"173 0 LINE",
"173 706 LINE",
"78 706 LINE",
"78 0 LINE"
);
},
{
closed = 1;
nodes = (
"665 0 LINE",
"665 79 LINE",
"554 79 LINE",
"554 0 LINE {name = \"\";}"
);
},
{
closed = 1;
nodes = (
"655 0 LINE {name = \"\";}",
"362 451 LINE",
"292 383 LINE",
"537 0 LINE"
);
}
);
width = 675;
}
);
leftKerningGroup = H;
leftMetricsKey = H;
rightKerningGroup = K;
unicode = 004B;
},
{
color = 4;
glyphname = L;
lastChange = "2021-11-08 14:02:47 +0000";
layers = (
{
anchors = (
{
name = bottom;
position = "{310, 0}";
},
{
name = center;
position = "{277, 353}";
},
{
name = top;
position = "{126, 706}";
},
{
name = topright;
position = "{334, 706}";
}
);
layerId = "501D5CC1-F731-4DBC-B0A3-CA82AE369B50";
paths = (
{
closed = 1;
nodes = (
"547 0 LINE",
"547 80 LINE",
"173 80 LINE",
"173 706 LINE",
"78 706 LINE",
"78 0 LINE"
);
}
);
width = 567;
}
);
leftKerningGroup = H;
leftMetricsKey = H;
rightKerningGroup = L;
unicode = 004C;
},
{
color = 4;
glyphname = Lcaron;
lastChange = "2021-11-08 14:02:47 +0000";
layers = (
{
layerId = "501D5CC1-F731-4DBC-B0A3-CA82AE369B50";
paths = (
{
closed = 1;
nodes = (
"386 526 LINE",
"440 706 LINE",
"353 706 LINE",
"324 526 LINE"
);
},
{
closed = 1;
nodes = (
"547 0 LINE",
"547 80 LINE",
"173 80 LINE",
"173 706 LINE",
"78 706 LINE",
"78 0 LINE"
);
}
);
width = 567;
}
);
leftKerningGroup = H;
leftMetricsKey = H;
rightKerningGroup = L;
rightMetricsKey = L;
unicode = 013D;
},
{
color = 4;
glyphname = Lslash;
lastChange = "2021-11-08 14:02:47 +0000";
layers = (
{
layerId = "501D5CC1-F731-4DBC-B0A3-CA82AE369B50";
paths = (
{
closed = 1;
nodes = (
"402 428 LINE",
"402 508 LINE",
"-1 285 LINE",
"-1 204 LINE"
);
},
{
closed = 1;
nodes = (
"548 0 LINE",
"548 80 LINE",
"174 80 LINE",
"174 706 LINE",
"79 706 LINE",
"79 0 LINE"
);
}
);
width = 568;
}
);
leftKerningGroup = H;
rightKerningGroup = L;
rightMetricsKey = L;
unicode = 0141;
},
{
color = 4;
glyphname = M;
lastChange = "2021-11-08 14:02:47 +0000";
layers = (
{
layerId = "501D5CC1-F731-4DBC-B0A3-CA82AE369B50";
paths = (
{
closed = 1;
nodes = (
"170 0 LINE",
"170 576 LINE",
"172 576 LINE",
"396 0 LINE",
"472 0 LINE",
"696 576 LINE",
"698 576 LINE",
"698 0 LINE",
"788 0 LINE",
"788 706 LINE",
"663 706 LINE",
"435 120 LINE",
"433 120 LINE",
"205 706 LINE",
"80 706 LINE",
"80 0 LINE"
);
}
);
width = 868;
}
);
leftKerningGroup = H;
rightKerningGroup = H;
unicode = 004D;
},
{
color = 4;
glyphname = N;
lastChange = "2021-11-08 14:02:47 +0000";
layers = (
{
anchors = (
{
name = bottom;
position = "{363, 0}";
},
{
name = top;
position = "{363, 706}";
}
);
layerId = "501D5CC1-F731-4DBC-B0A3-CA82AE369B50";
paths = (
{
closed = 1;
nodes = (
"648 0 LINE",
"648 706 LINE",
"558 706 LINE",
"558 122 LINE",
"562 124 LINE",
"183 706 LINE",
"78 706 LINE",
"78 0 LINE",
"168 0 LINE",
"168 586 LINE",
"163 583 LINE",
"544 0 LINE"
);
}
);
width = 726;
}
);
leftKerningGroup = H;
leftMetricsKey = H;
rightKerningGroup = H;
rightMetricsKey = H;
unicode = 004E;
},
{
color = 4;
glyphname = Eng;
lastChange = "2021-11-08 14:02:47 +0000";
layers = (
{
guideLines = (
{
angle = 99.0903;
position = "{440, -225}";
}
);
layerId = "501D5CC1-F731-4DBC-B0A3-CA82AE369B50";
paths = (
{
closed = 1;
nodes = (
"575 -225 OFFCURVE",
"651 -143 OFFCURVE",
"651 5 CURVE SMOOTH",
"651 706 LINE",
"561 706 LINE",
"561 113 LINE",
"583 119 LINE",
"183 706 LINE",
"78 706 LINE",
"78 0 LINE",
"168 0 LINE",
"168 614 LINE",
"146 608 LINE",
"561 0 LINE",
"561 -92 OFFCURVE",
"513 -141 OFFCURVE",
"427 -141 CURVE",
"440 -225 LINE"
);
}
);
width = 729;
}
);
leftKerningGroup = H;
leftMetricsKey = H;
rightKerningGroup = H;
rightMetricsKey = H;
unicode = 014A;
},
{
color = 4;
glyphname = O;
lastChange = "2021-11-08 14:02:47 +0000";
layers = (
{
anchors = (
{
name = bottom;
position = "{375, 0}";
},
{
name = center;
position = "{375, 353}";
},
{
name = ogonek;
position = "{675, 10}";
},
{
name = top;
position = "{375, 706}";
},
{
name = topleft;
position = "{20, 706}";
},
{
name = topright;
position = "{730, 706}";
}
);
layerId = "501D5CC1-F731-4DBC-B0A3-CA82AE369B50";
paths = (
{
closed = 1;
nodes = (
"575 -16 OFFCURVE",
"712 149 OFFCURVE",
"712 354 CURVE SMOOTH",
"712 567 OFFCURVE",
"575 722 OFFCURVE",
"375 722 CURVE SMOOTH",
"177 722 OFFCURVE",
"38 567 OFFCURVE",
"38 354 CURVE SMOOTH",
"38 149 OFFCURVE",
"177 -16 OFFCURVE",
"375 -16 CURVE"
);
},
{
closed = 1;
nodes = (
"230 64 OFFCURVE",
"133 195 OFFCURVE",
"133 354 CURVE SMOOTH",
"133 521 OFFCURVE",
"230 642 OFFCURVE",
"375 642 CURVE SMOOTH",
"521 642 OFFCURVE",
"617 521 OFFCURVE",
"617 354 CURVE SMOOTH",
"617 195 OFFCURVE",
"521 64 OFFCURVE",
"375 64 CURVE"
);
}
);
width = 750;
}
);
leftKerningGroup = O;
rightKerningGroup = O;
unicode = 004F;
},
{
color = 4;
glyphname = Oslash;
lastChange = "2021-11-08 14:02:47 +0000";
layers = (
{
anchors = (
{
name = bottom;
position = "{375, 0}";
},
{
name = top;
position = "{375, 706}";
}
);
components = (
{
name = O;
}
);
guideLines = (
{
angle = 55.1343;
position = "{413, 324}";
}
);
layerId = "501D5CC1-F731-4DBC-B0A3-CA82AE369B50";
paths = (
{
closed = 1;
nodes = (
"177 91 LINE",
"187 104 LINE",
"591 540 LINE",
"607 556 LINE",
"712 668 LINE",
"666 711 LINE",
"566 603 LINE",
"547 579 LINE",
"146 147 LINE",
"130 132 LINE",
"38 33 LINE",
"83 -11 LINE"
);
}
);
width = 750;
}
);
leftKerningGroup = O;
leftMetricsKey = O;
rightKerningGroup = O;
rightMetricsKey = O;
unicode = 00D8;
},
{
color = 4;
glyphname = OE;
lastChange = "2021-11-08 14:02:47 +0000";
layers = (
{
anchors = (
{
name = bottom;
position = "{565, 0}";
},
{
name = top;
position = "{565, 706}";
}
);
layerId = "501D5CC1-F731-4DBC-B0A3-CA82AE369B50";
paths = (
{
closed = 1;
nodes = (
"1071 0 LINE",
"1071 80 LINE",
"696 80 LINE",
"696 626 LINE",
"1062 626 LINE",
"1062 706 LINE",
"601 706 LINE",
"601 0 LINE"
);
},
{
closed = 1;
nodes = (
"1020 323 LINE",
"1020 403 LINE",
"676 403 LINE",
"676 323 LINE"
);
},
{
closed = 1;
nodes = (
"556 -16 OFFCURVE",
"679 145 OFFCURVE",
"679 354 CURVE SMOOTH",
"679 571 OFFCURVE",
"556 722 OFFCURVE",
"364 722 CURVE SMOOTH",
"173 722 OFFCURVE",
"38 567 OFFCURVE",
"38 354 CURVE SMOOTH",
"38 149 OFFCURVE",
"173 -16 OFFCURVE",
"364 -16 CURVE"
);
},
{
closed = 1;
nodes = (
"228 64 OFFCURVE",
"133 195 OFFCURVE",
"133 354 CURVE SMOOTH",
"133 521 OFFCURVE",
"228 642 OFFCURVE",
"370 642 CURVE SMOOTH",
"510 642 OFFCURVE",
"601 521 OFFCURVE",
"601 354 CURVE SMOOTH",
"601 195 OFFCURVE",
"510 64 OFFCURVE",
"370 64 CURVE"
);
}
);
width = 1109;
}
);
leftKerningGroup = O;
leftMetricsKey = O;
rightKerningGroup = E;
rightMetricsKey = E;
unicode = 0152;
},
{
color = 4;
glyphname = P;
lastChange = "2021-11-08 14:02:47 +0000";
layers = (
{
anchors = (
{
name = bottom;
position = "{289, 0}";
},
{
name = top;
position = "{289, 680}";
}
);
layerId = "501D5CC1-F731-4DBC-B0A3-CA82AE369B50";
paths = (
{
closed = 1;
nodes = (
"173 0 LINE",
"173 626 LINE",
"348 626 LINE SMOOTH",
"472 626 OFFCURVE",
"509 563 OFFCURVE",
"509 492 CURVE SMOOTH",
"509 426 OFFCURVE",
"482 357 OFFCURVE",
"345 357 CURVE SMOOTH",
"154 357 LINE",
"154 277 LINE",
"371 277 LINE SMOOTH",
"545 277 OFFCURVE",
"604 385 OFFCURVE",
"604 491 CURVE SMOOTH",
"604 595 OFFCURVE",
"542 706 OFFCURVE",
"374 706 CURVE SMOOTH",
"78 706 LINE",
"78 0 LINE"
);
}
);
width = 642;
}
);
leftKerningGroup = H;
leftMetricsKey = H;
rightKerningGroup = P;
unicode = 0050;
},
{
color = 4;
glyphname = Thorn;
lastChange = "2021-11-08 14:02:47 +0000";
layers = (
{
anchors = (
{
name = bottom;
position = "{321, 0}";
},
{
name = top;
position = "{321, 706}";
}
);
layerId = "501D5CC1-F731-4DBC-B0A3-CA82AE369B50";
paths = (
{
closed = 1;
nodes = (
"371 166 LINE SMOOTH",
"545 166 OFFCURVE",
"604 274 OFFCURVE",
"604 380 CURVE SMOOTH",
"604 484 OFFCURVE",
"542 594 OFFCURVE",
"374 594 CURVE SMOOTH",
"157 594 LINE",
"157 514 LINE",
"348 514 LINE SMOOTH",
"472 514 OFFCURVE",
"509 451 OFFCURVE",
"509 381 CURVE SMOOTH",
"509 315 OFFCURVE",
"482 246 OFFCURVE",
"345 246 CURVE SMOOTH",
"154 246 LINE",
"154 166 LINE"
);
},
{
closed = 1;
nodes = (
"173 0 LINE",
"173 706 LINE",
"78 706 LINE",
"78 0 LINE"
);
}
);
width = 642;
}
);
leftKerningGroup = H;
leftMetricsKey = H;
rightKerningGroup = Thorn;
unicode = 00DE;
},
{
color = 4;
glyphname = Q;
lastChange = "2021-11-08 14:02:47 +0000";
layers = (
{
components = (
{
name = O;
}
);
layerId = "501D5CC1-F731-4DBC-B0A3-CA82AE369B50";
paths = (
{
closed = 1;
nodes = (
"705 -1 LINE",
"450 214 LINE",
"396 158 LINE",
"656 -59 LINE"
);
}
);
width = 750;
}
);
leftKerningGroup = O;
leftMetricsKey = O;
rightKerningGroup = O;
rightMetricsKey = O;
unicode = 0051;
},
{
color = 4;
glyphname = R;
lastChange = "2021-11-08 14:59:56 +0000";
layers = (
{
anchors = (
{
name = bottom;
position = "{340, 0}";
},
{
name = top;
position = "{340, 706}";
}
);
guideLines = (
{
angle = -57.0115;
position = "{436, 143}";
}
);
layerId = "501D5CC1-F731-4DBC-B0A3-CA82AE369B50";
paths = (
{
closed = 1;
nodes = (
"173 0 LINE",
"173 626 LINE",
"389 626 LINE SMOOTH",
"472 626 OFFCURVE",
"529 568 OFFCURVE",
"529 492 CURVE SMOOTH",
"529 413 OFFCURVE",
"475 362 OFFCURVE",
"386 362 CURVE SMOOTH",
"154 362 LINE",
"154 282 LINE",
"343 282 LINE",
"527 0 LINE",
"637 0 LINE {name = \"\";}",
"637 3 LINE",
"427 319 LINE",
"416 284 LINE",
"544 299 OFFCURVE",
"624 381 OFFCURVE",
"624 493 CURVE SMOOTH",
"624 615 OFFCURVE",
"525 706 OFFCURVE",
"392 706 CURVE SMOOTH",
"78 706 LINE",
"78 0 LINE"
);
},
{
closed = 1;
nodes = (
"646 0 LINE",
"646 79 LINE",
"544 79 LINE",
"544 0 LINE {name = \"\";}"
);
}
);
width = 679;
}
);
leftKerningGroup = H;
leftMetricsKey = H;
rightKerningGroup = R;
unicode = 0052;
},
{
color = 4;
glyphname = S;
lastChange = "2021-11-08 14:02:47 +0000";
layers = (
{
anchors = (
{
name = bottom;
position = "{322, 0}";
},
{
name = top;
position = "{322, 706}";
}
);
guideLines = (
{
angle = 20.6299;
position = "{529, 539}";
},
{
angle = 19.8225;
position = "{-7, 168}";
}
);
layerId = "501D5CC1-F731-4DBC-B0A3-CA82AE369B50";
paths = (
{
closed = 1;
nodes = (
"479 -16 OFFCURVE",
"603 52 OFFCURVE",
"603 193 CURVE SMOOTH",
"603 350 OFFCURVE",
"464 389 OFFCURVE",
"340 411 CURVE SMOOTH",
"243 428 OFFCURVE",
"156 449 OFFCURVE",
"156 530 CURVE SMOOTH",
"156 611 OFFCURVE",
"238 642 OFFCURVE",
"325 642 CURVE SMOOTH",
"404 642 OFFCURVE",
"471 617 OFFCURVE",
"493 523 CURVE",
"578 555 LINE",
"543 674 OFFCURVE",
"448 722 OFFCURVE",
"329 722 CURVE SMOOTH",
"187 722 OFFCURVE",
"65 656 OFFCURVE",
"65 523 CURVE SMOOTH",
"65 385 OFFCURVE",
"193 352 OFFCURVE",
"310 328 CURVE SMOOTH",
"415 306 OFFCURVE",
"513 279 OFFCURVE",
"513 188 CURVE SMOOTH",
"513 100 OFFCURVE",
"425 65 OFFCURVE",
"327 65 CURVE SMOOTH",
"238 65 OFFCURVE",
"155 94 OFFCURVE",
"133 183 CURVE",
"47 152 LINE",
"81 34 OFFCURVE",
"192 -16 OFFCURVE",
"324 -16 CURVE SMOOTH"
);
}
);
width = 644;
}
);
leftKerningGroup = S;
rightKerningGroup = S;
unicode = 0053;
},
{
color = 4;
glyphname = Germandbls;
lastChange = "2021-11-08 14:02:47 +0000";
layers = (
{
layerId = "501D5CC1-F731-4DBC-B0A3-CA82AE369B50";
paths = (
{
closed = 1;
nodes = (
"171 0 LINE",
"171 461 LINE SMOOTH",
"171 579 OFFCURVE",
"233 642 OFFCURVE",
"344 642 CURVE SMOOTH",
"405 642 OFFCURVE",
"447 636 OFFCURVE",
"499 623 CURVE",
"496 649 LINE",
"315 429 LINE",
"315 359 LINE",
"345 364 OFFCURVE",
"374 366 OFFCURVE",
"393 366 CURVE SMOOTH",
"493 366 OFFCURVE",
"551 309 OFFCURVE",
"551 225 CURVE SMOOTH",
"551 141 OFFCURVE",
"492 84 OFFCURVE",
"391 84 CURVE SMOOTH",
"359 84 OFFCURVE",
"330 90 OFFCURVE",
"269 107 CURVE",
"248 22 LINE",
"316 2 OFFCURVE",
"376 0 OFFCURVE",
"397 0 CURVE SMOOTH",
"546 0 OFFCURVE",
"646 93 OFFCURVE",
"646 226 CURVE SMOOTH",
"646 349 OFFCURVE",
"558 444 OFFCURVE",
"419 444 CURVE SMOOTH",
"382 444 LINE",
"402 407 LINE",
"593 623 LINE",
"593 686 LINE",
"513 705 OFFCURVE",
"427 722 OFFCURVE",
"348 722 CURVE SMOOTH",
"170 722 OFFCURVE",
"76 631 OFFCURVE",
"76 461 CURVE SMOOTH",
"76 0 LINE"
);
}
);
width = 685;
}
);
leftKerningGroup = Germandbls;
rightKerningGroup = Germandbls;
unicode = 1E9E;
},
{
color = 4;
glyphname = T;
lastChange = "2021-11-08 14:02:47 +0000";
layers = (
{
anchors = (
{
name = bottom;
position = "{285, 0}";
},
{
name = center;
position = "{285, 353}";
},
{
name = top;
position = "{285, 706}";
}
);
layerId = "501D5CC1-F731-4DBC-B0A3-CA82AE369B50";
paths = (
{
closed = 1;
nodes = (
"332 0 LINE",
"332 637 LINE",
"237 637 LINE",
"237 0 LINE"
);
},
{
closed = 1;
nodes = (
"566 626 LINE",
"566 706 LINE",
"3 706 LINE",
"3 626 LINE"
);
}
);
width = 569;
}
);
leftKerningGroup = T;
rightKerningGroup = T;
unicode = 0054;
},
{
color = 4;
glyphname = Tbar;
lastChange = "2021-11-08 14:02:47 +0000";
layers = (
{
layerId = "501D5CC1-F731-4DBC-B0A3-CA82AE369B50";
paths = (
{
closed = 1;
nodes = (
"458 301 LINE",
"458 371 LINE",
"110 371 LINE",
"110 301 LINE"
);
},
{
closed = 1;
nodes = (
"332 0 LINE",
"332 637 LINE",
"237 637 LINE",
"237 0 LINE"
);
},
{
closed = 1;
nodes = (
"566 626 LINE",
"566 706 LINE",
"3 706 LINE",
"3 626 LINE"
);
}
);
width = 569;
}
);
leftKerningGroup = T;
leftMetricsKey = T;
rightKerningGroup = T;
rightMetricsKey = T;
unicode = 0166;
},
{
color = 4;
glyphname = U;
lastChange = "2021-11-08 14:02:47 +0000";
layers = (
{
anchors = (
{
name = bottom;
position = "{351, 0}";
},
{
name = ogonek;
position = "{632, 10}";
},
{
name = top;
position = "{351, 706}";
},
{
name = topright;
position = "{682, 706}";
}
);
layerId = "501D5CC1-F731-4DBC-B0A3-CA82AE369B50";
paths = (
{
closed = 1;
nodes = (
"507 -16 OFFCURVE",
"628 71 OFFCURVE",
"628 245 CURVE SMOOTH",
"628 706 LINE",
"533 706 LINE",
"533 249 LINE SMOOTH",
"533 120 OFFCURVE",
"460 64 OFFCURVE",
"352 64 CURVE SMOOTH",
"243 64 OFFCURVE",
"169 120 OFFCURVE",
"169 249 CURVE SMOOTH",
"169 706 LINE",
"74 706 LINE",
"74 245 LINE SMOOTH",
"74 71 OFFCURVE",
"195 -16 OFFCURVE",
"352 -16 CURVE SMOOTH"
);
}
);
width = 702;
}
);
leftKerningGroup = U;
rightKerningGroup = U;
unicode = 0055;
},
{
color = 4;
glyphname = Uogonek;
lastChange = "2021-11-08 14:02:47 +0000";
layers = (
{
layerId = "501D5CC1-F731-4DBC-B0A3-CA82AE369B50";
paths = (
{
closed = 1;
nodes = (
"468 -221 OFFCURVE",
"499 -212 OFFCURVE",
"524 -196 CURVE",
"503 -132 LINE",
"489 -141 OFFCURVE",
"473 -148 OFFCURVE",
"457 -148 CURVE SMOOTH",
"432 -148 OFFCURVE",
"419 -135 OFFCURVE",
"419 -115 CURVE SMOOTH",
"419 -80 OFFCURVE",
"441 -40 OFFCURVE",
"546 48 CURVE",
"435 28 LINE",
"372 -27 OFFCURVE",
"334 -78 OFFCURVE",
"334 -133 CURVE SMOOTH",
"334 -186 OFFCURVE",
"370 -221 OFFCURVE",
"436 -221 CURVE SMOOTH"
);
},
{
closed = 1;
nodes = (
"507 -16 OFFCURVE",
"628 71 OFFCURVE",
"628 245 CURVE SMOOTH",
"628 706 LINE",
"533 706 LINE",
"533 249 LINE SMOOTH",
"533 120 OFFCURVE",
"460 64 OFFCURVE",
"352 64 CURVE SMOOTH",
"243 64 OFFCURVE",
"169 120 OFFCURVE",
"169 249 CURVE SMOOTH",
"169 706 LINE",
"74 706 LINE",
"74 245 LINE SMOOTH",
"74 71 OFFCURVE",
"195 -16 OFFCURVE",
"352 -16 CURVE SMOOTH"
);
}
);
width = 702;
}
);
leftKerningGroup = U;
leftMetricsKey = U;
rightKerningGroup = U;
rightMetricsKey = U;
unicode = 0172;
},
{
color = 4;
glyphname = V;
lastChange = "2021-11-08 14:02:47 +0000";
layers = (
{
anchors = (
{
name = bottom;
position = "{303, 0}";
},
{
name = top;
position = "{303, 706}";
}
);
guideLines = (
{
angle = -69.8958;
position = "{105, 680}";
},
{
angle = -69.8958;
position = "{134, 337}";
},
{
angle = 69.8218;
position = "{499, 680}";
},
{
angle = 69.8218;
position = "{473, 337}";
}
);
layerId = "501D5CC1-F731-4DBC-B0A3-CA82AE369B50";
paths = (
{
closed = 1;
nodes = (
"358 0 LINE",
"607 706 LINE",
"506 706 LINE",
"299 76 LINE",
"311 76 LINE",
"102 706 LINE",
"-1 706 LINE",
"249 0 LINE"
);
}
);
width = 606;
}
);
leftKerningGroup = V;
rightKerningGroup = V;
unicode = 0056;
},
{
color = 4;
glyphname = W;
lastChange = "2021-11-08 14:02:47 +0000";
layers = (
{
anchors = (
{
name = bottom;
position = "{457, 0}";
},
{
name = top;
position = "{457, 706}";
}
);
layerId = "501D5CC1-F731-4DBC-B0A3-CA82AE369B50";
paths = (
{
closed = 1;
nodes = (
"285 0 LINE",
"452 586 LINE",
"454 586 LINE",
"618 0 LINE",
"718 0 LINE",
"902 706 LINE",
"808 706 LINE",
"667 120 LINE",
"665 120 LINE",
"504 706 LINE",
"406 706 LINE",
"244 120 LINE",
"242 120 LINE",
"109 706 LINE",
"12 706 LINE",
"187 0 LINE"
);
}
);
width = 914;
}
);
leftKerningGroup = W;
rightKerningGroup = W;
unicode = 0057;
},
{
color = 4;
glyphname = X;
lastChange = "2021-11-08 14:02:47 +0000";
layers = (
{
layerId = "501D5CC1-F731-4DBC-B0A3-CA82AE369B50";
paths = (
{
closed = 1;
nodes = (
"612 0 LINE",
"353 380 LINE",
"315 422 LINE",
"134 706 LINE",
"20 706 LINE",
"258 353 LINE",
"295 311 LINE",
"497 0 LINE"
);
},
{
closed = 1;
nodes = (
"106 0 LINE",
"315 311 LINE",
"257 380 LINE",
"-1 0 LINE"
);
},
{
closed = 1;
nodes = (
"591 706 LINE",
"485 706 LINE",
"297 422 LINE",
"353 353 LINE"
);
}
);
width = 611;
}
);
leftKerningGroup = X;
rightKerningGroup = X;
unicode = 0058;
},
{
color = 4;
glyphname = Y;
lastChange = "2021-11-08 14:02:47 +0000";
layers = (
{
anchors = (
{
name = bottom;
position = "{314, 0}";
},
{
name = top;
position = "{314, 706}";
},
{
name = topleft;
position = "{20, 706}";
}
);
layerId = "501D5CC1-F731-4DBC-B0A3-CA82AE369B50";
paths = (
{
closed = 1;
nodes = (
"362 0 LINE",
"362 312 LINE",
"625 706 LINE",
"518 706 LINE",
"296 363 LINE",
"339 363 LINE",
"117 706 LINE",
"3 706 LINE",
"267 312 LINE",
"267 0 LINE"
);
}
);
width = 628;
}
);
leftKerningGroup = Y;
rightKerningGroup = Y;
unicode = 0059;
},
{
color = 4;
glyphname = Z;
lastChange = "2021-11-08 14:02:47 +0000";
layers = (
{
anchors = (
{
name = bottom;
position = "{298, 0}";
},
{
name = center;
position = "{298, 353}";
},
{
name = top;
position = "{298, 706}";
}
);
layerId = "501D5CC1-F731-4DBC-B0A3-CA82AE369B50";
paths = (
{
closed = 1;
nodes = (
"575 0 LINE",
"575 80 LINE",
"90 80 LINE",
"110 39 LINE",
"563 636 LINE",
"563 706 LINE",
"52 706 LINE",
"52 626 LINE",
"500 626 LINE",
"477 669 LINE",
"22 70 LINE",
"22 0 LINE"
);
}
);
width = 596;
}
);
leftKerningGroup = Z;
rightKerningGroup = Z;
unicode = 005A;
},
{
color = 4;
glyphname = a;
lastChange = "2021-11-08 14:59:57 +0000";
layers = (
{
anchors = (
{
name = bottom;
position = "{276, 0}";
},
{
name = ogonek;
position = "{481, 0}";
},
{
name = top;
position = "{276, 510}";
}
);
guideLines = (
{
angle = -18.0042;
position = "{118, 359}";
},
{
angle = -18.0042;
position = "{117, 351}";
}
);
layerId = "501D5CC1-F731-4DBC-B0A3-CA82AE369B50";
paths = (
{
closed = 1;
nodes = (
"313 -8 OFFCURVE",
"387 58 OFFCURVE",
"409 155 CURVE",
"388 117 LINE",
"388 0 LINE",
"473 0 LINE {name = \"\";}",
"473 328 LINE SMOOTH",
"473 464 OFFCURVE",
"389 522 OFFCURVE",
"273 522 CURVE SMOOTH",
"162 522 OFFCURVE",
"89 463 OFFCURVE",
"68 378 CURVE",
"148 351 LINE",
"165 405 OFFCURVE",
"192 447 OFFCURVE",
"267 447 CURVE SMOOTH",
"334 447 OFFCURVE",
"388 418 OFFCURVE",
"388 337 CURVE SMOOTH",
"388 273 LINE",
"396 171 OFFCURVE",
"332 67 OFFCURVE",
"224 67 CURVE SMOOTH",
"172 67 OFFCURVE",
"134 94 OFFCURVE",
"134 140 CURVE SMOOTH",
"134 228 OFFCURVE",
"244 239 OFFCURVE",
"401 242 CURVE",
"401 312 LINE",
"178 307 OFFCURVE",
"47 271 OFFCURVE",
"47 140 CURVE SMOOTH",
"47 47 OFFCURVE",
"113 -8 OFFCURVE",
"206 -8 CURVE SMOOTH"
);
},
{
closed = 1;
nodes = (
"518 0 LINE",
"518 75 LINE",
"391 75 LINE",
"391 0 LINE {name = \"\";}"
);
}
);
width = 546;
}
);
leftKerningGroup = a;
rightKerningGroup = n;
unicode = 0061;
},
{
color = 4;
glyphname = ae;
lastChange = "2021-11-08 14:02:47 +0000";
layers = (
{
anchors = (
{
name = bottom;
position = "{436, 0}";
},
{
name = top;
position = "{436, 510}";
}
);
hints = (
{
horizontal = 1;
origin = "{1, 26}";
target = "{1, 27}";
type = Stem;
},
{
horizontal = 1;
origin = "{1, 6}";
target = "{1, 13}";
type = Stem;
},
{
horizontal = 1;
origin = "{1, 33}";
target = "{1, 20}";
type = Stem;
},
{
origin = "{1, 30}";
target = "{1, 23}";
type = Stem;
},
{
origin = "{1, 17}";
target = "{0, 9}";
type = Stem;
}
);
layerId = "501D5CC1-F731-4DBC-B0A3-CA82AE369B50";
paths = (
{
closed = 1;
nodes = (
"729 -12 OFFCURVE",
"785 48 OFFCURVE",
"819 136 CURVE",
"737 165 LINE",
"715 101 OFFCURVE",
"686 63 OFFCURVE",
"619 63 CURVE SMOOTH",
"529 63 OFFCURVE",
"465 120 OFFCURVE",
"465 255 CURVE SMOOTH",
"465 375 OFFCURVE",
"525 447 OFFCURVE",
"603 447 CURVE SMOOTH",
"681 447 OFFCURVE",
"731 384 OFFCURVE",
"738 274 CURVE",
"769 308 LINE",
"453 308 LINE",
"453 237 LINE",
"823 237 LINE",
"828 402 OFFCURVE",
"745 522 OFFCURVE",
"603 522 CURVE SMOOTH",
"474 522 OFFCURVE",
"387 402 OFFCURVE",
"387 257 CURVE SMOOTH",
"387 97 OFFCURVE",
"466 -12 OFFCURVE",
"617 -12 CURVE SMOOTH"
);
},
{
closed = 1;
nodes = (
"350 -8 OFFCURVE",
"413 71 OFFCURVE",
"440 172 CURVE",
"457 328 LINE",
"457 464 OFFCURVE",
"379 522 OFFCURVE",
"273 522 CURVE SMOOTH",
"162 522 OFFCURVE",
"89 463 OFFCURVE",
"68 378 CURVE",
"148 351 LINE",
"165 405 OFFCURVE",
"192 447 OFFCURVE",
"267 447 CURVE SMOOTH",
"330 447 OFFCURVE",
"380 418 OFFCURVE",
"380 337 CURVE SMOOTH",
"380 273 LINE",
"388 171 OFFCURVE",
"327 67 OFFCURVE",
"224 67 CURVE SMOOTH",
"172 67 OFFCURVE",
"134 94 OFFCURVE",
"134 140 CURVE SMOOTH",
"134 228 OFFCURVE",
"244 237 OFFCURVE",
"393 237 CURVE",
"393 308 LINE",
"178 308 OFFCURVE",
"47 271 OFFCURVE",
"47 140 CURVE SMOOTH",
"47 47 OFFCURVE",
"113 -8 OFFCURVE",
"206 -8 CURVE SMOOTH"
);
}
);
width = 872;
}
);
leftKerningGroup = a;
leftMetricsKey = a;
rightKerningGroup = e;
rightMetricsKey = e;
unicode = 00E6;
},
{
color = 4;
glyphname = c;
lastChange = "2021-11-08 14:02:47 +0000";
layers = (
{
anchors = (
{
name = bottom;
position = "{267, 0}";
},
{
name = top;
position = "{270, 510}";
}
);
guideLines = (
{
angle = 161.8008;
position = "{486, 136}";
},
{
angle = 17.9691;
position = "{429, 352}";
},
{
angle = 161.8008;
position = "{433, 137}";
}
);
layerId = "501D5CC1-F731-4DBC-B0A3-CA82AE369B50";
paths = (
{
closed = 1;
nodes = (
"391 -12 OFFCURVE",
"453 48 OFFCURVE",
"486 136 CURVE",
"404 165 LINE",
"383 101 OFFCURVE",
"348 63 OFFCURVE",
"275 63 CURVE SMOOTH",
"189 63 OFFCURVE",
"126 135 OFFCURVE",
"126 254 CURVE SMOOTH",
"126 368 OFFCURVE",
"186 447 OFFCURVE",
"266 447 CURVE SMOOTH",
"330 447 OFFCURVE",
"376 421 OFFCURVE",
"404 338 CURVE",
"483 364 LINE",
"456 471 OFFCURVE",
"378 522 OFFCURVE",
"270 522 CURVE SMOOTH",
"137 522 OFFCURVE",
"36 424 OFFCURVE",
"36 255 CURVE SMOOTH",
"36 70 OFFCURVE",
"156 -12 OFFCURVE",
"267 -12 CURVE SMOOTH"
);
}
);
userData = {
de.kutilek.scrawl.data = <89504e470d0a1a0a0000000d49484452000001620000025808000000007d3eb3f000000038655849664d4d002a00000008000187690004000000010000001a000000000002a00200040000000100000162a00300040000000100000258000000006d0c091e00000735494441547801edd4c10d8020140541b04dfb2fc21326f6305efe52001b262fecb33a56e0b2d777fb5a11f315441c3117e081561c3117e081561c3117e081561c3117e081561c3117e081561c3117e081561c3117e081561c3117e081561c3117e081561c3117e081561c3117e081561c3117e081561c3117e081561c3117e081561c3117e081561c3117e081561c3117e081561c3117e081561c3117e081561c3117e081561c3117e081561c3117e081561c3117e081561c3117e081561c3117e081561c3117e081561c3117e081561c3117e081561c3117e081561c3117e081561c3117e081561c3117e081561c3117e081561c3117e081561c3117e081561c3117e081561c3117e081561c3117e081561c3117e081561c3117e081561c3117e081561c3117e081561c3117e081561c3117e081561c3117e081561c3117e081561c3117e081561c3117e081561c3117e081561c3117e081561c3117e081561c3117e081561c3117e081561c3117e081561c3117e081561c3117e081561c3117e081561c3117e081561c3117e081561c3117e081561c3117e081561c3117e081561c3117e081561c3117e081561c3117e081561c3117e081561c3117e081561c3117e081561c3117e081561c3117e081561c3117e081561c3117e08156fc13f1c33b8303df8acf3d58803f7d1f9e981ee82fe60b8838622ec003ad38622ec003ad38622ec003ad38622ec003ad38622ec003ad38622ec003ad38622ec003ad38622ec003ad38622ec003ad38622ec003ad38622ec003ad38622ec003ad38622ec003ad38622ec003ad38622ec003ad38622ec003ad38622ec003ad38622ec003ad38622ec003ad38622ec003ad38622ec003ad38622ec003ad38622ec003ad38622ec003ad38622ec003ad38622ec003ad38622ec003ad38622ec003ad38622ec003ad38622ec003ad38622ec003ad38622ec003ad38622ec003ad38622ec003ad38622ec003ad38622ec003ad38622ec003ad38622ec003ad38622ec003ad38622ec003ad38622ec003ad38622ec003ad38622ec003ad38622ec003ad38622ec003ad38622ec003ad38622ec003ad38622ec003ad38622ec003ad38622ec003ad38622ec003ad38622ec003ad38622ec003ad38622ec003ad38622ec003ad38622ec003ad38622ec003ad38622ec003ad38622ec003ad38622ec003ad38622ec003ad38622ec003ad38622ec003ad38622ec003ad38622ec003ad38622ec003ad38622ec003ad38622ec003ad38622ec003ad38622ec003ad38622ec003ad38622ec003ad38622ec003ad38622ec003ad38622ec003ad38622ec003ad38622ec003ad38622ec003ad38622ec003ad38622ec003ad38622ec003ad38622ec003ad38622ec003ad38622ec003ad38622ec003ad38622ec003ad38622ec003ad38622ec003ad38622ec003ad38622ec003ad38622ec003ad38622ec003ad38622ec003ad38622ec003ad38622ec003ad38622ec003ad38622ec003ad38622ec003ad38622ec003ad38622ec003ad38622ec003ad38622ec003ad38622ec003ad38622ec003ad38622ec003ad38622ec003ad38622ec003ad38622ec003ad38622ec003ad38622ec003ad38622ec003ad38622ec003ad38622ec003ad38622ec003ad38622ec003ad38622ec003ad38622ec003ad38622ec003ad38622ec003ad38622ec003ad38622ec003ad38622ec003ad38622ec003ad38622ec003ad38622ec003ad38622ec003ad38622ec003ad38622ec003ad38622ec003ad38622ec003ad38622ec003ad38622ec003ad38622ec003ad38622ec003ad38622ec003ad38622ec003ad38622ec003ad38622ec003ad38622ec003ad38622ec003ad38622ec003ad38622ec003ad38622ec003ad38622ec003ad38622ec003ad38622ec003ad38622ec003ad38622ec003ad38622ec003ad38622ec003ad38622ec003ad38622ec003ad38622ec003ad38622ec003ad38622ec003ad38622ec003ad38622ec003ad38622ec003ad38622ec003ad38622ec003ad38622ec003ad38622ec003ad38622ec003ad38622ec003ad38622ec003ad38622ec003ad38622ec003ad38622ec003ad38622ec003ad38622ec003ad38622ec003ad38622ec003ad38622ec003ad38622ec003ad38622ec003ad38622ec003ad38622ec003ad38622ec003ad38622ec003ad38622ec003ad38622ec003ad38622ec003ad38622ec003ad38622ec003ad38622ec003ad38622ec003ad38622ec003ad38622ec003ad38622ec003ad38622ec003ad38622ec003ad38622ec003ad38622ec003ad38622ec003ad38622ec003ad38622ec003ad38622ec003ad38622ec003ad38622ec003ad38622ec003ad38622ec003ad38622ec003ad38622ec003ad38622ec003ad38622ec003ad38622ec003ad38622ec003ad38622ec003ad38622ec003ad38622ec003ad38622ec003ad38622ec003ad38622ec003ad38622ec003ad38622ec003ad38622ec003ad38622ec003ad38622ec003ad38622ec003ad38622ec003ad38622ec003ad38622ec003ad38622ec003ad38622ec0032f3eb009001f6492590000000049454e44ae426082>;
de.kutilek.scrawl.rect = (
-100,
-320,
707,
1200
);
de.kutilek.scrawl.size = 2;
de.kutilek.scrawl.unit = 2;
};
width = 507;
}
);
leftKerningGroup = o;
leftMetricsKey = o;
rightKerningGroup = c;
unicode = 0063;
},
{
color = 4;
glyphname = d;
lastChange = "2021-11-08 14:02:47 +0000";
layers = (
{
anchors = (
{
name = bottom;
position = "{287, 0}";
},
{
name = center;
position = "{287, 255}";
},
{
name = top;
position = "{287, 706}";
},
{
name = topright;
position = "{553, 510}";
}
);
layerId = "501D5CC1-F731-4DBC-B0A3-CA82AE369B50";
paths = (
{
closed = 1;
nodes = (
"346 -12 OFFCURVE",
"416 37 OFFCURVE",
"442 116 CURVE",
"428 135 LINE",
"425 92 OFFCURVE",
"424 31 OFFCURVE",
"424 0 CURVE",
"509 0 LINE",
"509 706 LINE",
"424 706 LINE",
"424 494 LINE SMOOTH",
"424 458 OFFCURVE",
"426 421 OFFCURVE",
"429 386 CURVE",
"445 389 LINE",
"424 471 OFFCURVE",
"349 522 OFFCURVE",
"268 522 CURVE SMOOTH",
"135 522 OFFCURVE",
"36 415 OFFCURVE",
"36 256 CURVE SMOOTH",
"36 97 OFFCURVE",
"135 -12 OFFCURVE",
"267 -12 CURVE SMOOTH"
);
},
{
closed = 1;
nodes = (
"187 63 OFFCURVE",
"126 141 OFFCURVE",
"126 258 CURVE SMOOTH",
"126 370 OFFCURVE",
"188 447 OFFCURVE",
"276 447 CURVE SMOOTH",
"362 447 OFFCURVE",
"425 371 OFFCURVE",
"425 257 CURVE SMOOTH",
"425 141 OFFCURVE",
"362 63 OFFCURVE",
"276 63 CURVE SMOOTH"
);
}
);
width = 573;
}
);
leftKerningGroup = d;
rightKerningGroup = l;
unicode = 0064;
},
{
color = 4;
glyphname = eth;
lastChange = "2021-11-08 14:02:47 +0000";
layers = (
{
layerId = "501D5CC1-F731-4DBC-B0A3-CA82AE369B50";
paths = (
{
closed = 1;
nodes = (
"434 -12 OFFCURVE",
"516 107 OFFCURVE",
"516 260 CURVE SMOOTH",
"516 512 OFFCURVE",
"374 664 OFFCURVE",
"164 737 CURVE",
"130 666 LINE",
"232 635 OFFCURVE",
"375 568 OFFCURVE",
"426 373 CURVE",
"436 384 LINE",
"405 470 OFFCURVE",
"335 500 OFFCURVE",
"269 500 CURVE SMOOTH",
"136 500 OFFCURVE",
"36 391 OFFCURVE",
"36 235 CURVE SMOOTH",
"36 70 OFFCURVE",
"155 -12 OFFCURVE",
"282 -12 CURVE SMOOTH"
);
},
{
closed = 1;
nodes = (
"177 63 OFFCURVE",
"126 140 OFFCURVE",
"126 240 CURVE SMOOTH",
"126 345 OFFCURVE",
"189 425 OFFCURVE",
"280 425 CURVE SMOOTH",
"360 425 OFFCURVE",
"426 349 OFFCURVE",
"426 250 CURVE SMOOTH",
"426 150 OFFCURVE",
"386 63 OFFCURVE",
"280 63 CURVE SMOOTH"
);
},
{
closed = 1;
nodes = (
"437 686 LINE",
"405 740 LINE",
"142 590 LINE",
"174 535 LINE"
);
}
);
width = 566;
}
);
leftKerningGroup = eth;
leftMetricsKey = o;
rightKerningGroup = eth;
unicode = 00F0;
},
{
color = 4;
glyphname = dcaron;
lastChange = "2021-11-08 14:02:47 +0000";
layers = (
{
components = (
{
name = d;
}
);
layerId = "501D5CC1-F731-4DBC-B0A3-CA82AE369B50";
paths = (
{
closed = 1;
nodes = (
"621 526 LINE",
"661 706 LINE",
"574 706 LINE",
"559 526 LINE"
);
}
);
width = 605;
}
);
leftKerningGroup = d;
leftMetricsKey = o;
rightKerningGroup = dcaron;
rightMetricsKey = "=|n-120";
unicode = 010F;
},
{
color = 4;
glyphname = dcroat;
lastChange = "2021-11-08 14:02:47 +0000";
layers = (
{
components = (
{
name = d;
}
);
layerId = "501D5CC1-F731-4DBC-B0A3-CA82AE369B50";
paths = (
{
closed = 1;
nodes = (
"577 578 LINE",
"577 646 LINE",
"272 646 LINE",
"272 578 LINE"
);
}
);
width = 568;
}
);
leftKerningGroup = d;
leftMetricsKey = o;
rightKerningGroup = l;
rightMetricsKey = "=|n-73";
unicode = 0111;
},
{
color = 4;
glyphname = e;
lastChange = "2021-11-08 14:02:47 +0000";
layers = (
{
anchors = (
{
name = bottom;
position = "{278, 0}";
},
{
name = ogonek;
position = "{500, 0}";
},
{
name = top;
position = "{278, 510}";
}
);
guideLines = (
{
angle = 161.811;
position = "{453, 140}";
}
);
layerId = "501D5CC1-F731-4DBC-B0A3-CA82AE369B50";
paths = (
{
closed = 1;
nodes = (
"406 -12 OFFCURVE",
"465 48 OFFCURVE",
"498 136 CURVE",
"416 165 LINE",
"395 101 OFFCURVE",
"363 63 OFFCURVE",
"288 63 CURVE SMOOTH",
"190 63 OFFCURVE",
"120 120 OFFCURVE",
"120 255 CURVE SMOOTH",
"120 374 OFFCURVE",
"186 447 OFFCURVE",
"272 447 CURVE SMOOTH",
"358 447 OFFCURVE",
"414 384 OFFCURVE",
"421 274 CURVE",
"452 303 LINE",
"108 303 LINE",
"108 231 LINE",
"506 231 LINE",
"511 402 OFFCURVE",
"423 522 OFFCURVE",
"272 522 CURVE SMOOTH",
"131 522 OFFCURVE",
"36 402 OFFCURVE",
"36 257 CURVE SMOOTH",
"36 97 OFFCURVE",
"121 -12 OFFCURVE",
"286 -12 CURVE SMOOTH"
);
}
);
width = 555;
}
);
leftKerningGroup = o;
leftMetricsKey = o;
rightKerningGroup = e;
unicode = 0065;
},
{
color = 4;
glyphname = eogonek;
lastChange = "2021-11-08 14:02:47 +0000";
layers = (
{
anchors = (
{
name = top;
position = "{278, 510}";
}
);
layerId = "501D5CC1-F731-4DBC-B0A3-CA82AE369B50";
paths = (
{
closed = 1;
nodes = (
"406 -12 OFFCURVE",
"465 48 OFFCURVE",
"498 136 CURVE",
"416 165 LINE",
"395 101 OFFCURVE",
"363 63 OFFCURVE",
"288 63 CURVE SMOOTH",
"190 63 OFFCURVE",
"120 120 OFFCURVE",
"120 255 CURVE SMOOTH",
"120 374 OFFCURVE",
"186 447 OFFCURVE",
"272 447 CURVE SMOOTH",
"358 447 OFFCURVE",
"414 384 OFFCURVE",
"421 274 CURVE",
"452 303 LINE",
"108 303 LINE",
"108 231 LINE",
"506 231 LINE",
"511 402 OFFCURVE",
"423 522 OFFCURVE",
"272 522 CURVE SMOOTH",
"131 522 OFFCURVE",
"36 402 OFFCURVE",
"36 257 CURVE SMOOTH",
"36 97 OFFCURVE",
"121 -12 OFFCURVE",
"286 -12 CURVE SMOOTH"
);
},
{
closed = 1;
nodes = (
"392 -215 OFFCURVE",
"424 -207 OFFCURVE",
"448 -190 CURVE",
"426 -128 LINE",
"413 -138 OFFCURVE",
"397 -145 OFFCURVE",
"381 -145 CURVE SMOOTH",
"355 -145 OFFCURVE",
"343 -132 OFFCURVE",
"343 -112 CURVE SMOOTH",
"343 -82 OFFCURVE",
"375 -40 OFFCURVE",
"456 60 CURVE",
"407 90 LINE",
"307 -23 OFFCURVE",
"265 -76 OFFCURVE",
"265 -130 CURVE SMOOTH",
"265 -177 OFFCURVE",
"296 -215 OFFCURVE",
"361 -215 CURVE SMOOTH"
);
}
);
width = 555;
}
);
leftKerningGroup = o;
leftMetricsKey = o;
rightKerningGroup = e;
rightMetricsKey = e;
unicode = 0119;
},
{
color = 4;
glyphname = f;
lastChange = "2021-11-08 15:02:21 +0000";
layers = (
{
hints = (
{
horizontal = 1;
origin = "{0, 15}";
target = up;
type = BottomGhost;
},
{
horizontal = 1;
origin = "{1, 3}";
target = "{1, 2}";
type = Stem;
},
{
horizontal = 1;
origin = "{0, 11}";
target = "{0, 4}";
type = Stem;
},
{
horizontal = 1;
origin = "{0, 11}";
target = down;
type = TopGhost;
},
{
origin = "{0, 15}";
target = "{0, 0}";
type = Stem;
}
);
layerId = "501D5CC1-F731-4DBC-B0A3-CA82AE369B50";
paths = (
{
closed = 1;
nodes = (
"201 0 LINE",
"201 576 LINE SMOOTH",
"201 623 OFFCURVE",
"224 637 OFFCURVE",
"255 637 CURVE SMOOTH",
"274 637 OFFCURVE",
"290 632 OFFCURVE",
"311 621 CURVE",
"323 694 LINE",
"302 706 OFFCURVE",
"271 712 OFFCURVE",
"247 712 CURVE SMOOTH",
"159 712 OFFCURVE",
"116 648 OFFCURVE",
"116 581 CURVE SMOOTH",
"116 0 LINE"
);
},
{
closed = 1;
nodes = (
"301 435 LINE",
"301 510 LINE",
"25 510 LINE",
"25 435 LINE"
);
}
);
visible = 1;
width = 321;
}
);
leftKerningGroup = f;
note = "blue must check";
rightKerningGroup = f;
unicode = 0066;
},
{
color = 4;
glyphname = g;
lastChange = "2021-11-08 15:02:36 +0000";
layers = (
{
anchors = (
{
name = bottom;
position = "{287, -204}";
},
{
name = top;
position = "{287, 510}";
}
);
guideLines = (
{
angle = 194.1985;
position = "{141, -56}";
}
);
layerId = "501D5CC1-F731-4DBC-B0A3-CA82AE369B50";
paths = (
{
closed = 1;
nodes = (
"421 -210 OFFCURVE",
"509 -120 OFFCURVE",
"509 35 CURVE SMOOTH",
"509 510 LINE",
"424 510 LINE",
"424 378 LINE",
"445 389 LINE",
"424 472 OFFCURVE",
"349 522 OFFCURVE",
"268 522 CURVE SMOOTH",
"135 522 OFFCURVE",
"36 417 OFFCURVE",
"36 259 CURVE SMOOTH",
"36 105 OFFCURVE",
"135 0 OFFCURVE",
"267 0 CURVE SMOOTH",
"346 0 OFFCURVE",
"416 44 OFFCURVE",
"442 116 CURVE",
"428 135 LINE",
"425 99 OFFCURVE",
"424 59 OFFCURVE",
"424 33 CURVE SMOOTH",
"424 -75 OFFCURVE",
"368 -135 OFFCURVE",
"275 -135 CURVE SMOOTH",
"210 -135 OFFCURVE",
"159 -98 OFFCURVE",
"141 -35 CURVE",
"59 -58 LINE",
"84 -153 OFFCURVE",
"159 -210 OFFCURVE",
"281 -210 CURVE SMOOTH"
);
},
{
closed = 1;
nodes = (
"187 75 OFFCURVE",
"126 149 OFFCURVE",
"126 261 CURVE SMOOTH",
"126 371 OFFCURVE",
"188 447 OFFCURVE",
"276 447 CURVE SMOOTH",
"362 447 OFFCURVE",
"425 371 OFFCURVE",
"425 257 CURVE SMOOTH",
"425 148 OFFCURVE",
"362 75 OFFCURVE",
"276 75 CURVE SMOOTH"
);
}
);
visible = 1;
width = 573;
}
);
leftKerningGroup = d;
leftMetricsKey = o;
rightKerningGroup = g;
rightMetricsKey = "=|n";
unicode = 0067;
},
{
color = 4;
glyphname = h;
lastChange = "2021-11-08 14:02:47 +0000";
layers = (
{
anchors = (
{
name = bottom;
position = "{275, 0}";
},
{
name = center;
position = "{275, 353}";
},
{
name = top;
position = "{107, 706}";
}
);
layerId = "501D5CC1-F731-4DBC-B0A3-CA82AE369B50";
paths = (
{
closed = 1;
nodes = (
"149 0 LINE",
"149 268 LINE SMOOTH",
"149 376 OFFCURVE",
"205 447 OFFCURVE",
"292 447 CURVE SMOOTH",
"363 447 OFFCURVE",
"401 402 OFFCURVE",
"401 313 CURVE SMOOTH",
"401 0 LINE",
"486 0 LINE",
"486 314 LINE SMOOTH",
"486 449 OFFCURVE",
"422 522 OFFCURVE",
"304 522 CURVE SMOOTH",
"223 522 OFFCURVE",
"160 474 OFFCURVE",
"133 403 CURVE",
"144 386 LINE",
"147 421 OFFCURVE",
"149 458 OFFCURVE",
"149 494 CURVE SMOOTH",
"149 706 LINE",
"64 706 LINE",
"64 0 LINE"
);
}
);
width = 549;
}
);
leftKerningGroup = l;
rightKerningGroup = n;
unicode = 0068;
},
{
color = 4;
glyphname = hbar;
lastChange = "2021-11-08 14:02:47 +0000";
layers = (
{
components = (
{
name = h;
transform = "{1, 0, 0, 1, 12, 0}";
}
);
layerId = "501D5CC1-F731-4DBC-B0A3-CA82AE369B50";
paths = (
{
closed = 1;
nodes = (
"353 577 LINE",
"353 645 LINE",
"-2 645 LINE",
"-2 577 LINE"
);
}
);
width = 561;
}
);
leftKerningGroup = hbar;
note = "blue must check";
rightKerningGroup = n;
rightMetricsKey = n;
unicode = 0127;
},
{
color = 4;
glyphname = i;
lastChange = "2021-11-08 15:04:14 +0000";
layers = (
{
anchors = (
{
name = bottom;
position = "{110, 0}";
}
);
hints = (
{
horizontal = 1;
origin = "{0, 3}";
target = up;
type = BottomGhost;
},
{
horizontal = 1;
origin = "{0, 2}";
target = down;
type = TopGhost;
},
{
horizontal = 1;
origin = "{1, 2}";
target = "{1, 3}";
type = Stem;
},
{
origin = "{0, 3}";
target = "{0, 0}";
type = Stem;
}
);
layerId = "501D5CC1-F731-4DBC-B0A3-CA82AE369B50";
paths = (
{
closed = 1;
nodes = (
"153 0 LINE",
"153 510 LINE",
"68 510 LINE",
"68 0 LINE"
);
},
{
closed = 1;
nodes = (
"153 606 LINE",
"153 706 LINE",
"68 706 LINE",
"68 606 LINE"
);
}
);
width = 221;
}
);
leftKerningGroup = i;
leftMetricsKey = "=n+4";
rightKerningGroup = i;
rightMetricsKey = "=|n+4";
unicode = 0069;
},
{
color = 4;
glyphname = idotless;
lastChange = "2021-11-08 14:43:32 +0000";
layers = (
{
anchors = (
{
name = bottom;
position = "{106, 0}";
},
{
name = ogonek;
position = "{158, 0}";
},
{
name = top;
position = "{106, 510}";
}
);
hints = (
{
horizontal = 1;
origin = "{0, 3}";
target = up;
type = BottomGhost;
},
{
horizontal = 1;
origin = "{0, 2}";
target = down;
type = TopGhost;
},
{
origin = "{0, 3}";
target = "{0, 0}";
type = Stem;
}
);
layerId = "501D5CC1-F731-4DBC-B0A3-CA82AE369B50";
paths = (
{
closed = 1;
nodes = (
"149 0 LINE",
"149 510 LINE",
"64 510 LINE",
"64 0 LINE"
);
}
);
width = 213;
}
);
leftKerningGroup = n;
leftMetricsKey = n;
rightKerningGroup = u;
rightMetricsKey = "=|n";
unicode = 0131;
},
{
color = 4;
glyphname = iogonek;
lastChange = "2021-11-08 15:03:45 +0000";
layers = (
{
layerId = "501D5CC1-F731-4DBC-B0A3-CA82AE369B50";
paths = (
{
closed = 1;
nodes = (
"149 0 LINE",
"149 510 LINE",
"64 510 LINE",
"64 0 LINE"
);
},
{
closed = 1;
nodes = (
"149 605 LINE",
"149 706 LINE",
"63 706 LINE",
"63 605 LINE"
);
},
{
closed = 1;
nodes = (
"140 -215 OFFCURVE",
"172 -207 OFFCURVE",
"196 -190 CURVE",
"174 -128 LINE",
"161 -138 OFFCURVE",
"145 -145 OFFCURVE",
"129 -145 CURVE SMOOTH",
"103 -145 OFFCURVE",
"91 -132 OFFCURVE",
"91 -112 CURVE SMOOTH",
"91 -82 OFFCURVE",
"114 -40 OFFCURVE",
"149 0 CURVE {name = \"\";}",
"85 30 LINE",
"46 -23 OFFCURVE",
"13 -76 OFFCURVE",
"13 -130 CURVE SMOOTH",
"13 -177 OFFCURVE",
"44 -215 OFFCURVE",
"109 -215 CURVE SMOOTH"
);
}
);
width = 213;
}
);
leftKerningGroup = i;
note = "blue must check";
rightKerningGroup = i;
unicode = 012F;
},
{
color = 4;
glyphname = j;
lastChange = "2021-11-08 15:05:44 +0000";
layers = (
{
hints = (
{
horizontal = 1;
origin = "{0, 15}";
target = "{0, 8}";
type = Stem;
},
{
horizontal = 1;
origin = "{0, 4}";
target = down;
type = TopGhost;
},
{
horizontal = 1;
origin = "{1, 2}";
target = "{1, 3}";
type = Stem;
},
{
origin = "{0, 5}";
target = "{0, 2}";
type = Stem;
}
);
layerId = "501D5CC1-F731-4DBC-B0A3-CA82AE369B50";
paths = (
{
closed = 1;
nodes = (
"112 -210 OFFCURVE",
"165 -142 OFFCURVE",
"165 -12 CURVE SMOOTH",
"165 510 LINE",
"80 510 LINE",
"80 -6 LINE SMOOTH",
"80 -89 OFFCURVE",
"69 -137 OFFCURVE",
"19 -137 CURVE SMOOTH",
"-4 -137 OFFCURVE",
"-23 -135 OFFCURVE",
"-48 -124 CURVE",
"-60 -199 LINE",
"-35 -207 OFFCURVE",
"-12 -210 OFFCURVE",
"17 -210 CURVE"
);
},
{
closed = 1;
nodes = (
"165 606 LINE",
"165 706 LINE",
"80 706 LINE",
"80 606 LINE"
);
}
);
width = 240;
}
);
leftKerningGroup = j;
rightKerningGroup = j;
unicode = 006A;
},
{
color = 4;
glyphname = jdotless;
lastChange = "2021-11-08 14:02:47 +0000";
layers = (
{
anchors = (
{
name = bottom;
position = "{121, -220}";
},
{
name = top;
position = "{122, 510}";
}
);
layerId = "501D5CC1-F731-4DBC-B0A3-CA82AE369B50";
paths = (
{
closed = 1;
nodes = (
"112 -210 OFFCURVE",
"165 -142 OFFCURVE",
"165 -12 CURVE SMOOTH",
"165 510 LINE",
"80 510 LINE",
"80 -6 LINE SMOOTH",
"80 -89 OFFCURVE",
"69 -137 OFFCURVE",
"19 -137 CURVE SMOOTH",
"-4 -137 OFFCURVE",
"-23 -135 OFFCURVE",
"-48 -124 CURVE",
"-60 -199 LINE",
"-35 -207 OFFCURVE",
"-12 -210 OFFCURVE",
"17 -210 CURVE"
);
}
);
width = 240;
}
);
leftKerningGroup = j;
rightKerningGroup = j;
unicode = 0237;
},
{
color = 4;
glyphname = k;
lastChange = "2021-11-08 14:59:57 +0000";
layers = (
{
anchors = (
{
name = bottom;
position = "{267, 0}";
},
{
name = top;
position = "{267, 706}";
}
);
layerId = "501D5CC1-F731-4DBC-B0A3-CA82AE369B50";
paths = (
{
closed = 1;
nodes = (
"491 510 LINE",
"377 510 LINE",
"137 280 LINE",
"137 185 LINE"
);
},
{
closed = 1;
nodes = (
"149 0 LINE",
"149 706 LINE",
"64 706 LINE",
"64 0 LINE"
);
},
{
closed = 1;
nodes = (
"514 0 LINE {name = \"\";}",
"285 342 LINE",
"220 283 LINE",
"406 0 LINE"
);
},
{
closed = 1;
nodes = (
"536 0 LINE",
"536 75 LINE",
"406 75 LINE",
"406 0 LINE {name = \"\";}"
);
}
);
width = 543;
}
);
leftKerningGroup = l;
leftMetricsKey = n;
rightKerningGroup = k;
unicode = 006B;
},
{
color = 4;
glyphname = kgreenlandic;
lastChange = "2021-11-08 14:59:57 +0000";
layers = (
{
anchors = (
{
name = bottom;
position = "{267, 0}";
},
{
name = top;
position = "{267, 510}";
}
);
layerId = "501D5CC1-F731-4DBC-B0A3-CA82AE369B50";
paths = (
{
closed = 1;
nodes = (
"491 510 LINE",
"377 510 LINE",
"137 280 LINE",
"137 185 LINE"
);
},
{
closed = 1;
nodes = (
"149 0 LINE",
"149 510 LINE",
"64 510 LINE",
"64 0 LINE"
);
},
{
closed = 1;
nodes = (
"514 0 LINE {name = \"\";}",
"285 342 LINE",
"220 283 LINE",
"406 0 LINE"
);
},
{
closed = 1;
nodes = (
"536 0 LINE",
"536 75 LINE",
"406 75 LINE",
"406 0 LINE {name = \"\";}"
);
}
);
width = 543;
}
);
leftKerningGroup = n;
leftMetricsKey = n;
rightKerningGroup = k;
rightMetricsKey = k;
unicode = 0138;
},
{
color = 4;
glyphname = l;
lastChange = "2021-11-08 14:59:57 +0000";
layers = (
{
anchors = (
{
name = bottom;
position = "{112, 0}";
},
{
name = center;
position = "{112, 353}";
},
{
name = top;
position = "{112, 706}";
},
{
name = topright;
position = "{228, 706}";
}
);
layerId = "501D5CC1-F731-4DBC-B0A3-CA82AE369B50";
paths = (
{
closed = 1;
nodes = (
"154 0 LINE {name = \"\";}",
"154 706 LINE",
"69 706 LINE",
"69 0 LINE"
);
},
{
closed = 1;
nodes = (
"244 0 LINE",
"244 75 LINE",
"113 75 LINE",
"113 0 LINE {name = \"\";}"
);
}
);
width = 269;
}
);
leftKerningGroup = l;
rightKerningGroup = l;
unicode = 006C;
},
{
color = 4;
glyphname = lcaron;
lastChange = "2021-11-08 14:02:47 +0000";
layers = (
{
components = (
{
name = l;
transform = "{1, 0, 0, 1, -5, 0}";
}
);
layerId = "501D5CC1-F731-4DBC-B0A3-CA82AE369B50";
paths = (
{
closed = 1;
nodes = (
"261 526 LINE",
"301 706 LINE",
"214 706 LINE",
"199 526 LINE"
);
}
);
width = 270;
}
);
leftKerningGroup = l;
leftMetricsKey = n;
note = "blue must check";
rightKerningGroup = dcaron;
rightMetricsKey = "=dcaron+25";
unicode = 013E;
},
{
color = 4;
glyphname = ldot;
lastChange = "2021-11-08 14:02:47 +0000";
layers = (
{
components = (
{
name = l;
transform = "{1, 0, 0, 1, -5, 0}";
}
);
layerId = "501D5CC1-F731-4DBC-B0A3-CA82AE369B50";
paths = (
{
closed = 1;
nodes = (
"314 299 LINE",
"314 401 LINE",
"228 401 LINE",
"228 299 LINE"
);
}
);
width = 343;
}
);
leftKerningGroup = l;
leftMetricsKey = n;
rightKerningGroup = ldot;
unicode = 0140;
},
{
color = 4;
glyphname = lslash;
lastChange = "2021-11-08 14:02:47 +0000";
layers = (
{
components = (
{
name = l;
transform = "{1, 0, 0, 1, 29, 0}";
}
);
layerId = "501D5CC1-F731-4DBC-B0A3-CA82AE369B50";
paths = (
{
closed = 1;
nodes = (
"269 381 LINE",
"240 442 LINE",
"14 341 LINE",
"43 279 LINE"
);
}
);
width = 298;
}
);
leftKerningGroup = lslash;
note = "blue must check";
rightKerningGroup = lslash;
unicode = 0142;
},
{
color = 4;
glyphname = m;
lastChange = "2021-11-08 14:02:47 +0000";
layers = (
{
anchors = (
{
name = bottom;
position = "{425, 0}";
},
{
name = top;
position = "{425, 510}";
}
);
layerId = "501D5CC1-F731-4DBC-B0A3-CA82AE369B50";
paths = (
{
closed = 1;
nodes = (
"149 0 LINE",
"149 248 LINE SMOOTH",
"149 356 OFFCURVE",
"191 447 OFFCURVE",
"286 447 CURVE SMOOTH",
"347 447 OFFCURVE",
"383 390 OFFCURVE",
"383 325 CURVE SMOOTH",
"383 0 LINE",
"468 0 LINE",
"468 248 LINE SMOOTH",
"468 356 OFFCURVE",
"509 447 OFFCURVE",
"604 447 CURVE SMOOTH",
"661 447 OFFCURVE",
"702 402 OFFCURVE",
"702 325 CURVE SMOOTH",
"702 0 LINE",
"787 0 LINE",
"787 323 LINE SMOOTH",
"787 446 OFFCURVE",
"727 522 OFFCURVE",
"616 522 CURVE SMOOTH",
"528 522 OFFCURVE",
"470 474 OFFCURVE",
"438 402 CURVE",
"458 400 LINE",
"437 475 OFFCURVE",
"383 522 OFFCURVE",
"302 522 CURVE SMOOTH",
"222 522 OFFCURVE",
"160 475 OFFCURVE",
"133 398 CURVE",
"144 381 LINE",
"144 510 LINE",
"64 510 LINE",
"64 0 LINE"
);
}
);
width = 850;
}
);
leftKerningGroup = n;
leftMetricsKey = n;
rightKerningGroup = n;
rightMetricsKey = n;
unicode = 006D;
},
{
color = 4;
glyphname = n;
lastChange = "2021-11-08 14:02:47 +0000";
layers = (
{
anchors = (
{
name = bottom;
position = "{275, 0}";
},
{
name = top;
position = "{275, 510}";
}
);
layerId = "501D5CC1-F731-4DBC-B0A3-CA82AE369B50";
paths = (
{
closed = 1;
nodes = (
"149 0 LINE",
"149 268 LINE SMOOTH",
"149 377 OFFCURVE",
"205 447 OFFCURVE",
"292 447 CURVE SMOOTH",
"363 447 OFFCURVE",
"401 403 OFFCURVE",
"401 313 CURVE SMOOTH",
"401 0 LINE",
"486 0 LINE",
"486 314 LINE SMOOTH",
"486 450 OFFCURVE",
"422 522 OFFCURVE",
"304 522 CURVE SMOOTH",
"223 522 OFFCURVE",
"160 475 OFFCURVE",
"133 403 CURVE",
"144 386 LINE",
"144 510 LINE",
"64 510 LINE",
"64 0 LINE"
);
}
);
width = 549;
}
);
leftKerningGroup = n;
rightKerningGroup = n;
unicode = 006E;
},
{
color = 4;
glyphname = napostrophe;
lastChange = "2021-11-08 14:02:47 +0000";
layers = (
{
components = (
{
name = n;
}
);
layerId = "501D5CC1-F731-4DBC-B0A3-CA82AE369B50";
paths = (
{
closed = 1;
nodes = (
"35 526 LINE",
"89 706 LINE",
"2 706 LINE",
"-27 526 LINE"
);
}
);
width = 549;
}
);
leftKerningGroup = napostrophe;
note = "blue must check";
rightKerningGroup = n;
rightMetricsKey = n;
unicode = 0149;
},
{
color = 4;
glyphname = eng;
lastChange = "2021-11-08 14:02:47 +0000";
layers = (
{
layerId = "501D5CC1-F731-4DBC-B0A3-CA82AE369B50";
paths = (
{
closed = 1;
nodes = (
"433 -210 OFFCURVE",
"486 -142 OFFCURVE",
"486 -12 CURVE SMOOTH",
"486 314 LINE SMOOTH",
"486 450 OFFCURVE",
"422 522 OFFCURVE",
"304 522 CURVE SMOOTH",
"223 522 OFFCURVE",
"160 475 OFFCURVE",
"133 403 CURVE",
"144 386 LINE",
"144 510 LINE",
"64 510 LINE",
"64 0 LINE",
"149 0 LINE",
"149 268 LINE SMOOTH",
"149 377 OFFCURVE",
"205 447 OFFCURVE",
"292 447 CURVE SMOOTH",
"363 447 OFFCURVE",
"401 403 OFFCURVE",
"401 313 CURVE SMOOTH",
"401 -6 LINE SMOOTH",
"401 -89 OFFCURVE",
"390 -137 OFFCURVE",
"340 -137 CURVE SMOOTH",
"317 -137 OFFCURVE",
"298 -135 OFFCURVE",
"273 -124 CURVE",
"261 -199 LINE",
"286 -207 OFFCURVE",
"309 -210 OFFCURVE",
"338 -210 CURVE"
);
}
);
width = 549;
}
);
leftKerningGroup = n;
leftMetricsKey = n;
rightKerningGroup = n;
rightMetricsKey = n;
unicode = 014B;
},
{
color = 4;
glyphname = o;
lastChange = "2021-11-08 14:02:47 +0000";
layers = (
{
anchors = (
{
name = bottom;
position = "{283, 0}";
},
{
name = center;
position = "{283, 255}";
},
{
name = ogonek;
position = "{509, 10}";
},
{
name = top;
position = "{283, 510}";
},
{
name = topright;
position = "{546, 510}";
}
);
layerId = "501D5CC1-F731-4DBC-B0A3-CA82AE369B50";
paths = (
{
closed = 1;
nodes = (
"427 -12 OFFCURVE",
"530 99 OFFCURVE",
"530 255 CURVE SMOOTH",
"530 411 OFFCURVE",
"427 522 OFFCURVE",
"281 522 CURVE SMOOTH",
"137 522 OFFCURVE",
"36 411 OFFCURVE",
"36 255 CURVE SMOOTH",
"36 99 OFFCURVE",
"137 -12 OFFCURVE",
"281 -12 CURVE SMOOTH"
);
},
{
closed = 1;
nodes = (
"190 63 OFFCURVE",
"126 142 OFFCURVE",
"126 255 CURVE SMOOTH",
"126 367 OFFCURVE",
"190 447 OFFCURVE",
"281 447 CURVE SMOOTH",
"374 447 OFFCURVE",
"440 367 OFFCURVE",
"440 255 CURVE SMOOTH",
"440 142 OFFCURVE",
"374 63 OFFCURVE",
"281 63 CURVE SMOOTH"
);
}
);
width = 566;
}
);
leftKerningGroup = o;
rightKerningGroup = o;
unicode = 006F;
},
{
color = 4;
glyphname = oslash;
lastChange = "2021-11-08 14:02:47 +0000";
layers = (
{
anchors = (
{
name = top;
position = "{297, 509}";
}
);
components = (
{
name = o;
}
);
layerId = "501D5CC1-F731-4DBC-B0A3-CA82AE369B50";
paths = (
{
closed = 1;
nodes = (
"176 47 LINE",
"183 59 LINE",
"426 415 LINE",
"442 436 LINE",
"500 520 LINE",
"453 552 LINE",
"398 472 LINE",
"388 456 LINE",
"143 97 LINE",
"128 77 LINE",
"67 -12 LINE",
"114 -44 LINE"
);
}
);
width = 566;
}
);
leftKerningGroup = o;
leftMetricsKey = o;
rightKerningGroup = o;
rightMetricsKey = o;
unicode = 00F8;
},
{
color = 4;
glyphname = oe;
lastChange = "2021-11-08 14:59:57 +0000";
layers = (
{
anchors = (
{
name = bottom;
position = "{483, 0}";
},
{
name = top;
position = "{483, 509}";
}
);
layerId = "501D5CC1-F731-4DBC-B0A3-CA82AE369B50";
paths = (
{
closed = 1;
nodes = (
"774 -12 OFFCURVE",
"830 48 OFFCURVE",
"864 136 CURVE",
"782 165 LINE",
"760 101 OFFCURVE",
"731 63 OFFCURVE",
"664 63 CURVE SMOOTH",
"574 63 OFFCURVE",
"510 120 OFFCURVE",
"510 255 CURVE SMOOTH",
"510 375 OFFCURVE",
"570 447 OFFCURVE",
"648 447 CURVE SMOOTH",
"726 447 OFFCURVE",
"776 384 OFFCURVE",
"783 274 CURVE",
"814 303 LINE",
"498 303 LINE",
"498 231 LINE",
"868 231 LINE",
"873 402 OFFCURVE",
"790 522 OFFCURVE",
"648 522 CURVE SMOOTH",
"519 522 OFFCURVE",
"432 402 OFFCURVE",
"432 257 CURVE SMOOTH",
"432 97 OFFCURVE",
"511 -12 OFFCURVE",
"662 -12 CURVE SMOOTH"
);
},
{
closed = 1;
nodes = (
"404 -12 OFFCURVE",
"498 91 OFFCURVE",
"498 255 CURVE SMOOTH {name = \"\";}",
"498 413 OFFCURVE",
"404 522 OFFCURVE",
"271 522 CURVE SMOOTH",
"133 522 OFFCURVE",
"36 411 OFFCURVE",
"36 255 CURVE SMOOTH",
"36 99 OFFCURVE",
"133 -12 OFFCURVE",
"271 -12 CURVE SMOOTH"
);
},
{
closed = 1;
nodes = (
"186 63 OFFCURVE",
"126 142 OFFCURVE",
"126 255 CURVE SMOOTH",
"126 367 OFFCURVE",
"186 447 OFFCURVE",
"271 447 CURVE SMOOTH",
"358 447 OFFCURVE",
"420 367 OFFCURVE",
"420 255 CURVE SMOOTH",
"420 142 OFFCURVE",
"358 63 OFFCURVE",
"271 63 CURVE SMOOTH"
);
}
);
width = 917;
}
);
leftKerningGroup = o;
leftMetricsKey = o;
rightKerningGroup = e;
rightMetricsKey = e;
unicode = 0153;
},
{
color = 4;
glyphname = p;
lastChange = "2021-11-08 14:02:47 +0000";
layers = (
{
anchors = (
{
name = bottom;
position = "{287, 0}";
},
{
name = top;
position = "{287, 510}";
}
);
layerId = "501D5CC1-F731-4DBC-B0A3-CA82AE369B50";
paths = (
{
closed = 1;
nodes = (
"149 -204 LINE",
"149 130 LINE",
"135 111 LINE",
"162 35 OFFCURVE",
"232 -12 OFFCURVE",
"312 -12 CURVE SMOOTH",
"441 -12 OFFCURVE",
"537 102 OFFCURVE",
"537 256 CURVE SMOOTH",
"537 410 OFFCURVE",
"442 522 OFFCURVE",
"311 522 CURVE SMOOTH",
"229 522 OFFCURVE",
"153 472 OFFCURVE",
"132 389 CURVE",
"149 383 LINE",
"149 510 LINE",
"64 510 LINE",
"64 -204 LINE"
);
},
{
closed = 1;
nodes = (
"214 63 OFFCURVE",
"148 141 OFFCURVE",
"148 255 CURVE SMOOTH",
"148 370 OFFCURVE",
"209 447 OFFCURVE",
"298 447 CURVE SMOOTH",
"385 447 OFFCURVE",
"447 368 OFFCURVE",
"447 255 CURVE SMOOTH",
"447 143 OFFCURVE",
"385 63 OFFCURVE",
"298 63 CURVE SMOOTH"
);
}
);
visible = 1;
width = 573;
}
);
leftKerningGroup = n;
leftMetricsKey = n;
rightKerningGroup = b;
rightMetricsKey = o;
unicode = 0070;
},
{
color = 4;
glyphname = thorn;
lastChange = "2021-11-08 14:02:47 +0000";
layers = (
{
anchors = (
{
name = bottom;
position = "{287, 0}";
},
{
name = top;
position = "{287, 510}";
}
);
layerId = "501D5CC1-F731-4DBC-B0A3-CA82AE369B50";
paths = (
{
closed = 1;
nodes = (
"149 -204 LINE",
"149 130 LINE",
"135 111 LINE",
"162 35 OFFCURVE",
"232 -12 OFFCURVE",
"312 -12 CURVE SMOOTH",
"441 -12 OFFCURVE",
"537 102 OFFCURVE",
"537 256 CURVE SMOOTH",
"537 410 OFFCURVE",
"442 522 OFFCURVE",
"311 522 CURVE SMOOTH",
"229 522 OFFCURVE",
"153 472 OFFCURVE",
"132 389 CURVE",
"149 383 LINE",
"149 706 LINE",
"64 706 LINE",
"64 -204 LINE"
);
},
{
closed = 1;
nodes = (
"215 59 OFFCURVE",
"148 139 OFFCURVE",
"148 255 CURVE SMOOTH",
"148 373 OFFCURVE",
"210 451 OFFCURVE",
"301 451 CURVE SMOOTH",
"389 451 OFFCURVE",
"452 371 OFFCURVE",
"452 255 CURVE SMOOTH",
"452 141 OFFCURVE",
"389 59 OFFCURVE",
"301 59 CURVE SMOOTH"
);
}
);
width = 573;
}
);
leftKerningGroup = l;
leftMetricsKey = n;
rightKerningGroup = b;
rightMetricsKey = o;
unicode = 00FE;
},
{
color = 4;
glyphname = r;
lastChange = "2021-11-08 14:02:47 +0000";
layers = (
{
anchors = (
{
name = bottom;
position = "{107, 0}";
},
{
name = top;
position = "{191, 510}";
}
);
guideLines = (
{
angle = 80.9097;
position = "{362, 469}";
}
);
layerId = "501D5CC1-F731-4DBC-B0A3-CA82AE369B50";
paths = (
{
closed = 1;
nodes = (
"149 0 LINE",
"149 229 LINE SMOOTH",
"149 360 OFFCURVE",
"208 445 OFFCURVE",
"289 445 CURVE SMOOTH",
"312 445 OFFCURVE",
"331 441 OFFCURVE",
"356 429 CURVE",
"368 506 LINE",
"343 516 OFFCURVE",
"320 520 OFFCURVE",
"291 520 CURVE SMOOTH",
"202 520 OFFCURVE",
"155 451 OFFCURVE",
"132 376 CURVE",
"146 370 LINE",
"146 510 LINE",
"64 510 LINE",
"64 0 LINE"
);
}
);
width = 381;
}
);
leftKerningGroup = n;
leftMetricsKey = n;
rightKerningGroup = r;
unicode = 0072;
},
{
color = 4;
glyphname = s;
lastChange = "2021-11-08 14:02:47 +0000";
layers = (
{
anchors = (
{
name = bottom;
position = "{248, 0}";
},
{
name = top;
position = "{248, 510}";
}
);
guideLines = (
{
angle = 198.2171;
position = "{544, 351}";
},
{
angle = 198.2171;
position = "{399, 396}";
},
{
angle = 199.4766;
position = "{86, 131}";
}
);
layerId = "501D5CC1-F731-4DBC-B0A3-CA82AE369B50";
paths = (
{
closed = 1;
nodes = (
"380 -12 OFFCURVE",
"466 48 OFFCURVE",
"466 152 CURVE SMOOTH",
"466 255 OFFCURVE",
"378 280 OFFCURVE",
"292 299 CURVE SMOOTH",
"191 321 OFFCURVE",
"141 335 OFFCURVE",
"141 381 CURVE SMOOTH",
"141 419 OFFCURVE",
"182 447 OFFCURVE",
"251 447 CURVE SMOOTH",
"312 447 OFFCURVE",
"352 420 OFFCURVE",
"361 383 CURVE",
"441 408 LINE",
"421 480 OFFCURVE",
"341 522 OFFCURVE",
"245 522 CURVE SMOOTH",
"143 522 OFFCURVE",
"51 470 OFFCURVE",
"51 376 CURVE SMOOTH",
"51 286 OFFCURVE",
"139 250 OFFCURVE",
"224 233 CURVE SMOOTH",
"326 213 OFFCURVE",
"376 201 OFFCURVE",
"376 145 CURVE SMOOTH",
"376 93 OFFCURVE",
"328 63 OFFCURVE",
"252 63 CURVE SMOOTH",
"183 63 OFFCURVE",
"133 91 OFFCURVE",
"115 165 CURVE",
"33 136 LINE",
"61 37 OFFCURVE",
"145 -12 OFFCURVE",
"255 -12 CURVE SMOOTH"
);
}
);
width = 496;
}
);
leftKerningGroup = s;
rightKerningGroup = s;
unicode = 0073;
},
{
color = 4;
glyphname = germandbls;
lastChange = "2021-11-08 14:02:47 +0000";
layers = (
{
anchors = (
{
name = bottom;
position = "{257, 0}";
},
{
name = top;
position = "{257, 510}";
}
);
layerId = "501D5CC1-F731-4DBC-B0A3-CA82AE369B50";
paths = (
{
closed = 1;
nodes = (
"149 0 LINE",
"149 526 LINE SMOOTH",
"149 578 OFFCURVE",
"169 637 OFFCURVE",
"266 637 CURVE SMOOTH",
"339 637 OFFCURVE",
"378 608 OFFCURVE",
"378 539 CURVE SMOOTH",
"378 466 OFFCURVE",
"334 430 OFFCURVE",
"227 427 CURVE",
"227 359 LINE",
"354 356 OFFCURVE",
"415 321 OFFCURVE",
"415 204 CURVE SMOOTH",
"415 113 OFFCURVE",
"378 63 OFFCURVE",
"304 63 CURVE SMOOTH",
"282 63 OFFCURVE",
"251 67 OFFCURVE",
"220 79 CURVE",
"199 3 LINE",
"245 -10 OFFCURVE",
"288 -12 OFFCURVE",
"306 -12 CURVE SMOOTH",
"429 -12 OFFCURVE",
"505 82 OFFCURVE",
"505 205 CURVE SMOOTH",
"505 323 OFFCURVE",
"434 405 OFFCURVE",
"325 405 CURVE",
"325 392 LINE",
"422 409 OFFCURVE",
"468 468 OFFCURVE",
"468 546 CURVE SMOOTH",
"468 645 OFFCURVE",
"394 712 OFFCURVE",
"267 712 CURVE SMOOTH",
"138 712 OFFCURVE",
"64 646 OFFCURVE",
"64 527 CURVE SMOOTH",
"64 0 LINE"
);
}
);
width = 534;
}
);
leftKerningGroup = germandbls;
leftMetricsKey = n;
rightKerningGroup = germandbls;
unicode = 00DF;
},
{
color = 4;
glyphname = t;
lastChange = "2021-11-08 14:02:47 +0000";
layers = (
{
anchors = (
{
name = bottom;
position = "{249, 0}";
},
{
name = center;
position = "{204, 250}";
},
{
name = top;
position = "{204, 509}";
},
{
name = topright;
position = "{383, 509}";
}
);
layerId = "501D5CC1-F731-4DBC-B0A3-CA82AE369B50";
paths = (
{
closed = 1;
nodes = (
"306 -9 OFFCURVE",
"351 9 OFFCURVE",
"393 38 CURVE",
"364 105 LINE",
"329 79 OFFCURVE",
"298 66 OFFCURVE",
"266 66 CURVE SMOOTH",
"228 66 OFFCURVE",
"203 84 OFFCURVE",
"203 146 CURVE SMOOTH",
"203 654 LINE",
"118 654 LINE",
"118 143 LINE SMOOTH",
"118 43 OFFCURVE",
"167 -9 OFFCURVE",
"250 -9 CURVE SMOOTH"
);
},
{
closed = 1;
nodes = (
"371 435 LINE",
"371 510 LINE",
"23 510 LINE",
"23 435 LINE"
);
}
);
width = 405;
}
);
leftKerningGroup = t;
rightKerningGroup = t;
unicode = 0074;
},
{
color = 4;
glyphname = tbar;
lastChange = "2021-11-08 14:02:47 +0000";
layers = (
{
components = (
{
name = t;
}
);
layerId = "501D5CC1-F731-4DBC-B0A3-CA82AE369B50";
paths = (
{
closed = 1;
nodes = (
"327 235 LINE",
"327 303 LINE",
"63 303 LINE",
"63 235 LINE"
);
}
);
width = 405;
}
);
leftKerningGroup = t;
leftMetricsKey = t;
rightKerningGroup = t;
rightMetricsKey = t;
unicode = 0167;
},
{
color = 4;
glyphname = tcaron;
lastChange = "2021-11-08 14:02:47 +0000";
layers = (
{
components = (
{
name = t;
}
);
layerId = "501D5CC1-F731-4DBC-B0A3-CA82AE369B50";
paths = (
{
closed = 1;
nodes = (
"333 569 LINE",
"373 749 LINE",
"286 749 LINE",
"271 569 LINE"
);
}
);
width = 405;
}
);
leftKerningGroup = t;
leftMetricsKey = t;
note = "blue must check";
rightKerningGroup = tcaron;
rightMetricsKey = t;
unicode = 0165;
},
{
color = 4;
glyphname = v;
lastChange = "2021-11-08 14:02:47 +0000";
layers = (
{
anchors = (
{
name = bottom;
position = "{249, 0}";
},
{
name = top;
position = "{249, 510}";
}
);
layerId = "501D5CC1-F731-4DBC-B0A3-CA82AE369B50";
paths = (
{
closed = 1;
nodes = (
"294 -5 LINE",
"484 510 LINE",
"392 510 LINE",
"250 81 LINE",
"248 81 LINE",
"106 510 LINE",
"14 510 LINE",
"204 -5 LINE"
);
}
);
width = 498;
}
);
leftKerningGroup = v;
rightKerningGroup = v;
unicode = 0076;
},
{
color = 4;
glyphname = w;
lastChange = "2021-11-08 14:02:47 +0000";
layers = (
{
anchors = (
{
name = bottom;
position = "{376, 0}";
},
{
name = top;
position = "{376, 510}";
}
);
layerId = "501D5CC1-F731-4DBC-B0A3-CA82AE369B50";
paths = (
{
closed = 1;
nodes = (
"270 0 LINE",
"377 404 LINE",
"379 404 LINE",
"487 0 LINE",
"575 0 LINE",
"734 510 LINE",
"642 510 LINE",
"536 99 LINE",
"534 99 LINE",
"424 510 LINE",
"333 510 LINE",
"227 99 LINE",
"225 99 LINE",
"109 510 LINE",
"17 510 LINE",
"181 0 LINE"
);
}
);
width = 751;
}
);
leftKerningGroup = w;
rightKerningGroup = w;
unicode = 0077;
},
{
color = 4;
glyphname = x;
lastChange = "2021-11-08 14:02:47 +0000";
layers = (
{
anchors = (
{
name = bottom;
position = "{257, 0}";
},
{
name = top;
position = "{257, 509}";
}
);
layerId = "501D5CC1-F731-4DBC-B0A3-CA82AE369B50";
paths = (
{
closed = 1;
nodes = (
"509 0 LINE",
"300 289 LINE",
"269 315 LINE",
"136 510 LINE",
"27 510 LINE",
"215 255 LINE",
"249 222 LINE",
"399 0 LINE"
);
},
{
closed = 1;
nodes = (
"111 0 LINE",
"259 220 LINE",
"208 281 LINE",
"9 0 LINE"
);
},
{
closed = 1;
nodes = (
"480 510 LINE",
"378 510 LINE",
"247 325 LINE",
"298 265 LINE"
);
}
);
width = 518;
}
);
leftKerningGroup = x;
rightKerningGroup = x;
unicode = 0078;
},
{
color = 4;
glyphname = y;
lastChange = "2021-11-08 14:59:57 +0000";
layers = (
{
anchors = (
{
name = bottom;
position = "{237, 0}";
},
{
name = top;
position = "{244, 509}";
}
);
guideLines = (
{
angle = 251.1529;
position = "{322, 302}";
},
{
angle = 251.1529;
position = "{484, 510}";
}
);
layerId = "501D5CC1-F731-4DBC-B0A3-CA82AE369B50";
paths = (
{
closed = 1;
nodes = (
"217 -204 LINE",
"484 510 LINE",
"392 510 LINE",
"250 93 LINE",
"248 93 LINE",
"106 510 LINE",
"14 510 LINE",
"224 -41 LINE",
"224 26 LINE",
"132 -204 LINE {name = \"\";}"
);
},
{
closed = 1;
nodes = (
"205 -204 LINE {name = \"\";}",
"205 -129 LINE",
"67 -129 LINE",
"67 -204 LINE"
);
}
);
width = 498;
}
);
leftKerningGroup = y;
rightKerningGroup = y;
unicode = 0079;
},
{
color = 4;
glyphname = z;
lastChange = "2021-11-08 14:42:47 +0000";
layers = (
{
anchors = (
{
name = bottom;
position = "{241, 0}";
},
{
name = center;
position = "{241, 255}";
},
{
name = top;
position = "{241, 510}";
}
);
layerId = "501D5CC1-F731-4DBC-B0A3-CA82AE369B50";
paths = (
{
closed = 1;
nodes = (
"455 0 LINE",
"455 75 LINE",
"87 75 LINE",
"110 48 LINE",
"440 445 LINE",
"440 510 LINE",
"46 510 LINE",
"46 435 LINE",
"392 435 LINE",
"363 466 LINE",
"26 65 LINE",
"26 0 LINE"
);
}
);
width = 477;
}
);
leftKerningGroup = z;
rightKerningGroup = z;
unicode = 007A;
},
{
color = 4;
glyphname = zero;
lastChange = "2021-11-08 14:49:44 +0000";
layers = (
{
background = {
paths = (
{
closed = 1;
nodes = (
"433 -11 OFFCURVE",
"522 106 OFFCURVE",
"522 345 CURVE SMOOTH",
"522 583 OFFCURVE",
"433 700 OFFCURVE",
"286 700 CURVE SMOOTH",
"139 700 OFFCURVE",
"50 583 OFFCURVE",
"50 345 CURVE SMOOTH",
"50 106 OFFCURVE",
"139 -11 OFFCURVE",
"286 -11 CURVE SMOOTH"
);
},
{
closed = 1;
nodes = (
"193 64 OFFCURVE",
"140 155 OFFCURVE",
"140 345 CURVE SMOOTH",
"140 534 OFFCURVE",
"193 625 OFFCURVE",
"286 625 CURVE SMOOTH",
"379 625 OFFCURVE",
"432 534 OFFCURVE",
"432 345 CURVE SMOOTH",
"432 155 OFFCURVE",
"379 64 OFFCURVE",
"286 64 CURVE SMOOTH"
);
}
);
};
layerId = "501D5CC1-F731-4DBC-B0A3-CA82AE369B50";
paths = (
{
closed = 1;
nodes = (
"433 -11 OFFCURVE",
"522 109 OFFCURVE",
"522 353 CURVE SMOOTH",
"522 599 OFFCURVE",
"433 716 OFFCURVE",
"286 716 CURVE SMOOTH",
"139 716 OFFCURVE",
"50 599 OFFCURVE",
"50 353 CURVE SMOOTH",
"50 109 OFFCURVE",
"139 -11 OFFCURVE",
"286 -11 CURVE SMOOTH"
);
},
{
closed = 1;
nodes = (
"193 64 OFFCURVE",
"140 158 OFFCURVE",
"140 353 CURVE SMOOTH",
"140 550 OFFCURVE",
"193 641 OFFCURVE",
"286 641 CURVE SMOOTH",
"379 641 OFFCURVE",
"432 550 OFFCURVE",
"432 353 CURVE SMOOTH",
"432 158 OFFCURVE",
"379 64 OFFCURVE",
"286 64 CURVE SMOOTH"
);
}
);
width = 572;
}
);
leftKerningGroup = zero;
rightKerningGroup = zero;
unicode = 0030;
},
{
color = 4;
glyphname = one;
lastChange = "2021-11-08 14:49:31 +0000";
layers = (
{
background = {
paths = (
{
closed = 1;
nodes = (
"301 0 LINE",
"301 700 LINE",
"216 700 LINE",
"42 603 LINE",
"42 515 LINE",
"261 632 LINE",
"216 677 LINE",
"216 0 LINE"
);
}
);
};
layerId = "501D5CC1-F731-4DBC-B0A3-CA82AE369B50";
paths = (
{
closed = 1;
nodes = (
"301 0 LINE",
"301 716 LINE",
"216 716 LINE",
"42 619 LINE",
"42 531 LINE",
"261 648 LINE",
"216 693 LINE",
"216 0 LINE"
);
}
);
width = 423;
}
);
leftKerningGroup = one;
rightKerningGroup = one;
unicode = 0031;
},
{
color = 4;
glyphname = two;
lastChange = "2021-11-08 14:49:25 +0000";
layers = (
{
background = {
paths = (
{
closed = 1;
nodes = (
"506 0 LINE",
"506 75 LINE",
"129 75 LINE",
"140 65 LINE",
"161 236 OFFCURVE",
"513 269 OFFCURVE",
"513 505 CURVE SMOOTH",
"513 623 OFFCURVE",
"428 700 OFFCURVE",
"294 700 CURVE SMOOTH",
"183 700 OFFCURVE",
"94 652 OFFCURVE",
"61 533 CURVE",
"146 501 LINE",
"166 599 OFFCURVE",
"226 625 OFFCURVE",
"290 625 CURVE SMOOTH",
"375 625 OFFCURVE",
"423 578 OFFCURVE",
"423 506 CURVE SMOOTH",
"423 291 OFFCURVE",
"46 301 OFFCURVE",
"46 0 CURVE"
);
}
);
};
layerId = "501D5CC1-F731-4DBC-B0A3-CA82AE369B50";
paths = (
{
closed = 1;
nodes = (
"506 0 LINE",
"506 75 LINE",
"129 75 LINE",
"140 65 LINE",
"161 242 OFFCURVE",
"513 285 OFFCURVE",
"513 521 CURVE SMOOTH",
"513 639 OFFCURVE",
"428 716 OFFCURVE",
"294 716 CURVE SMOOTH",
"183 716 OFFCURVE",
"94 668 OFFCURVE",
"61 549 CURVE",
"146 517 LINE",
"166 615 OFFCURVE",
"226 641 OFFCURVE",
"290 641 CURVE SMOOTH",
"375 641 OFFCURVE",
"423 594 OFFCURVE",
"423 522 CURVE SMOOTH",
"423 307 OFFCURVE",
"46 311 OFFCURVE",
"46 0 CURVE"
);
}
);
width = 565;
}
);
leftKerningGroup = two;
rightKerningGroup = two;
unicode = 0032;
},
{
color = 4;
glyphname = three;
lastChange = "2021-11-08 14:49:17 +0000";
layers = (
{
background = {
paths = (
{
closed = 1;
nodes = (
"414 -11 OFFCURVE",
"508 73 OFFCURVE",
"508 198 CURVE SMOOTH",
"508 282 OFFCURVE",
"470 341 OFFCURVE",
"380 373 CURVE",
"443 400 OFFCURVE",
"476 467 OFFCURVE",
"476 520 CURVE SMOOTH",
"476 626 OFFCURVE",
"397 700 OFFCURVE",
"275 700 CURVE SMOOTH",
"164 700 OFFCURVE",
"75 652 OFFCURVE",
"42 533 CURVE",
"127 501 LINE",
"147 599 OFFCURVE",
"207 625 OFFCURVE",
"271 625 CURVE SMOOTH",
"342 625 OFFCURVE",
"387 579 OFFCURVE",
"387 521 CURVE SMOOTH",
"387 463 OFFCURVE",
"348 402 OFFCURVE",
"255 402 CURVE SMOOTH",
"183 402 LINE",
"183 332 LINE",
"266 332 LINE SMOOTH",
"332 332 OFFCURVE",
"418 303 OFFCURVE",
"418 194 CURVE SMOOTH",
"418 119 OFFCURVE",
"361 64 OFFCURVE",
"267 64 CURVE SMOOTH",
"198 64 OFFCURVE",
"138 93 OFFCURVE",
"116 183 CURVE",
"30 152 LINE",
"64 38 OFFCURVE",
"152 -11 OFFCURVE",
"267 -11 CURVE SMOOTH"
);
}
);
};
layerId = "501D5CC1-F731-4DBC-B0A3-CA82AE369B50";
paths = (
{
closed = 1;
nodes = (
"414 -11 OFFCURVE",
"508 73 OFFCURVE",
"508 198 CURVE SMOOTH",
"508 290 OFFCURVE",
"470 349 OFFCURVE",
"380 381 CURVE",
"443 409 OFFCURVE",
"476 483 OFFCURVE",
"476 536 CURVE SMOOTH",
"476 642 OFFCURVE",
"397 716 OFFCURVE",
"275 716 CURVE SMOOTH",
"164 716 OFFCURVE",
"75 668 OFFCURVE",
"42 549 CURVE",
"127 517 LINE",
"147 615 OFFCURVE",
"207 641 OFFCURVE",
"271 641 CURVE SMOOTH",
"342 641 OFFCURVE",
"387 595 OFFCURVE",
"387 537 CURVE SMOOTH",
"387 479 OFFCURVE",
"348 410 OFFCURVE",
"255 410 CURVE SMOOTH",
"183 410 LINE",
"183 340 LINE",
"266 340 LINE SMOOTH",
"332 340 OFFCURVE",
"418 311 OFFCURVE",
"418 194 CURVE SMOOTH",
"418 119 OFFCURVE",
"361 64 OFFCURVE",
"267 64 CURVE SMOOTH",
"198 64 OFFCURVE",
"138 93 OFFCURVE",
"116 183 CURVE",
"30 152 LINE",
"64 38 OFFCURVE",
"152 -11 OFFCURVE",
"267 -11 CURVE SMOOTH"
);
}
);
width = 554;
}
);
leftKerningGroup = three;
rightKerningGroup = three;
unicode = 0033;
},
{
color = 4;
glyphname = four;
lastChange = "2021-11-08 14:49:00 +0000";
layers = (
{
background = {
paths = (
{
closed = 1;
nodes = (
"420 0 LINE",
"420 700 LINE",
"352 700 LINE",
"28 248 LINE",
"28 166 LINE",
"515 166 LINE",
"515 241 LINE",
"86 241 LINE",
"93 230 LINE",
"343 583 LINE",
"340 585 LINE",
"340 0 LINE"
);
}
);
};
layerId = "501D5CC1-F731-4DBC-B0A3-CA82AE369B50";
paths = (
{
closed = 1;
nodes = (
"420 0 LINE",
"420 715 LINE",
"352 715 LINE",
"28 248 LINE",
"28 166 LINE",
"515 166 LINE",
"515 241 LINE",
"86 241 LINE",
"93 230 LINE",
"343 598 LINE",
"340 600 LINE",
"340 0 LINE"
);
}
);
width = 556;
}
);
leftKerningGroup = four;
rightKerningGroup = four;
unicode = 0034;
},
{
color = 4;
glyphname = five;
lastChange = "2021-11-08 14:47:13 +0000";
layers = (
{
background = {
paths = (
{
closed = 1;
nodes = (
"409 -11 OFFCURVE",
"511 85 OFFCURVE",
"511 226 CURVE SMOOTH",
"511 379 OFFCURVE",
"410 467 OFFCURVE",
"283 467 CURVE SMOOTH",
"242 467 OFFCURVE",
"180 456 OFFCURVE",
"138 417 CURVE",
"151 411 LINE",
"197 659 LINE",
"159 615 LINE",
"475 615 LINE",
"475 690 LINE",
"123 690 LINE",
"66 360 LINE",
"137 347 LINE",
"166 377 OFFCURVE",
"217 392 OFFCURVE",
"262 392 CURVE SMOOTH",
"339 392 OFFCURVE",
"421 351 OFFCURVE",
"421 233 CURVE SMOOTH",
"421 128 OFFCURVE",
"358 64 OFFCURVE",
"272 64 CURVE SMOOTH",
"204 64 OFFCURVE",
"145 93 OFFCURVE",
"123 183 CURVE",
"37 152 LINE",
"71 38 OFFCURVE",
"158 -11 OFFCURVE",
"272 -11 CURVE SMOOTH"
);
}
);
};
layerId = "501D5CC1-F731-4DBC-B0A3-CA82AE369B50";
paths = (
{
closed = 1;
nodes = (
"409 -11 OFFCURVE",
"511 85 OFFCURVE",
"511 226 CURVE SMOOTH",
"511 379 OFFCURVE",
"410 467 OFFCURVE",
"283 467 CURVE SMOOTH",
"242 467 OFFCURVE",
"180 456 OFFCURVE",
"138 417 CURVE",
"151 411 LINE",
"200 675 LINE",
"162 631 LINE",
"475 631 LINE",
"475 706 LINE",
"126 706 LINE",
"66 360 LINE",
"137 347 LINE",
"166 377 OFFCURVE",
"217 392 OFFCURVE",
"262 392 CURVE SMOOTH",
"339 392 OFFCURVE",
"421 351 OFFCURVE",
"421 233 CURVE SMOOTH",
"421 128 OFFCURVE",
"358 64 OFFCURVE",
"272 64 CURVE SMOOTH",
"204 64 OFFCURVE",
"145 93 OFFCURVE",
"123 183 CURVE",
"37 152 LINE",
"71 38 OFFCURVE",
"158 -11 OFFCURVE",
"272 -11 CURVE SMOOTH"
);
}
);
width = 558;
}
);
leftKerningGroup = five;
rightKerningGroup = five;
unicode = 0035;
},
{
color = 4;
glyphname = six;
lastChange = "2021-11-08 14:47:31 +0000";
layers = (
{
background = {
paths = (
{
closed = 1;
nodes = (
"438 -11 OFFCURVE",
"531 87 OFFCURVE",
"531 225 CURVE SMOOTH",
"531 379 OFFCURVE",
"428 457 OFFCURVE",
"311 457 CURVE SMOOTH",
"227 457 OFFCURVE",
"155 420 OFFCURVE",
"114 315 CURVE",
"134 326 LINE",
"139 561 OFFCURVE",
"203 625 OFFCURVE",
"305 625 CURVE SMOOTH",
"359 625 OFFCURVE",
"414 601 OFFCURVE",
"431 510 CURVE",
"516 542 LINE",
"486 655 OFFCURVE",
"403 700 OFFCURVE",
"301 700 CURVE SMOOTH",
"109 700 OFFCURVE",
"51 551 OFFCURVE",
"50 304 CURVE SMOOTH",
"49 112 OFFCURVE",
"131 -11 OFFCURVE",
"300 -11 CURVE SMOOTH"
);
},
{
closed = 1;
nodes = (
"212 64 OFFCURVE",
"151 124 OFFCURVE",
"151 218 CURVE SMOOTH",
"151 326 OFFCURVE",
"211 382 OFFCURVE",
"297 382 CURVE SMOOTH",
"374 382 OFFCURVE",
"441 328 OFFCURVE",
"441 218 CURVE SMOOTH",
"441 127 OFFCURVE",
"378 64 OFFCURVE",
"297 64 CURVE SMOOTH"
);
}
);
};
layerId = "501D5CC1-F731-4DBC-B0A3-CA82AE369B50";
paths = (
{
closed = 1;
nodes = (
"438 -11 OFFCURVE",
"531 87 OFFCURVE",
"531 225 CURVE SMOOTH",
"531 379 OFFCURVE",
"428 457 OFFCURVE",
"311 457 CURVE SMOOTH",
"227 457 OFFCURVE",
"155 420 OFFCURVE",
"114 315 CURVE",
"134 326 LINE",
"139 577 OFFCURVE",
"203 641 OFFCURVE",
"305 641 CURVE SMOOTH",
"359 641 OFFCURVE",
"414 617 OFFCURVE",
"431 526 CURVE",
"516 558 LINE",
"486 671 OFFCURVE",
"403 716 OFFCURVE",
"301 716 CURVE SMOOTH",
"109 716 OFFCURVE",
"51 567 OFFCURVE",
"50 304 CURVE SMOOTH",
"49 112 OFFCURVE",
"131 -11 OFFCURVE",
"300 -11 CURVE SMOOTH"
);
},
{
closed = 1;
nodes = (
"212 64 OFFCURVE",
"151 124 OFFCURVE",
"151 218 CURVE SMOOTH",
"151 326 OFFCURVE",
"211 382 OFFCURVE",
"297 382 CURVE SMOOTH",
"374 382 OFFCURVE",
"441 328 OFFCURVE",
"441 218 CURVE SMOOTH",
"441 127 OFFCURVE",
"378 64 OFFCURVE",
"297 64 CURVE SMOOTH"
);
}
);
width = 569;
}
);
leftKerningGroup = zero;
leftMetricsKey = zero;
rightKerningGroup = six;
unicode = 0036;
},
{
color = 4;
glyphname = seven;
lastChange = "2021-11-08 14:47:44 +0000";
layers = (
{
background = {
paths = (
{
closed = 1;
nodes = (
"237 0 LINE",
"251 228 OFFCURVE",
"365 478 OFFCURVE",
"509 617 CURVE",
"509 690 LINE",
"50 690 LINE",
"50 610 LINE",
"467 610 LINE",
"456 646 LINE",
"274 460 OFFCURVE",
"159 257 OFFCURVE",
"142 0 CURVE"
);
}
);
};
layerId = "501D5CC1-F731-4DBC-B0A3-CA82AE369B50";
paths = (
{
closed = 1;
nodes = (
"237 0 LINE",
"251 234 OFFCURVE",
"365 490 OFFCURVE",
"509 633 CURVE",
"509 706 LINE",
"50 706 LINE",
"50 626 LINE",
"467 626 LINE",
"456 662 LINE",
"274 471 OFFCURVE",
"159 263 OFFCURVE",
"142 0 CURVE"
);
}
);
width = 549;
}
);
leftKerningGroup = seven;
rightKerningGroup = seven;
unicode = 0037;
},
{
color = 4;
glyphname = eight;
lastChange = "2021-11-08 14:48:20 +0000";
layers = (
{
background = {
paths = (
{
closed = 1;
nodes = (
"427 -11 OFFCURVE",
"520 80 OFFCURVE",
"520 193 CURVE SMOOTH",
"520 283 OFFCURVE",
"485 339 OFFCURVE",
"399 379 CURVE",
"443 401 OFFCURVE",
"490 456 OFFCURVE",
"490 519 CURVE SMOOTH",
"490 627 OFFCURVE",
"409 700 OFFCURVE",
"284 700 CURVE SMOOTH",
"158 700 OFFCURVE",
"72 627 OFFCURVE",
"72 519 CURVE SMOOTH",
"72 452 OFFCURVE",
"118 401 OFFCURVE",
"168 379 CURVE",
"79 341 OFFCURVE",
"44 280 OFFCURVE",
"44 193 CURVE SMOOTH",
"44 80 OFFCURVE",
"138 -11 OFFCURVE",
"282 -11 CURVE SMOOTH"
);
},
{
closed = 1;
nodes = (
"200 64 OFFCURVE",
"134 125 OFFCURVE",
"134 198 CURVE SMOOTH",
"134 275 OFFCURVE",
"191 332 OFFCURVE",
"280 332 CURVE SMOOTH",
"375 332 OFFCURVE",
"430 277 OFFCURVE",
"430 198 CURVE SMOOTH",
"430 123 OFFCURVE",
"366 64 OFFCURVE",
"282 64 CURVE SMOOTH"
);
},
{
closed = 1;
nodes = (
"208 407 OFFCURVE",
"160 450 OFFCURVE",
"160 516 CURVE SMOOTH",
"160 580 OFFCURVE",
"211 625 OFFCURVE",
"284 625 CURVE SMOOTH",
"355 625 OFFCURVE",
"403 580 OFFCURVE",
"403 516 CURVE SMOOTH",
"403 453 OFFCURVE",
"357 407 OFFCURVE",
"284 407 CURVE SMOOTH"
);
}
);
};
layerId = "501D5CC1-F731-4DBC-B0A3-CA82AE369B50";
paths = (
{
closed = 1;
nodes = (
"427 -11 OFFCURVE",
"520 82 OFFCURVE",
"520 198 CURVE SMOOTH",
"520 290 OFFCURVE",
"485 347 OFFCURVE",
"399 388 CURVE",
"443 410 OFFCURVE",
"490 467 OFFCURVE",
"490 531 CURVE SMOOTH",
"490 641 OFFCURVE",
"409 716 OFFCURVE",
"284 716 CURVE SMOOTH",
"158 716 OFFCURVE",
"72 641 OFFCURVE",
"72 531 CURVE SMOOTH",
"72 462 OFFCURVE",
"118 410 OFFCURVE",
"168 388 CURVE",
"79 349 OFFCURVE",
"44 287 OFFCURVE",
"44 198 CURVE SMOOTH",
"44 82 OFFCURVE",
"138 -11 OFFCURVE",
"282 -11 CURVE SMOOTH"
);
},
{
closed = 1;
nodes = (
"200 64 OFFCURVE",
"134 127 OFFCURVE",
"134 203 CURVE SMOOTH",
"134 281 OFFCURVE",
"191 340 OFFCURVE",
"280 340 CURVE SMOOTH",
"375 340 OFFCURVE",
"430 283 OFFCURVE",
"430 203 CURVE SMOOTH",
"430 125 OFFCURVE",
"366 64 OFFCURVE",
"282 64 CURVE SMOOTH"
);
},
{
closed = 1;
nodes = (
"208 415 OFFCURVE",
"160 460 OFFCURVE",
"160 528 CURVE SMOOTH",
"160 594 OFFCURVE",
"211 641 OFFCURVE",
"284 641 CURVE SMOOTH",
"355 641 OFFCURVE",
"403 594 OFFCURVE",
"403 528 CURVE SMOOTH",
"403 463 OFFCURVE",
"357 415 OFFCURVE",
"284 415 CURVE SMOOTH"
);
}
);
width = 564;
}
);
leftKerningGroup = eight;
rightKerningGroup = eight;
unicode = 0038;
},
{
color = 4;
glyphname = nine;
lastChange = "2021-11-08 14:48:30 +0000";
layers = (
{
background = {
paths = (
{
closed = 1;
nodes = (
"455 -11 OFFCURVE",
"512 138 OFFCURVE",
"513 385 CURVE SMOOTH",
"514 577 OFFCURVE",
"434 700 OFFCURVE",
"268 700 CURVE SMOOTH",
"131 700 OFFCURVE",
"38 602 OFFCURVE",
"38 464 CURVE SMOOTH",
"38 310 OFFCURVE",
"141 232 OFFCURVE",
"257 232 CURVE SMOOTH",
"339 232 OFFCURVE",
"408 269 OFFCURVE",
"449 378 CURVE",
"429 367 LINE",
"424 147 OFFCURVE",
"372 64 OFFCURVE",
"264 64 CURVE SMOOTH",
"208 64 OFFCURVE",
"155 88 OFFCURVE",
"138 179 CURVE",
"53 147 LINE",
"83 34 OFFCURVE",
"166 -11 OFFCURVE",
"268 -11 CURVE SMOOTH"
);
},
{
closed = 1;
nodes = (
"195 307 OFFCURVE",
"128 361 OFFCURVE",
"128 471 CURVE SMOOTH",
"128 562 OFFCURVE",
"191 625 OFFCURVE",
"271 625 CURVE SMOOTH",
"353 625 OFFCURVE",
"412 565 OFFCURVE",
"412 471 CURVE SMOOTH",
"412 367 OFFCURVE",
"354 307 OFFCURVE",
"271 307 CURVE SMOOTH"
);
}
);
};
layerId = "501D5CC1-F731-4DBC-B0A3-CA82AE369B50";
paths = (
{
closed = 1;
nodes = (
"455 -11 OFFCURVE",
"512 144 OFFCURVE",
"513 401 CURVE SMOOTH",
"514 593 OFFCURVE",
"434 716 OFFCURVE",
"268 716 CURVE SMOOTH",
"131 716 OFFCURVE",
"38 618 OFFCURVE",
"38 480 CURVE SMOOTH",
"38 326 OFFCURVE",
"141 248 OFFCURVE",
"257 248 CURVE SMOOTH",
"339 248 OFFCURVE",
"408 285 OFFCURVE",
"449 394 CURVE",
"429 383 LINE",
"424 151 OFFCURVE",
"372 64 OFFCURVE",
"264 64 CURVE SMOOTH",
"208 64 OFFCURVE",
"155 88 OFFCURVE",
"138 179 CURVE",
"53 147 LINE",
"83 34 OFFCURVE",
"166 -11 OFFCURVE",
"268 -11 CURVE SMOOTH"
);
},
{
closed = 1;
nodes = (
"195 323 OFFCURVE",
"128 377 OFFCURVE",
"128 487 CURVE SMOOTH",
"128 578 OFFCURVE",
"191 641 OFFCURVE",
"271 641 CURVE SMOOTH",
"353 641 OFFCURVE",
"412 581 OFFCURVE",
"412 487 CURVE SMOOTH",
"412 383 OFFCURVE",
"354 323 OFFCURVE",
"271 323 CURVE SMOOTH"
);
}
);
width = 563;
}
);
leftKerningGroup = nine;
rightKerningGroup = zero;
rightMetricsKey = zero;
unicode = 0039;
},
{
color = 4;
glyphname = period;
lastChange = "2021-11-08 14:02:47 +0000";
layers = (
{
layerId = "501D5CC1-F731-4DBC-B0A3-CA82AE369B50";
paths = (
{
closed = 1;
nodes = (
"195 0 LINE",
"195 112 LINE",
"83 112 LINE",
"83 0 LINE"
);
}
);
width = 278;
}
);
leftKerningGroup = period;
rightKerningGroup = period;
unicode = 002E;
},
{
color = 4;
glyphname = comma;
lastChange = "2021-11-08 14:02:47 +0000";
layers = (
{
guideLines = (
{
angle = 109.4766;
position = "{96, -119}";
}
);
layerId = "501D5CC1-F731-4DBC-B0A3-CA82AE369B50";
paths = (
{
closed = 1;
nodes = (
"180 -101 OFFCURVE",
"195 -51 OFFCURVE",
"195 32 CURVE SMOOTH",
"195 112 LINE",
"83 112 LINE",
"83 0 LINE",
"175 0 LINE",
"141 15 LINE",
"145 -35 OFFCURVE",
"133 -68 OFFCURVE",
"84 -98 CURVE",
"116 -145 LINE"
);
}
);
width = 278;
}
);
leftKerningGroup = comma;
rightKerningGroup = comma;
unicode = 002C;
},
{
color = 4;
glyphname = colon;
lastChange = "2021-11-08 14:02:47 +0000";
layers = (
{
layerId = "501D5CC1-F731-4DBC-B0A3-CA82AE369B50";
paths = (
{
closed = 1;
nodes = (
"195 0 LINE",
"195 112 LINE",
"83 112 LINE",
"83 0 LINE"
);
},
{
closed = 1;
nodes = (
"195 406 LINE",
"195 518 LINE",
"83 518 LINE",
"83 406 LINE"
);
}
);
width = 278;
}
);
leftKerningGroup = colon;
leftMetricsKey = period;
rightKerningGroup = colon;
rightMetricsKey = period;
unicode = 003A;
},
{
color = 4;
glyphname = semicolon;
lastChange = "2021-11-08 14:02:47 +0000";
layers = (
{
layerId = "501D5CC1-F731-4DBC-B0A3-CA82AE369B50";
paths = (
{
closed = 1;
nodes = (
"180 -101 OFFCURVE",
"195 -51 OFFCURVE",
"195 32 CURVE SMOOTH",
"195 112 LINE",
"83 112 LINE",
"83 0 LINE",
"175 0 LINE",
"141 15 LINE",
"145 -35 OFFCURVE",
"133 -68 OFFCURVE",
"84 -98 CURVE",
"116 -145 LINE"
);
},
{
closed = 1;
nodes = (
"195 406 LINE",
"195 518 LINE",
"83 518 LINE",
"83 406 LINE"
);
}
);
width = 278;
}
);
leftKerningGroup = colon;
leftMetricsKey = period;
rightKerningGroup = colon;
rightMetricsKey = period;
unicode = 003B;
},
{
color = 4;
glyphname = ellipsis;
lastChange = "2021-11-08 14:02:47 +0000";
layers = (
{
layerId = "501D5CC1-F731-4DBC-B0A3-CA82AE369B50";
paths = (
{
closed = 1;
nodes = (
"861 0 LINE",
"861 112 LINE",
"749 112 LINE",
"749 0 LINE"
);
},
{
closed = 1;
nodes = (
"195 0 LINE",
"195 112 LINE",
"83 112 LINE",
"83 0 LINE"
);
},
{
closed = 1;
nodes = (
"528 0 LINE",
"528 112 LINE",
"416 112 LINE",
"416 0 LINE"
);
}
);
width = 944;
}
);
leftKerningGroup = period;
leftMetricsKey = period;
rightKerningGroup = period;
rightMetricsKey = period;
unicode = 2026;
},
{
color = 4;
glyphname = exclam;
lastChange = "2021-11-08 14:02:47 +0000";
layers = (
{
layerId = "501D5CC1-F731-4DBC-B0A3-CA82AE369B50";
paths = (
{
closed = 1;
nodes = (
"153 184 LINE",
"177 493 LINE",
"177 706 LINE",
"81 706 LINE",
"81 493 LINE",
"107 184 LINE"
);
},
{
closed = 1;
nodes = (
"186 0 LINE",
"186 112 LINE",
"74 112 LINE",
"74 0 LINE"
);
}
);
width = 260;
}
);
leftKerningGroup = exclam;
rightKerningGroup = exclam;
unicode = 0021;
},
{
color = 4;
glyphname = question;
lastChange = "2021-11-08 14:02:47 +0000";
layers = (
{
layerId = "501D5CC1-F731-4DBC-B0A3-CA82AE369B50";
paths = (
{
closed = 1;
nodes = (
"316 172 LINE",
"312 363 OFFCURVE",
"488 355 OFFCURVE",
"488 520 CURVE SMOOTH",
"488 645 OFFCURVE",
"408 722 OFFCURVE",
"281 722 CURVE SMOOTH",
"178 722 OFFCURVE",
"88 674 OFFCURVE",
"55 555 CURVE",
"140 523 LINE",
"160 621 OFFCURVE",
"221 647 OFFCURVE",
"277 647 CURVE SMOOTH",
"354 647 OFFCURVE",
"398 600 OFFCURVE",
"398 528 CURVE SMOOTH",
"398 389 OFFCURVE",
"228 382 OFFCURVE",
"228 172 CURVE"
);
},
{
closed = 1;
nodes = (
"328 0 LINE",
"328 112 LINE",
"216 112 LINE",
"216 0 LINE"
);
}
);
width = 554;
}
);
leftKerningGroup = question;
rightKerningGroup = question;
unicode = 003F;
},
{
color = 4;
glyphname = periodcentered;
lastChange = "2021-11-08 14:02:47 +0000";
layers = (
{
layerId = "501D5CC1-F731-4DBC-B0A3-CA82AE369B50";
paths = (
{
closed = 1;
nodes = (
"176 309 LINE",
"176 411 LINE",
"80 411 LINE",
"80 309 LINE"
);
}
);
width = 256;
}
);
leftKerningGroup = periodcentered;
rightKerningGroup = periodcentered;
unicode = 00B7;
},
{
color = 4;
glyphname = bullet;
lastChange = "2021-11-08 14:02:47 +0000";
layers = (
{
layerId = "501D5CC1-F731-4DBC-B0A3-CA82AE369B50";
paths = (
{
closed = 1;
nodes = (
"380 210 LINE",
"380 510 LINE",
"80 510 LINE",
"80 210 LINE"
);
}
);
width = 460;
}
);
leftKerningGroup = periodcentered;
rightKerningGroup = periodcentered;
unicode = 2022;
},
{
color = 4;
glyphname = asterisk;
lastChange = "2021-11-08 14:02:47 +0000";
layers = (
{
layerId = "501D5CC1-F731-4DBC-B0A3-CA82AE369B50";
paths = (
{
closed = 1;
nodes = (
"189 523 LINE",
"172 523 LINE",
"256 409 LINE",
"302 440 LINE",
"215 550 LINE",
"205 537 LINE",
"337 576 LINE",
"319 626 LINE",
"189 583 LINE",
"203 570 LINE",
"207 706 LINE",
"153 706 LINE",
"157 573 LINE",
"168 583 LINE",
"43 626 LINE",
"24 576 LINE",
"153 537 LINE",
"146 550 LINE",
"59 440 LINE",
"105 409 LINE"
);
}
);
width = 361;
}
);
leftKerningGroup = asterisk;
rightKerningGroup = asterisk;
unicode = 002A;
},
{
color = 4;
glyphname = numbersign;
lastChange = "2021-11-08 14:02:47 +0000";
layers = (
{
layerId = "501D5CC1-F731-4DBC-B0A3-CA82AE369B50";
paths = (
{
closed = 1;
nodes = (
"167 0 LINE",
"269 690 LINE",
"200 690 LINE",
"98 0 LINE"
);
},
{
closed = 1;
nodes = (
"493 206 LINE",
"493 274 LINE",
"34 274 LINE",
"34 206 LINE"
);
},
{
closed = 1;
nodes = (
"361 0 LINE",
"462 690 LINE",
"393 690 LINE",
"292 0 LINE"
);
},
{
closed = 1;
nodes = (
"521 425 LINE",
"521 493 LINE",
"60 493 LINE",
"60 425 LINE"
);
}
);
width = 555;
}
);
leftKerningGroup = numbersign;
rightKerningGroup = numbersign;
unicode = 0023;
},
{
color = 4;
glyphname = backslash;
lastChange = "2021-11-08 14:02:47 +0000";
layers = (
{
layerId = "501D5CC1-F731-4DBC-B0A3-CA82AE369B50";
paths = (
{
closed = 1;
nodes = (
"383 -17 LINE",
"107 722 LINE",
"25 722 LINE",
"301 -17 LINE"
);
}
);
width = 418;
}
);
leftKerningGroup = backslash;
rightKerningGroup = backslash;
unicode = 005C;
},
{
color = 4;
glyphname = hyphen;
lastChange = "2021-11-08 14:02:47 +0000";
layers = (
{
layerId = "501D5CC1-F731-4DBC-B0A3-CA82AE369B50";
paths = (
{
closed = 1;
nodes = (
"339 238 LINE",
"339 318 LINE",
"50 318 LINE",
"50 238 LINE"
);
}
);
width = 389;
}
);
leftKerningGroup = hyphen;
rightKerningGroup = hyphen;
unicode = 002D;
},
{
color = 4;
glyphname = endash;
lastChange = "2021-11-08 14:02:47 +0000";
layers = (
{
layerId = "501D5CC1-F731-4DBC-B0A3-CA82AE369B50";
paths = (
{
closed = 1;
nodes = (
"550 238 LINE",
"550 318 LINE",
"50 318 LINE",
"50 238 LINE"
);
}
);
width = 600;
}
);
leftKerningGroup = hyphen;
leftMetricsKey = hyphen;
rightKerningGroup = hyphen;
rightMetricsKey = hyphen;
unicode = 2013;
},
{
color = 4;
glyphname = emdash;
lastChange = "2021-11-08 14:02:47 +0000";
layers = (
{
layerId = "501D5CC1-F731-4DBC-B0A3-CA82AE369B50";
paths = (
{
closed = 1;
nodes = (
"830 238 LINE",
"830 318 LINE",
"90 318 LINE",
"90 238 LINE"
);
}
);
width = 920;
}
);
leftKerningGroup = hyphen;
rightKerningGroup = hyphen;
unicode = 2014;
},
{
color = 4;
glyphname = underscore;
lastChange = "2021-11-08 14:02:47 +0000";
layers = (
{
layerId = "501D5CC1-F731-4DBC-B0A3-CA82AE369B50";
paths = (
{
closed = 1;
nodes = (
"500 -125 LINE",
"500 -57 LINE",
"0 -57 LINE",
"0 -125 LINE"
);
}
);
width = 500;
}
);
leftKerningGroup = underscore;
rightKerningGroup = underscore;
unicode = 005F;
},
{
color = 4;
glyphname = hyphen.case;
lastChange = "2021-11-08 14:02:47 +0000";
layers = (
{
layerId = "501D5CC1-F731-4DBC-B0A3-CA82AE369B50";
paths = (
{
closed = 1;
nodes = (
"349 298 LINE",
"349 378 LINE",
"60 378 LINE",
"60 298 LINE"
);
}
);
width = 409;
}
);
leftKerningGroup = hyphen.case;
leftMetricsKey = "=hyphen+10";
rightKerningGroup = hyphen.case;
rightMetricsKey = "=hyphen+10";
},
{
color = 4;
glyphname = endash.case;
lastChange = "2021-11-08 14:02:47 +0000";
layers = (
{
layerId = "501D5CC1-F731-4DBC-B0A3-CA82AE369B50";
paths = (
{
closed = 1;
nodes = (
"560 298 LINE",
"560 378 LINE",
"60 378 LINE",
"60 298 LINE"
);
}
);
width = 620;
}
);
leftKerningGroup = hyphen.case;
leftMetricsKey = "=hyphen+10";
rightKerningGroup = hyphen.case;
rightMetricsKey = "=hyphen+10";
},
{
color = 4;
glyphname = emdash.case;
lastChange = "2021-11-08 14:02:47 +0000";
layers = (
{
layerId = "501D5CC1-F731-4DBC-B0A3-CA82AE369B50";
paths = (
{
closed = 1;
nodes = (
"800 298 LINE",
"800 378 LINE",
"60 378 LINE",
"60 298 LINE"
);
}
);
width = 860;
}
);
leftKerningGroup = hyphen.case;
leftMetricsKey = "=hyphen+10";
rightKerningGroup = hyphen.case;
rightMetricsKey = "=hyphen+10";
},
{
color = 4;
glyphname = parenleft;
lastChange = "2021-11-08 14:02:47 +0000";
layers = (
{
layerId = "501D5CC1-F731-4DBC-B0A3-CA82AE369B50";
paths = (
{
closed = 1;
nodes = (
"254 -161 LINE",
"181 -65 OFFCURVE",
"137 94 OFFCURVE",
"137 262 CURVE SMOOTH",
"137 430 OFFCURVE",
"181 586 OFFCURVE",
"254 685 CURVE",
"213 722 LINE",
"119 611 OFFCURVE",
"47 448 OFFCURVE",
"47 262 CURVE SMOOTH",
"47 76 OFFCURVE",
"126 -100 OFFCURVE",
"213 -198 CURVE"
);
}
);
width = 259;
}
);
leftKerningGroup = parenleft;
rightKerningGroup = parenleft;
unicode = 0028;
},
{
color = 4;
glyphname = braceleft;
lastChange = "2021-11-08 14:02:47 +0000";
layers = (
{
layerId = "501D5CC1-F731-4DBC-B0A3-CA82AE369B50";
paths = (
{
closed = 1;
nodes = (
"309 -138 LINE",
"227 -141 OFFCURVE",
"212 -121 OFFCURVE",
"212 -57 CURVE SMOOTH",
"212 131 LINE SMOOTH",
"212 203 OFFCURVE",
"186 245 OFFCURVE",
"124 266 CURVE",
"186 286 OFFCURVE",
"212 339 OFFCURVE",
"212 421 CURVE SMOOTH",
"212 581 LINE SMOOTH",
"212 645 OFFCURVE",
"227 664 OFFCURVE",
"309 662 CURVE",
"309 722 LINE",
"178 728 OFFCURVE",
"132 686 OFFCURVE",
"132 586 CURVE SMOOTH",
"132 431 LINE SMOOTH",
"132 349 OFFCURVE",
"99 301 OFFCURVE",
"48 301 CURVE",
"48 230 LINE",
"99 231 OFFCURVE",
"132 190 OFFCURVE",
"132 120 CURVE SMOOTH",
"132 -62 LINE SMOOTH",
"132 -162 OFFCURVE",
"178 -204 OFFCURVE",
"309 -198 CURVE"
);
}
);
width = 333;
}
);
leftKerningGroup = braceleft;
rightKerningGroup = braceleft;
unicode = 007B;
},
{
color = 4;
glyphname = bracketleft;
lastChange = "2021-11-08 14:02:47 +0000";
layers = (
{
layerId = "501D5CC1-F731-4DBC-B0A3-CA82AE369B50";
paths = (
{
closed = 1;
nodes = (
"259 -198 LINE",
"259 -130 LINE",
"152 -130 LINE",
"152 654 LINE",
"259 654 LINE",
"259 722 LINE",
"72 722 LINE",
"72 -198 LINE"
);
}
);
width = 269;
}
);
leftKerningGroup = bracketleft;
rightKerningGroup = bracketleft;
unicode = 005B;
},
{
color = 4;
glyphname = guilsinglleft;
lastChange = "2021-11-08 14:02:47 +0000";
layers = (
{
layerId = "501D5CC1-F731-4DBC-B0A3-CA82AE369B50";
paths = (
{
closed = 1;
nodes = (
"206 198 LINE",
"67 306 LINE",
"68 253 LINE",
"206 359 LINE",
"206 445 LINE",
"50 323 LINE",
"50 235 LINE",
"206 111 LINE"
);
}
);
width = 263;
}
);
leftKerningGroup = guilsinglleft;
rightKerningGroup = guilsinglleft;
unicode = 2039;
},
{
color = 4;
glyphname = quotedbl;
lastChange = "2021-11-08 14:02:47 +0000";
layers = (
{
layerId = "501D5CC1-F731-4DBC-B0A3-CA82AE369B50";
paths = (
{
closed = 1;
nodes = (
"328 456 LINE",
"328 706 LINE",
"260 706 LINE",
"260 456 LINE"
);
},
{
closed = 1;
nodes = (
"173 456 LINE",
"173 706 LINE",
"105 706 LINE",
"105 456 LINE"
);
}
);
width = 433;
}
);
leftKerningGroup = quotedbl;
rightKerningGroup = quotedbl;
unicode = 0022;
},
{
color = 4;
glyphname = quotesingle;
lastChange = "2021-11-08 14:02:47 +0000";
layers = (
{
layerId = "501D5CC1-F731-4DBC-B0A3-CA82AE369B50";
paths = (
{
closed = 1;
nodes = (
"173 456 LINE",
"173 706 LINE",
"105 706 LINE",
"105 456 LINE"
);
}
);
width = 278;
}
);
leftKerningGroup = quotedbl;
rightKerningGroup = quotedbl;
unicode = 0027;
},
{
color = 4;
glyphname = florin;
lastChange = "2021-11-08 14:02:47 +0000";
layers = (
{
layerId = "501D5CC1-F731-4DBC-B0A3-CA82AE369B50";
paths = (
{
closed = 1;
nodes = (
"195 -164 OFFCURVE",
"261 -113 OFFCURVE",
"272 3 CURVE SMOOTH",
"325 532 LINE SMOOTH",
"333 603 OFFCURVE",
"364 637 OFFCURVE",
"414 637 CURVE SMOOTH",
"433 637 OFFCURVE",
"449 632 OFFCURVE",
"470 621 CURVE",
"482 694 LINE",
"461 706 OFFCURVE",
"430 712 OFFCURVE",
"406 712 CURVE SMOOTH",
"316 712 OFFCURVE",
"251 651 OFFCURVE",
"240 537 CURVE SMOOTH",
"187 8 LINE SMOOTH",
"180 -57 OFFCURVE",
"151 -89 OFFCURVE",
"100 -89 CURVE SMOOTH",
"81 -89 OFFCURVE",
"65 -84 OFFCURVE",
"44 -73 CURVE",
"32 -146 LINE",
"53 -158 OFFCURVE",
"84 -164 OFFCURVE",
"108 -164 CURVE SMOOTH"
);
},
{
closed = 1;
nodes = (
"440 346 LINE",
"440 421 LINE",
"104 421 LINE",
"104 346 LINE"
);
}
);
width = 542;
}
);
leftKerningGroup = florin;
rightKerningGroup = florin;
unicode = 0192;
},
{
color = 4;
glyphname = at;
lastChange = "2021-11-08 14:02:47 +0000";
layers = (
{
layerId = "501D5CC1-F731-4DBC-B0A3-CA82AE369B50";
paths = (
{
closed = 1;
nodes = (
"211 706 OFFCURVE",
"46 524 OFFCURVE",
"46 280 CURVE SMOOTH",
"46 37 OFFCURVE",
"210 -144 OFFCURVE",
"449 -144 CURVE SMOOTH",
"509 -144 OFFCURVE",
"574 -132 OFFCURVE",
"639 -104 CURVE",
"604 -35 LINE",
"553 -57 OFFCURVE",
"497 -69 OFFCURVE",
"445 -69 CURVE SMOOTH",
"256 -69 OFFCURVE",
"126 76 OFFCURVE",
"126 274 CURVE SMOOTH",
"126 479 OFFCURVE",
"265 631 OFFCURVE",
"466 631 CURVE SMOOTH",
"655 631 OFFCURVE",
"774 512 OFFCURVE",
"774 319 CURVE SMOOTH",
"774 227 OFFCURVE",
"748 150 OFFCURVE",
"689 150 CURVE SMOOTH",
"651 150 OFFCURVE",
"633 170 OFFCURVE",
"633 218 CURVE SMOOTH",
"633 478 LINE",
"555 478 LINE",
"555 406 LINE",
"569 412 LINE",
"551 468 OFFCURVE",
"487 487 OFFCURVE",
"446 487 CURVE SMOOTH",
"337 487 OFFCURVE",
"265 396 OFFCURVE",
"265 281 CURVE SMOOTH",
"265 161 OFFCURVE",
"333 75 OFFCURVE",
"446 75 CURVE SMOOTH",
"516 75 OFFCURVE",
"578 133 OFFCURVE",
"581 171 CURVE",
"571 172 LINE",
"579 126 OFFCURVE",
"613 84 OFFCURVE",
"689 84 CURVE SMOOTH",
"797 84 OFFCURVE",
"854 190 OFFCURVE",
"854 318 CURVE SMOOTH",
"854 548 OFFCURVE",
"694 706 OFFCURVE",
"462 706 CURVE SMOOTH"
);
},
{
closed = 1;
nodes = (
"380 141 OFFCURVE",
"343 204 OFFCURVE",
"343 281 CURVE SMOOTH",
"343 359 OFFCURVE",
"391 421 OFFCURVE",
"452 421 CURVE SMOOTH",
"518 421 OFFCURVE",
"555 377 OFFCURVE",
"555 281 CURVE SMOOTH",
"555 193 OFFCURVE",
"512 141 OFFCURVE",
"452 141 CURVE SMOOTH"
);
}
);
width = 900;
}
);
leftKerningGroup = at;
rightKerningGroup = at;
unicode = 0040;
},
{
color = 4;
glyphname = ampersand;
lastChange = "2021-11-08 14:02:47 +0000";
layers = (
{
layerId = "501D5CC1-F731-4DBC-B0A3-CA82AE369B50";
paths = (
{
closed = 1;
nodes = (
"421 -12 OFFCURVE",
"547 157 OFFCURVE",
"549 338 CURVE",
"473 338 LINE",
"470 202 OFFCURVE",
"384 63 OFFCURVE",
"256 63 CURVE SMOOTH",
"170 63 OFFCURVE",
"123 123 OFFCURVE",
"123 179 CURVE SMOOTH",
"123 256 OFFCURVE",
"162 303 OFFCURVE",
"284 364 CURVE SMOOTH",
"377 412 OFFCURVE",
"454 474 OFFCURVE",
"454 567 CURVE SMOOTH",
"454 650 OFFCURVE",
"389 716 OFFCURVE",
"293 716 CURVE SMOOTH",
"183 716 OFFCURVE",
"121 645 OFFCURVE",
"121 570 CURVE SMOOTH",
"121 464 OFFCURVE",
"264 314 OFFCURVE",
"534 0 CURVE",
"645 0 LINE",
"347 343 OFFCURVE",
"206 491 OFFCURVE",
"206 566 CURVE SMOOTH",
"206 604 OFFCURVE",
"235 641 OFFCURVE",
"287 641 CURVE SMOOTH",
"338 641 OFFCURVE",
"369 606 OFFCURVE",
"369 563 CURVE SMOOTH",
"369 496 OFFCURVE",
"304 456 OFFCURVE",
"237 419 CURVE SMOOTH",
"85 337 OFFCURVE",
"33 279 OFFCURVE",
"33 173 CURVE SMOOTH",
"33 81 OFFCURVE",
"112 -12 OFFCURVE",
"254 -12 CURVE SMOOTH"
);
}
);
width = 630;
}
);
leftKerningGroup = ampersand;
rightKerningGroup = ampersand;
unicode = 0026;
},
{
color = 4;
glyphname = registered;
lastChange = "2021-11-08 14:59:58 +0000";
layers = (
{
layerId = "501D5CC1-F731-4DBC-B0A3-CA82AE369B50";
paths = (
{
closed = 1;
nodes = (
"404 266 OFFCURVE",
"500 362 OFFCURVE",
"500 492 CURVE SMOOTH",
"500 620 OFFCURVE",
"404 716 OFFCURVE",
"278 716 CURVE SMOOTH",
"151 716 OFFCURVE",
"56 620 OFFCURVE",
"56 492 CURVE SMOOTH",
"56 362 OFFCURVE",
"151 266 OFFCURVE",
"278 266 CURVE SMOOTH"
);
},
{
closed = 1;
nodes = (
"374 385 LINE {name = \"\";}",
"316 483 LINE",
"273 481 LINE",
"328 385 LINE"
);
},
{
closed = 1;
nodes = (
"380 385 LINE",
"380 418 LINE",
"339 418 LINE",
"339 385 LINE {name = \"\";}"
);
},
{
closed = 1;
nodes = (
"180 316 OFFCURVE",
"107 392 OFFCURVE",
"107 492 CURVE SMOOTH",
"107 591 OFFCURVE",
"180 666 OFFCURVE",
"278 666 CURVE SMOOTH",
"375 666 OFFCURVE",
"449 591 OFFCURVE",
"449 492 CURVE SMOOTH",
"449 392 OFFCURVE",
"375 316 OFFCURVE",
"278 316 CURVE SMOOTH"
);
},
{
closed = 1;
nodes = (
"239 385 LINE",
"239 568 LINE",
"292 568 LINE SMOOTH",
"314 568 OFFCURVE",
"328 554 OFFCURVE",
"328 537 CURVE SMOOTH",
"328 517 OFFCURVE",
"314 502 OFFCURVE",
"292 502 CURVE SMOOTH",
"231 502 LINE",
"231 469 LINE",
"301 470 LINE SMOOTH",
"338 471 OFFCURVE",
"368 496 OFFCURVE",
"368 537 CURVE SMOOTH",
"368 574 OFFCURVE",
"337 602 OFFCURVE",
"297 602 CURVE SMOOTH",
"201 602 LINE",
"201 385 LINE"
);
}
);
width = 556;
}
);
leftKerningGroup = O;
rightKerningGroup = O;
unicode = 00AE;
},
{
color = 4;
glyphname = trademark;
lastChange = "2021-11-08 14:02:47 +0000";
layers = (
{
guideLines = (
{
position = "{275, 385}";
}
);
layerId = "501D5CC1-F731-4DBC-B0A3-CA82AE369B50";
paths = (
{
closed = 1;
nodes = (
"434 385 LINE",
"434 660 LINE",
"424 659 LINE",
"504 385 LINE",
"562 385 LINE",
"648 657 LINE",
"638 660 LINE",
"638 385 LINE",
"698 385 LINE",
"698 706 LINE",
"612 706 LINE",
"532 444 LINE",
"539 444 LINE",
"460 706 LINE",
"374 706 LINE",
"374 385 LINE"
);
},
{
closed = 1;
nodes = (
"229 385 LINE",
"229 662 LINE",
"169 662 LINE",
"169 385 LINE"
);
},
{
closed = 1;
nodes = (
"332 652 LINE",
"332 706 LINE",
"64 706 LINE",
"64 652 LINE"
);
}
);
width = 762;
}
);
leftKerningGroup = trademark;
rightKerningGroup = trademark;
unicode = 2122;
},
{
color = 4;
glyphname = bitcoin;
lastChange = "2021-11-08 14:02:47 +0000";
layers = (
{
hints = (
{
horizontal = 1;
origin = "{3, 0}";
target = "{0, 14}";
type = Stem;
},
{
horizontal = 1;
origin = "{0, 15}";
target = "{3, 17}";
type = Stem;
},
{
origin = "{0, 15}";
target = "{3, 17}";
type = Stem;
}
);
layerId = "501D5CC1-F731-4DBC-B0A3-CA82AE369B50";
paths = (
{
closed = 1;
nodes = (
"352 0 LINE SMOOTH",
"480 0 OFFCURVE",
"573 79 OFFCURVE",
"573 197 CURVE SMOOTH",
"573 295 OFFCURVE",
"524 354 OFFCURVE",
"438 373 CURVE",
"438 375 LINE",
"506 403 OFFCURVE",
"543 461 OFFCURVE",
"543 524 CURVE SMOOTH",
"543 643 OFFCURVE",
"472 706 OFFCURVE",
"332 706 CURVE SMOOTH",
"78 706 LINE",
"78 0 LINE"
);
},
{
closed = 1;
nodes = (
"271 -116 LINE",
"271 34 LINE",
"201 34 LINE",
"201 -116 LINE"
);
},
{
closed = 1;
nodes = (
"395 -116 LINE",
"395 34 LINE",
"325 34 LINE",
"325 -116 LINE"
);
},
{
closed = 1;
nodes = (
"173 626 LINE",
"321 626 LINE SMOOTH",
"396 626 OFFCURVE",
"448 596 OFFCURVE",
"448 516 CURVE SMOOTH",
"448 444 OFFCURVE",
"400 403 OFFCURVE",
"317 403 CURVE SMOOTH",
"154 403 LINE",
"154 323 LINE",
"339 323 LINE SMOOTH",
"422 323 OFFCURVE",
"478 276 OFFCURVE",
"478 205 CURVE SMOOTH",
"478 127 OFFCURVE",
"423 80 OFFCURVE",
"342 80 CURVE SMOOTH",
"173 80 LINE"
);
},
{
closed = 1;
nodes = (
"271 653 LINE",
"271 822 LINE",
"201 822 LINE",
"201 653 LINE"
);
},
{
closed = 1;
nodes = (
"395 653 LINE",
"395 822 LINE",
"325 822 LINE",
"325 653 LINE"
);
}
);
width = 618;
}
);
leftKerningGroup = H;
leftMetricsKey = H;
rightKerningGroup = B;
rightMetricsKey = B;
unicode = 20BF;
},
{
color = 4;
glyphname = cent;
lastChange = "2021-11-08 14:02:47 +0000";
layers = (
{
components = (
{
name = c;
}
);
layerId = "501D5CC1-F731-4DBC-B0A3-CA82AE369B50";
paths = (
{
closed = 1;
nodes = (
"224 29 LINE",
"224 -116 LINE",
"300 -116 LINE",
"300 29 LINE"
);
},
{
closed = 1;
nodes = (
"300 475 LINE",
"300 624 LINE",
"224 624 LINE",
"224 475 LINE"
);
}
);
width = 507;
}
);
leftKerningGroup = cent;
leftMetricsKey = c;
rightKerningGroup = cent;
rightMetricsKey = c;
unicode = 00A2;
},
{
color = 4;
glyphname = currency;
lastChange = "2021-11-08 14:02:47 +0000";
layers = (
{
layerId = "501D5CC1-F731-4DBC-B0A3-CA82AE369B50";
paths = (
{
closed = 1;
nodes = (
"135 159 LINE",
"172 131 OFFCURVE",
"219 114 OFFCURVE",
"272 114 CURVE SMOOTH",
"326 114 OFFCURVE",
"373 131 OFFCURVE",
"410 159 CURVE",
"486 83 LINE",
"539 137 LINE",
"461 215 LINE",
"486 253 OFFCURVE",
"500 298 OFFCURVE",
"500 350 CURVE SMOOTH",
"500 402 OFFCURVE",
"486 447 OFFCURVE",
"461 485 CURVE",
"539 563 LINE",
"486 617 LINE",
"410 541 LINE",
"373 569 OFFCURVE",
"326 585 OFFCURVE",
"272 585 CURVE SMOOTH",
"219 585 OFFCURVE",
"172 569 OFFCURVE",
"135 541 CURVE",
"59 617 LINE",
"6 563 LINE",
"85 485 LINE",
"60 447 OFFCURVE",
"47 402 OFFCURVE",
"47 350 CURVE SMOOTH",
"47 298 OFFCURVE",
"60 253 OFFCURVE",
"85 215 CURVE",
"6 137 LINE",
"59 83 LINE"
);
},
{
closed = 1;
nodes = (
"185 189 OFFCURVE",
"127 256 OFFCURVE",
"127 350 CURVE SMOOTH",
"127 443 OFFCURVE",
"185 510 OFFCURVE",
"272 510 CURVE SMOOTH",
"361 510 OFFCURVE",
"420 443 OFFCURVE",
"420 350 CURVE SMOOTH",
"420 256 OFFCURVE",
"361 189 OFFCURVE",
"272 189 CURVE SMOOTH"
);
}
);
width = 545;
}
);
leftKerningGroup = currency;
rightKerningGroup = currency;
unicode = 00A4;
},
{
color = 4;
glyphname = dollar;
lastChange = "2021-11-08 14:02:47 +0000";
layers = (
{
layerId = "501D5CC1-F731-4DBC-B0A3-CA82AE369B50";
paths = (
{
closed = 1;
nodes = (
"422 -16 OFFCURVE",
"545 52 OFFCURVE",
"545 193 CURVE SMOOTH",
"545 350 OFFCURVE",
"406 384 OFFCURVE",
"302 411 CURVE SMOOTH",
"230 430 OFFCURVE",
"150 462 OFFCURVE",
"150 540 CURVE SMOOTH",
"150 611 OFFCURVE",
"222 642 OFFCURVE",
"281 642 CURVE SMOOTH",
"341 642 OFFCURVE",
"409 617 OFFCURVE",
"431 523 CURVE",
"516 555 LINE",
"481 674 OFFCURVE",
"385 722 OFFCURVE",
"285 722 CURVE SMOOTH",
"172 722 OFFCURVE",
"59 656 OFFCURVE",
"59 535 CURVE SMOOTH",
"59 398 OFFCURVE",
"179 354 OFFCURVE",
"272 328 CURVE SMOOTH",
"357 304 OFFCURVE",
"455 279 OFFCURVE",
"455 188 CURVE SMOOTH",
"455 100 OFFCURVE",
"368 65 OFFCURVE",
"293 65 CURVE SMOOTH",
"231 65 OFFCURVE",
"159 94 OFFCURVE",
"137 183 CURVE",
"51 152 LINE",
"85 34 OFFCURVE",
"186 -16 OFFCURVE",
"290 -16 CURVE SMOOTH"
);
},
{
closed = 1;
nodes = (
"250 34 LINE",
"250 -116 LINE",
"326 -116 LINE",
"326 34 LINE"
);
},
{
closed = 1;
nodes = (
"326 674 LINE",
"326 822 LINE",
"250 822 LINE",
"250 674 LINE"
);
}
);
width = 590;
}
);
leftKerningGroup = dollar;
leftMetricsKey = "=S+4";
rightKerningGroup = dollar;
rightMetricsKey = "=S+4";
unicode = 0024;
},
{
color = 4;
glyphname = euro;
lastChange = "2021-11-08 14:02:47 +0000";
layers = (
{
layerId = "501D5CC1-F731-4DBC-B0A3-CA82AE369B50";
paths = (
{
closed = 1;
nodes = (
"490 -16 OFFCURVE",
"590 23 OFFCURVE",
"654 152 CURVE",
"568 183 LINE",
"530 97 OFFCURVE",
"466 63 OFFCURVE",
"401 63 CURVE SMOOTH",
"281 63 OFFCURVE",
"208 184 OFFCURVE",
"208 354 CURVE SMOOTH",
"208 518 OFFCURVE",
"281 642 OFFCURVE",
"410 642 CURVE SMOOTH",
"476 642 OFFCURVE",
"540 609 OFFCURVE",
"577 523 CURVE",
"662 555 LINE",
"599 683 OFFCURVE",
"499 722 OFFCURVE",
"410 722 CURVE SMOOTH",
"228 722 OFFCURVE",
"113 558 OFFCURVE",
"113 354 CURVE SMOOTH",
"113 141 OFFCURVE",
"232 -16 OFFCURVE",
"401 -16 CURVE SMOOTH"
);
},
{
closed = 1;
nodes = (
"577 257 LINE",
"577 327 LINE",
"33 327 LINE",
"33 257 LINE"
);
},
{
closed = 1;
nodes = (
"577 381 LINE",
"577 451 LINE",
"33 451 LINE",
"33 381 LINE"
);
}
);
width = 702;
}
);
leftKerningGroup = euro;
rightKerningGroup = euro;
unicode = 20AC;
},
{
color = 4;
glyphname = ruble;
lastChange = "2021-11-08 14:02:47 +0000";
layers = (
{
layerId = "501D5CC1-F731-4DBC-B0A3-CA82AE369B50";
paths = (
{
closed = 1;
nodes = (
"222 0 LINE",
"222 630 LINE",
"370 630 LINE SMOOTH",
"454 630 OFFCURVE",
"506 577 OFFCURVE",
"506 504 CURVE SMOOTH",
"506 430 OFFCURVE",
"471 360 OFFCURVE",
"358 360 CURVE SMOOTH",
"38 360 LINE",
"38 288 LINE",
"364 288 LINE SMOOTH",
"529 288 OFFCURVE",
"601 397 OFFCURVE",
"601 504 CURVE SMOOTH",
"601 607 OFFCURVE",
"525 706 OFFCURVE",
"376 706 CURVE SMOOTH",
"127 706 LINE",
"127 0 LINE"
);
},
{
closed = 1;
nodes = (
"485 158 LINE",
"485 228 LINE",
"38 228 LINE",
"38 158 LINE"
);
}
);
width = 621;
}
);
leftKerningGroup = ruble;
rightKerningGroup = ruble;
unicode = 20BD;
},
{
color = 4;
glyphname = sterling;
lastChange = "2021-11-08 14:02:47 +0000";
layers = (
{
layerId = "501D5CC1-F731-4DBC-B0A3-CA82AE369B50";
paths = (
{
closed = 1;
nodes = (
"518 0 LINE",
"518 75 LINE",
"151 75 LINE",
"154 52 LINE",
"248 120 OFFCURVE",
"276 177 OFFCURVE",
"276 228 CURVE SMOOTH",
"276 317 OFFCURVE",
"187 386 OFFCURVE",
"187 506 CURVE SMOOTH",
"187 578 OFFCURVE",
"227 625 OFFCURVE",
"300 625 CURVE SMOOTH",
"365 625 OFFCURVE",
"404 599 OFFCURVE",
"424 501 CURVE",
"509 533 LINE",
"476 652 OFFCURVE",
"407 700 OFFCURVE",
"296 700 CURVE SMOOTH",
"174 700 OFFCURVE",
"97 623 OFFCURVE",
"97 505 CURVE SMOOTH",
"97 373 OFFCURVE",
"186 305 OFFCURVE",
"186 224 CURVE SMOOTH",
"186 178 OFFCURVE",
"155 126 OFFCURVE",
"58 61 CURVE",
"58 0 LINE"
);
},
{
closed = 1;
nodes = (
"424 283 LINE",
"424 353 LINE",
"58 353 LINE",
"58 283 LINE"
);
}
);
width = 554;
}
);
leftKerningGroup = sterling;
rightKerningGroup = sterling;
unicode = 00A3;
},
{
color = 4;
glyphname = yen;
lastChange = "2021-11-08 14:02:47 +0000";
layers = (
{
anchors = (
{
name = bottom;
position = "{312, 0}";
},
{
name = top;
position = "{312, 706}";
},
{
name = topleft;
position = "{18, 706}";
}
);
layerId = "501D5CC1-F731-4DBC-B0A3-CA82AE369B50";
paths = (
{
closed = 1;
nodes = (
"535 299 LINE",
"535 369 LINE",
"90 369 LINE",
"90 299 LINE"
);
},
{
closed = 1;
nodes = (
"535 174 LINE",
"535 244 LINE",
"90 244 LINE",
"90 174 LINE"
);
},
{
closed = 1;
nodes = (
"360 0 LINE",
"360 312 LINE",
"589 706 LINE",
"482 706 LINE",
"294 363 LINE",
"337 363 LINE",
"149 706 LINE",
"35 706 LINE",
"265 312 LINE",
"265 0 LINE"
);
}
);
width = 624;
}
);
leftKerningGroup = yen;
rightKerningGroup = yen;
unicode = 00A5;
},
{
color = 4;
glyphname = plus;
lastChange = "2021-11-08 14:02:47 +0000";
layers = (
{
layerId = "501D5CC1-F731-4DBC-B0A3-CA82AE369B50";
paths = (
{
closed = 1;
nodes = (
"335 0 LINE",
"335 506 LINE",
"265 506 LINE",
"265 0 LINE"
);
},
{
closed = 1;
nodes = (
"552 218 LINE",
"552 288 LINE",
"48 288 LINE",
"48 218 LINE"
);
}
);
width = 600;
}
);
leftKerningGroup = minus;
rightKerningGroup = minus;
unicode = 002B;
},
{
color = 4;
glyphname = minus;
lastChange = "2021-11-08 14:02:47 +0000";
layers = (
{
layerId = "501D5CC1-F731-4DBC-B0A3-CA82AE369B50";
paths = (
{
closed = 1;
nodes = (
"552 218 LINE",
"552 288 LINE",
"48 288 LINE",
"48 218 LINE"
);
}
);
width = 600;
}
);
leftKerningGroup = minus;
rightKerningGroup = minus;
unicode = 2212;
},
{
color = 4;
glyphname = multiply;
lastChange = "2021-11-08 14:02:47 +0000";
layers = (
{
layerId = "501D5CC1-F731-4DBC-B0A3-CA82AE369B50";
paths = (
{
closed = 1;
nodes = (
"531 73 LINE",
"121 483 LINE",
"71 434 LINE",
"481 24 LINE"
);
},
{
closed = 1;
nodes = (
"530 434 LINE",
"480 483 LINE",
"70 73 LINE",
"120 24 LINE"
);
}
);
width = 601;
}
);
leftKerningGroup = multiply;
rightKerningGroup = multiply;
unicode = 00D7;
},
{
color = 4;
glyphname = divide;
lastChange = "2021-11-08 14:02:47 +0000";
layers = (
{
layerId = "501D5CC1-F731-4DBC-B0A3-CA82AE369B50";
paths = (
{
closed = 1;
nodes = (
"552 218 LINE",
"552 288 LINE",
"48 288 LINE",
"48 218 LINE"
);
},
{
closed = 1;
nodes = (
"356 0 LINE",
"356 112 LINE",
"244 112 LINE",
"244 0 LINE"
);
},
{
closed = 1;
nodes = (
"356 406 LINE",
"356 518 LINE",
"244 518 LINE",
"244 406 LINE"
);
}
);
width = 600;
}
);
leftKerningGroup = minus;
rightKerningGroup = minus;
unicode = 00F7;
},
{
color = 4;
glyphname = equal;
lastChange = "2021-11-08 14:02:47 +0000";
layers = (
{
layerId = "501D5CC1-F731-4DBC-B0A3-CA82AE369B50";
paths = (
{
closed = 1;
nodes = (
"552 318 LINE",
"552 388 LINE",
"48 388 LINE",
"48 318 LINE"
);
},
{
closed = 1;
nodes = (
"552 118 LINE",
"552 188 LINE",
"48 188 LINE",
"48 118 LINE"
);
}
);
width = 600;
}
);
leftKerningGroup = minus;
rightKerningGroup = minus;
unicode = 003D;
},
{
color = 4;
glyphname = notequal;
lastChange = "2021-11-08 14:02:47 +0000";
layers = (
{
components = (
{
alignment = -1;
name = equal;
transform = "{1, 0, 0, 1, 0, 1}";
}
);
layerId = "501D5CC1-F731-4DBC-B0A3-CA82AE369B50";
paths = (
{
closed = 1;
nodes = (
"454 465 LINE",
"398 496 LINE",
"135 45 LINE",
"190 11 LINE"
);
}
);
width = 600;
}
);
leftKerningGroup = minus;
rightKerningGroup = minus;
unicode = 2260;
},
{
color = 4;
glyphname = greater;
lastChange = "2021-11-08 14:02:47 +0000";
layers = (
{
layerId = "501D5CC1-F731-4DBC-B0A3-CA82AE369B50";
paths = (
{
closed = 1;
nodes = (
"554 222 LINE",
"554 284 LINE",
"46 514 LINE",
"46 437 LINE",
"506 228 LINE",
"506 278 LINE",
"46 69 LINE",
"46 -8 LINE"
);
}
);
width = 600;
}
);
leftKerningGroup = greater;
rightKerningGroup = greater;
unicode = 003E;
},
{
color = 4;
glyphname = greaterequal;
lastChange = "2021-11-08 14:02:47 +0000";
layers = (
{
layerId = "501D5CC1-F731-4DBC-B0A3-CA82AE369B50";
paths = (
{
closed = 1;
nodes = (
"502 320 LINE",
"502 374 LINE",
"51 598 LINE",
"51 517 LINE",
"447 328 LINE",
"447 366 LINE",
"51 176 LINE",
"51 96 LINE"
);
},
{
closed = 1;
nodes = (
"503 3 LINE",
"503 73 LINE",
"46 73 LINE",
"46 3 LINE"
);
}
);
width = 549;
}
);
leftKerningGroup = greaterequal;
leftMetricsKey = greater;
rightKerningGroup = greaterequal;
rightMetricsKey = greater;
unicode = 2265;
},
{
color = 4;
glyphname = plusminus;
lastChange = "2021-11-08 14:02:47 +0000";
layers = (
{
layerId = "501D5CC1-F731-4DBC-B0A3-CA82AE369B50";
paths = (
{
closed = 1;
nodes = (
"552 3 LINE",
"552 73 LINE",
"48 73 LINE",
"48 3 LINE"
);
},
{
closed = 1;
nodes = (
"552 273 LINE",
"552 343 LINE",
"48 343 LINE",
"48 273 LINE"
);
},
{
closed = 1;
nodes = (
"335 107 LINE",
"335 508 LINE",
"265 508 LINE",
"265 107 LINE"
);
}
);
width = 600;
}
);
leftKerningGroup = minus;
rightKerningGroup = minus;
unicode = 00B1;
},
{
color = 4;
glyphname = approxequal;
lastChange = "2021-11-08 14:02:47 +0000";
layers = (
{
layerId = "501D5CC1-F731-4DBC-B0A3-CA82AE369B50";
paths = (
{
closed = 1;
nodes = (
"123 351 OFFCURVE",
"155 374 OFFCURVE",
"189 374 CURVE SMOOTH",
"222 374 OFFCURVE",
"248 359 OFFCURVE",
"283 339 CURVE SMOOTH",
"315 321 OFFCURVE",
"354 298 OFFCURVE",
"399 298 CURVE SMOOTH",
"455 298 OFFCURVE",
"499 329 OFFCURVE",
"540 399 CURVE",
"484 435 LINE",
"453 385 OFFCURVE",
"428 368 OFFCURVE",
"399 368 CURVE SMOOTH",
"372 368 OFFCURVE",
"349 381 OFFCURVE",
"317 399 CURVE SMOOTH",
"284 419 OFFCURVE",
"242 444 OFFCURVE",
"189 444 CURVE SMOOTH",
"127 444 OFFCURVE",
"72 404 OFFCURVE",
"40 337 CURVE",
"98 307 LINE"
);
},
{
closed = 1;
nodes = (
"123 180 OFFCURVE",
"155 203 OFFCURVE",
"189 203 CURVE SMOOTH",
"216 203 OFFCURVE",
"238 195 OFFCURVE",
"284 168 CURVE SMOOTH",
"316 150 OFFCURVE",
"355 127 OFFCURVE",
"399 127 CURVE SMOOTH",
"455 127 OFFCURVE",
"496 156 OFFCURVE",
"540 227 CURVE",
"484 263 LINE",
"451 212 OFFCURVE",
"428 197 OFFCURVE",
"399 197 CURVE SMOOTH",
"373 197 OFFCURVE",
"350 210 OFFCURVE",
"318 228 CURVE SMOOTH",
"285 248 OFFCURVE",
"241 273 OFFCURVE",
"189 273 CURVE SMOOTH",
"127 273 OFFCURVE",
"72 233 OFFCURVE",
"40 166 CURVE",
"98 136 LINE"
);
}
);
width = 580;
}
);
leftKerningGroup = approxequal;
rightKerningGroup = approxequal;
unicode = 2248;
},
{
color = 4;
glyphname = percent;
lastChange = "2021-11-08 14:02:47 +0000";
layers = (
{
layerId = "501D5CC1-F731-4DBC-B0A3-CA82AE369B50";
paths = (
{
closed = 1;
nodes = (
"282 0 LINE",
"792 706 LINE",
"706 706 LINE",
"195 0 LINE"
);
},
{
closed = 1;
nodes = (
"848 -11 OFFCURVE",
"895 74 OFFCURVE",
"895 189 CURVE SMOOTH",
"895 305 OFFCURVE",
"848 389 OFFCURVE",
"745 389 CURVE SMOOTH",
"643 389 OFFCURVE",
"596 304 OFFCURVE",
"596 189 CURVE SMOOTH",
"596 74 OFFCURVE",
"643 -11 OFFCURVE",
"745 -11 CURVE SMOOTH"
);
},
{
closed = 1;
nodes = (
"343 311 OFFCURVE",
"391 396 OFFCURVE",
"391 511 CURVE SMOOTH",
"391 627 OFFCURVE",
"343 711 OFFCURVE",
"241 711 CURVE SMOOTH",
"139 711 OFFCURVE",
"92 626 OFFCURVE",
"92 511 CURVE SMOOTH",
"92 396 OFFCURVE",
"139 311 OFFCURVE",
"241 311 CURVE SMOOTH"
);
},
{
closed = 1;
nodes = (
"690 44 OFFCURVE",
"671 107 OFFCURVE",
"671 189 CURVE SMOOTH",
"671 270 OFFCURVE",
"690 334 OFFCURVE",
"745 334 CURVE SMOOTH",
"800 334 OFFCURVE",
"820 270 OFFCURVE",
"820 189 CURVE SMOOTH",
"820 107 OFFCURVE",
"800 44 OFFCURVE",
"745 44 CURVE SMOOTH"
);
},
{
closed = 1;
nodes = (
"185 366 OFFCURVE",
"167 429 OFFCURVE",
"167 511 CURVE SMOOTH",
"167 593 OFFCURVE",
"185 656 OFFCURVE",
"241 656 CURVE SMOOTH",
"297 656 OFFCURVE",
"316 593 OFFCURVE",
"316 511 CURVE SMOOTH",
"316 429 OFFCURVE",
"297 366 OFFCURVE",
"241 366 CURVE SMOOTH"
);
}
);
width = 987;
}
);
leftKerningGroup = percent;
rightKerningGroup = percent;
unicode = 0025;
},
{
color = 4;
glyphname = perthousand;
lastChange = "2021-11-08 14:02:47 +0000";
layers = (
{
layerId = "501D5CC1-F731-4DBC-B0A3-CA82AE369B50";
paths = (
{
closed = 1;
nodes = (
"282 0 LINE",
"792 706 LINE",
"706 706 LINE",
"195 0 LINE"
);
},
{
closed = 1;
nodes = (
"848 -11 OFFCURVE",
"895 74 OFFCURVE",
"895 189 CURVE SMOOTH",
"895 305 OFFCURVE",
"848 389 OFFCURVE",
"745 389 CURVE SMOOTH",
"643 389 OFFCURVE",
"596 304 OFFCURVE",
"596 189 CURVE SMOOTH",
"596 74 OFFCURVE",
"643 -11 OFFCURVE",
"745 -11 CURVE SMOOTH"
);
},
{
closed = 1;
nodes = (
"343 311 OFFCURVE",
"391 396 OFFCURVE",
"391 511 CURVE SMOOTH",
"391 627 OFFCURVE",
"343 711 OFFCURVE",
"241 711 CURVE SMOOTH",
"139 711 OFFCURVE",
"92 626 OFFCURVE",
"92 511 CURVE SMOOTH",
"92 396 OFFCURVE",
"139 311 OFFCURVE",
"241 311 CURVE SMOOTH"
);
},
{
closed = 1;
nodes = (
"690 44 OFFCURVE",
"671 107 OFFCURVE",
"671 189 CURVE SMOOTH",
"671 270 OFFCURVE",
"690 334 OFFCURVE",
"745 334 CURVE SMOOTH",
"800 334 OFFCURVE",
"820 270 OFFCURVE",
"820 189 CURVE SMOOTH",
"820 107 OFFCURVE",
"800 44 OFFCURVE",
"745 44 CURVE SMOOTH"
);
},
{
closed = 1;
nodes = (
"185 366 OFFCURVE",
"167 429 OFFCURVE",
"167 511 CURVE SMOOTH",
"167 593 OFFCURVE",
"185 656 OFFCURVE",
"241 656 CURVE SMOOTH",
"297 656 OFFCURVE",
"316 593 OFFCURVE",
"316 511 CURVE SMOOTH",
"316 429 OFFCURVE",
"297 366 OFFCURVE",
"241 366 CURVE SMOOTH"
);
},
{
closed = 1;
nodes = (
"1215 -11 OFFCURVE",
"1262 74 OFFCURVE",
"1262 189 CURVE SMOOTH",
"1262 305 OFFCURVE",
"1215 389 OFFCURVE",
"1112 389 CURVE SMOOTH",
"1010 389 OFFCURVE",
"963 304 OFFCURVE",
"963 189 CURVE SMOOTH",
"963 74 OFFCURVE",
"1010 -11 OFFCURVE",
"1112 -11 CURVE SMOOTH"
);
},
{
closed = 1;
nodes = (
"1057 44 OFFCURVE",
"1038 107 OFFCURVE",
"1038 189 CURVE SMOOTH",
"1038 270 OFFCURVE",
"1057 334 OFFCURVE",
"1112 334 CURVE SMOOTH",
"1167 334 OFFCURVE",
"1187 270 OFFCURVE",
"1187 189 CURVE SMOOTH",
"1187 107 OFFCURVE",
"1167 44 OFFCURVE",
"1112 44 CURVE SMOOTH"
);
}
);
width = 1354;
}
);
leftKerningGroup = percent;
leftMetricsKey = percent;
rightKerningGroup = perthousand;
rightMetricsKey = percent;
unicode = 2030;
},
{
color = 4;
glyphname = dieresiscomb;
lastChange = "2021-11-08 15:04:45 +0000";
layers = (
{
anchors = (
{
name = _top;
position = "{206, 510}";
},
{
name = top;
position = "{206, 706}";
}
);
hints = (
{
horizontal = 1;
place = "{607, 106}";
type = Stem;
}
);
layerId = "501D5CC1-F731-4DBC-B0A3-CA82AE369B50";
paths = (
{
closed = 1;
nodes = (
"340 606 LINE",
"340 706 LINE",
"255 706 LINE",
"255 606 LINE"
);
},
{
closed = 1;
nodes = (
"157 606 LINE",
"157 706 LINE",
"72 706 LINE",
"72 606 LINE"
);
}
);
width = 412;
}
);
unicode = 0308;
},
{
color = 4;
glyphname = dotaccentcomb;
lastChange = "2021-11-08 15:04:35 +0000";
layers = (
{
anchors = (
{
name = _top;
position = "{114, 510}";
},
{
name = top;
position = "{114, 706}";
}
);
hints = (
{
horizontal = 1;
place = "{600, 112}";
type = Stem;
}
);
layerId = "501D5CC1-F731-4DBC-B0A3-CA82AE369B50";
paths = (
{
closed = 1;
nodes = (
"157 606 LINE",
"157 706 LINE",
"71 706 LINE",
"71 606 LINE"
);
}
);
width = 231;
}
);
unicode = 0307;
},
{
color = 4;
glyphname = gravecomb;
lastChange = "2021-11-08 14:02:47 +0000";
layers = (
{
anchors = (
{
name = _top;
position = "{151, 510}";
},
{
name = top;
position = "{151, 730}";
}
);
layerId = "501D5CC1-F731-4DBC-B0A3-CA82AE369B50";
paths = (
{
closed = 1;
nodes = (
"213 588 LINE",
"132 730 LINE",
"24 730 LINE",
"148 588 LINE"
);
}
);
width = 281;
}
);
unicode = 0300;
},
{
color = 4;
glyphname = acutecomb;
lastChange = "2021-11-08 14:02:47 +0000";
layers = (
{
anchors = (
{
name = _top;
position = "{125, 510}";
},
{
name = top;
position = "{125, 730}";
}
);
layerId = "501D5CC1-F731-4DBC-B0A3-CA82AE369B50";
paths = (
{
closed = 1;
nodes = (
"128 588 LINE",
"252 730 LINE",
"144 730 LINE",
"63 588 LINE"
);
}
);
width = 296;
}
);
unicode = 0301;
},
{
color = 4;
glyphname = hungarumlautcomb;
lastChange = "2021-11-08 14:02:47 +0000";
layers = (
{
anchors = (
{
name = _top;
position = "{169, 510}";
},
{
name = top;
position = "{169, 730}";
}
);
layerId = "501D5CC1-F731-4DBC-B0A3-CA82AE369B50";
paths = (
{
closed = 1;
nodes = (
"266 588 LINE",
"390 730 LINE",
"282 730 LINE",
"201 588 LINE"
);
},
{
closed = 1;
nodes = (
"103 588 LINE",
"217 730 LINE",
"113 730 LINE",
"42 588 LINE"
);
}
);
width = 404;
}
);
unicode = 030B;
},
{
color = 4;
glyphname = circumflexcomb;
lastChange = "2021-11-08 14:02:47 +0000";
layers = (
{
anchors = (
{
name = _top;
position = "{194, 510}";
},
{
name = top;
position = "{194, 730}";
}
);
layerId = "501D5CC1-F731-4DBC-B0A3-CA82AE369B50";
paths = (
{
closed = 1;
nodes = (
"116 588 LINE",
"191 681 LINE",
"265 588 LINE",
"344 588 LINE",
"241 730 LINE",
"145 730 LINE",
"44 588 LINE"
);
}
);
width = 380;
}
);
unicode = 0302;
},
{
color = 4;
glyphname = caroncomb;
lastChange = "2021-11-08 14:02:47 +0000";
layers = (
{
anchors = (
{
name = _top;
position = "{194, 510}";
},
{
name = top;
position = "{194, 730}";
}
);
layerId = "501D5CC1-F731-4DBC-B0A3-CA82AE369B50";
paths = (
{
closed = 1;
nodes = (
"243 588 LINE",
"344 730 LINE",
"272 730 LINE",
"197 637 LINE",
"123 730 LINE",
"44 730 LINE",
"147 588 LINE"
);
}
);
width = 380;
}
);
unicode = 030C;
},
{
color = 4;
glyphname = brevecomb;
lastChange = "2021-11-08 14:02:47 +0000";
layers = (
{
anchors = (
{
name = _top;
position = "{189, 510}";
},
{
name = top;
position = "{189, 704}";
}
);
layerId = "501D5CC1-F731-4DBC-B0A3-CA82AE369B50";
paths = (
{
closed = 1;
nodes = (
"266 576 OFFCURVE",
"318 615 OFFCURVE",
"337 681 CURVE",
"266 706 LINE",
"254 664 OFFCURVE",
"230 641 OFFCURVE",
"189 641 CURVE SMOOTH",
"148 641 OFFCURVE",
"124 664 OFFCURVE",
"112 706 CURVE",
"41 681 LINE",
"60 615 OFFCURVE",
"112 576 OFFCURVE",
"189 576 CURVE SMOOTH"
);
}
);
width = 378;
}
);
unicode = 0306;
},
{
color = 4;
glyphname = ringcomb;
lastChange = "2021-11-08 14:02:47 +0000";
layers = (
{
anchors = (
{
name = _top;
position = "{154, 509}";
}
);
layerId = "501D5CC1-F731-4DBC-B0A3-CA82AE369B50";
paths = (
{
closed = 1;
nodes = (
"212 554 OFFCURVE",
"264 590 OFFCURVE",
"264 657 CURVE SMOOTH",
"264 725 OFFCURVE",
"211 760 OFFCURVE",
"153 760 CURVE SMOOTH",
"96 760 OFFCURVE",
"43 725 OFFCURVE",
"43 657 CURVE SMOOTH",
"43 590 OFFCURVE",
"97 554 OFFCURVE",
"155 554 CURVE SMOOTH"
);
},
{
closed = 1;
nodes = (
"127 604 OFFCURVE",
"100 622 OFFCURVE",
"100 657 CURVE SMOOTH",
"100 693 OFFCURVE",
"126 711 OFFCURVE",
"153 711 CURVE SMOOTH",
"180 711 OFFCURVE",
"207 694 OFFCURVE",
"207 657 CURVE SMOOTH",
"207 622 OFFCURVE",
"182 604 OFFCURVE",
"154 604 CURVE SMOOTH"
);
}
);
width = 306;
}
);
unicode = 030A;
},
{
color = 4;
glyphname = tildecomb;
lastChange = "2021-11-08 14:02:47 +0000";
layers = (
{
anchors = (
{
name = _top;
position = "{195, 510}";
},
{
name = top;
position = "{195, 710}";
}
);
layerId = "501D5CC1-F731-4DBC-B0A3-CA82AE369B50";
paths = (
{
closed = 1;
nodes = (
"111 628 OFFCURVE",
"126 637 OFFCURVE",
"146 637 CURVE SMOOTH",
"176 637 OFFCURVE",
"207 600 OFFCURVE",
"251 600 CURVE SMOOTH",
"292 600 OFFCURVE",
"322 626 OFFCURVE",
"347 674 CURVE",
"293 705 LINE",
"280 681 OFFCURVE",
"266 672 OFFCURVE",
"249 672 CURVE SMOOTH",
"219 672 OFFCURVE",
"182 710 OFFCURVE",
"139 710 CURVE SMOOTH",
"95 710 OFFCURVE",
"65 683 OFFCURVE",
"43 634 CURVE",
"97 602 LINE"
);
}
);
width = 390;
}
);
unicode = 0303;
},
{
color = 4;
glyphname = macroncomb;
lastChange = "2021-11-08 14:02:47 +0000";
layers = (
{
anchors = (
{
name = _top;
position = "{200, 510}";
},
{
name = top;
position = "{200, 678}";
}
);
layerId = "501D5CC1-F731-4DBC-B0A3-CA82AE369B50";
paths = (
{
closed = 1;
nodes = (
"336 608 LINE",
"336 678 LINE",
"63 678 LINE",
"63 608 LINE"
);
}
);
width = 399;
}
);
unicode = 0304;
},
{
color = 4;
glyphname = commaaccentcomb;
lastChange = "2021-11-08 14:02:47 +0000";
layers = (
{
anchors = (
{
name = _bottom;
position = "{137, 0}";
},
{
name = bottom;
position = "{135, -279}";
}
);
layerId = "501D5CC1-F731-4DBC-B0A3-CA82AE369B50";
paths = (
{
closed = 1;
nodes = (
"168 -243 OFFCURVE",
"180 -203 OFFCURVE",
"180 -136 CURVE SMOOTH",
"180 -72 LINE",
"95 -72 LINE",
"95 -162 LINE",
"164 -162 LINE",
"137 -150 LINE",
"140 -190 OFFCURVE",
"130 -217 OFFCURVE",
"91 -241 CURVE",
"117 -279 LINE"
);
}
);
width = 232;
}
);
unicode = 0326;
},
{
color = 4;
glyphname = cedillacomb;
lastChange = "2021-11-08 14:02:47 +0000";
layers = (
{
anchors = (
{
name = _bottom;
position = "{157, 0}";
}
);
layerId = "501D5CC1-F731-4DBC-B0A3-CA82AE369B50";
paths = (
{
closed = 1;
nodes = (
"206 -214 OFFCURVE",
"253 -181 OFFCURVE",
"253 -128 CURVE SMOOTH",
"253 -70 OFFCURVE",
"198 -48 OFFCURVE",
"141 -46 CURVE",
"149 -65 LINE",
"188 -2 LINE",
"128 -2 LINE",
"96 -52 LINE",
"96 -95 LINE",
"108 -92 OFFCURVE",
"119 -91 OFFCURVE",
"131 -91 CURVE SMOOTH",
"162 -91 OFFCURVE",
"188 -102 OFFCURVE",
"188 -127 CURVE SMOOTH",
"188 -149 OFFCURVE",
"165 -155 OFFCURVE",
"139 -155 CURVE SMOOTH",
"122 -155 OFFCURVE",
"95 -148 OFFCURVE",
"71 -133 CURVE",
"42 -188 LINE",
"72 -205 OFFCURVE",
"106 -214 OFFCURVE",
"146 -214 CURVE SMOOTH"
);
}
);
width = 313;
}
);
unicode = 0327;
},
{
color = 4;
glyphname = ogonekcomb;
lastChange = "2021-11-08 14:02:47 +0000";
layers = (
{
anchors = (
{
name = _ogonek;
position = "{214, 0}";
}
);
layerId = "501D5CC1-F731-4DBC-B0A3-CA82AE369B50";
paths = (
{
closed = 1;
nodes = (
"172 -215 OFFCURVE",
"204 -207 OFFCURVE",
"228 -190 CURVE",
"206 -128 LINE",
"193 -138 OFFCURVE",
"177 -145 OFFCURVE",
"161 -145 CURVE SMOOTH",
"135 -145 OFFCURVE",
"123 -132 OFFCURVE",
"123 -112 CURVE SMOOTH",
"123 -82 OFFCURVE",
"155 -40 OFFCURVE",
"205 0 CURVE",
"156 30 LINE",
"87 -23 OFFCURVE",
"45 -76 OFFCURVE",
"45 -130 CURVE SMOOTH",
"45 -177 OFFCURVE",
"76 -215 OFFCURVE",
"141 -215 CURVE SMOOTH"
);
}
);
width = 262;
}
);
unicode = 0328;
},
{
color = 4;
glyphname = dieresiscomb.case;
lastChange = "2021-11-08 15:06:37 +0000";
layers = (
{
anchors = (
{
name = _top;
position = "{206, 706}";
},
{
name = top;
position = "{206, 880}";
}
);
hints = (
{
horizontal = 1;
place = "{881, -20}";
target = down;
type = TopGhost;
}
);
layerId = "501D5CC1-F731-4DBC-B0A3-CA82AE369B50";
paths = (
{
closed = 1;
nodes = (
"157 780 LINE",
"157 880 LINE",
"67 880 LINE",
"67 780 LINE"
);
},
{
closed = 1;
nodes = (
"345 780 LINE",
"345 880 LINE",
"255 880 LINE",
"255 780 LINE"
);
}
);
width = 412;
}
);
},
{
color = 4;
glyphname = dotaccentcomb.case;
lastChange = "2021-11-08 15:07:03 +0000";
layers = (
{
anchors = (
{
name = _top;
position = "{115, 706}";
},
{
name = top;
position = "{115, 880}";
}
);
hints = (
{
horizontal = 1;
place = "{881, -20}";
target = down;
type = TopGhost;
}
);
layerId = "501D5CC1-F731-4DBC-B0A3-CA82AE369B50";
paths = (
{
closed = 1;
nodes = (
"160 780 LINE",
"160 880 LINE",
"70 880 LINE",
"70 780 LINE"
);
}
);
width = 230;
}
);
},
{
color = 4;
glyphname = gravecomb.case;
lastChange = "2021-11-08 14:02:47 +0000";
layers = (
{
anchors = (
{
name = _top;
position = "{151, 706}";
},
{
name = top;
position = "{151, 900}";
}
);
layerId = "501D5CC1-F731-4DBC-B0A3-CA82AE369B50";
paths = (
{
closed = 1;
nodes = (
"213 758 LINE",
"132 900 LINE",
"24 900 LINE",
"148 758 LINE"
);
}
);
width = 281;
}
);
},
{
color = 4;
glyphname = acutecomb.case;
lastChange = "2021-11-08 14:02:47 +0000";
layers = (
{
anchors = (
{
name = _top;
position = "{156, 706}";
},
{
name = top;
position = "{156, 900}";
}
);
guideLines = (
{
angle = 238.9774;
position = "{-1, 885}";
},
{
angle = -120;
position = "{253, 779}";
},
{
angle = 220.7388;
position = "{122, 858}";
}
);
layerId = "501D5CC1-F731-4DBC-B0A3-CA82AE369B50";
paths = (
{
closed = 1;
nodes = (
"159 758 LINE",
"283 900 LINE",
"175 900 LINE",
"94 758 LINE"
);
}
);
width = 296;
}
);
},
{
color = 4;
glyphname = hungarumlautcomb.case;
lastChange = "2021-11-08 14:02:47 +0000";
layers = (
{
anchors = (
{
name = _top;
position = "{164, 706}";
},
{
name = top;
position = "{164, 900}";
}
);
layerId = "501D5CC1-F731-4DBC-B0A3-CA82AE369B50";
paths = (
{
closed = 1;
nodes = (
"266 758 LINE",
"390 900 LINE",
"282 900 LINE",
"201 758 LINE"
);
},
{
closed = 1;
nodes = (
"103 758 LINE",
"217 900 LINE",
"113 900 LINE",
"42 758 LINE"
);
}
);
width = 404;
}
);
},
{
color = 4;
glyphname = circumflexcomb.case;
lastChange = "2021-11-08 14:02:47 +0000";
layers = (
{
anchors = (
{
name = _top;
position = "{194, 706}";
},
{
name = top;
position = "{194, 900}";
}
);
layerId = "501D5CC1-F731-4DBC-B0A3-CA82AE369B50";
paths = (
{
closed = 1;
nodes = (
"116 758 LINE",
"191 851 LINE",
"265 758 LINE",
"344 758 LINE",
"241 900 LINE",
"145 900 LINE",
"44 758 LINE"
);
}
);
width = 380;
}
);
},
{
color = 4;
glyphname = caroncomb.case;
lastChange = "2021-11-08 14:02:47 +0000";
layers = (
{
anchors = (
{
name = _top;
position = "{194, 706}";
},
{
name = top;
position = "{194, 900}";
}
);
layerId = "501D5CC1-F731-4DBC-B0A3-CA82AE369B50";
paths = (
{
closed = 1;
nodes = (
"243 758 LINE",
"344 900 LINE",
"272 900 LINE",
"197 807 LINE",
"123 900 LINE",
"44 900 LINE",
"147 758 LINE"
);
}
);
width = 380;
}
);
},
{
color = 4;
glyphname = brevecomb.case;
lastChange = "2021-11-08 14:02:47 +0000";
layers = (
{
anchors = (
{
name = _top;
position = "{189, 706}";
},
{
name = top;
position = "{189, 895}";
}
);
guideLines = (
{
angle = 197.8189;
position = "{83, 883}";
}
);
hints = (
{
horizontal = 1;
origin = "{0, 3}";
target = down;
type = TopGhost;
}
);
layerId = "501D5CC1-F731-4DBC-B0A3-CA82AE369B50";
paths = (
{
closed = 1;
nodes = (
"266 765 OFFCURVE",
"318 804 OFFCURVE",
"337 870 CURVE",
"266 895 LINE",
"254 853 OFFCURVE",
"230 830 OFFCURVE",
"189 830 CURVE SMOOTH",
"148 830 OFFCURVE",
"124 853 OFFCURVE",
"112 895 CURVE",
"41 870 LINE",
"60 804 OFFCURVE",
"112 765 OFFCURVE",
"189 765 CURVE SMOOTH"
);
}
);
width = 378;
}
);
},
{
color = 4;
glyphname = ringcomb.case;
lastChange = "2021-11-08 14:02:47 +0000";
layers = (
{
anchors = (
{
name = _top;
position = "{154, 680}";
},
{
name = top;
position = "{153, 931}";
}
);
layerId = "501D5CC1-F731-4DBC-B0A3-CA82AE369B50";
paths = (
{
closed = 1;
nodes = (
"212 725 OFFCURVE",
"264 761 OFFCURVE",
"264 828 CURVE SMOOTH",
"264 896 OFFCURVE",
"211 931 OFFCURVE",
"153 931 CURVE SMOOTH",
"96 931 OFFCURVE",
"43 896 OFFCURVE",
"43 828 CURVE SMOOTH",
"43 761 OFFCURVE",
"97 725 OFFCURVE",
"155 725 CURVE SMOOTH"
);
},
{
closed = 1;
nodes = (
"127 775 OFFCURVE",
"100 793 OFFCURVE",
"100 828 CURVE SMOOTH",
"100 864 OFFCURVE",
"126 882 OFFCURVE",
"153 882 CURVE SMOOTH",
"180 882 OFFCURVE",
"207 865 OFFCURVE",
"207 828 CURVE SMOOTH",
"207 793 OFFCURVE",
"182 775 OFFCURVE",
"154 775 CURVE SMOOTH"
);
}
);
width = 306;
}
);
},
{
color = 4;
glyphname = tildecomb.case;
lastChange = "2021-11-08 14:02:47 +0000";
layers = (
{
anchors = (
{
name = _top;
position = "{195, 706}";
},
{
name = top;
position = "{195, 880}";
}
);
guideLines = (
{
angle = -29.859;
position = "{306, 878}";
},
{
angle = -29.859;
position = "{84, 776}";
}
);
layerId = "501D5CC1-F731-4DBC-B0A3-CA82AE369B50";
paths = (
{
closed = 1;
nodes = (
"98 799 OFFCURVE",
"114 808 OFFCURVE",
"134 808 CURVE SMOOTH",
"178 808 OFFCURVE",
"210 770 OFFCURVE",
"264 770 CURVE SMOOTH",
"305 770 OFFCURVE",
"335 796 OFFCURVE",
"360 844 CURVE",
"306 875 LINE",
"292 850 OFFCURVE",
"277 841 OFFCURVE",
"259 841 CURVE SMOOTH",
"220 841 OFFCURVE",
"181 880 OFFCURVE",
"126 880 CURVE SMOOTH",
"82 880 OFFCURVE",
"52 853 OFFCURVE",
"30 804 CURVE",
"84 772 LINE"
);
}
);
width = 390;
}
);
},
{
color = 4;
glyphname = macroncomb.case;
lastChange = "2021-11-08 14:02:47 +0000";
layers = (
{
anchors = (
{
name = _top;
position = "{197, 706}";
},
{
name = top;
position = "{197, 848}";
}
);
hints = (
{
horizontal = 1;
origin = "{0, 2}";
target = "{0, 3}";
type = Stem;
}
);
layerId = "501D5CC1-F731-4DBC-B0A3-CA82AE369B50";
paths = (
{
closed = 1;
nodes = (
"333 778 LINE",
"333 848 LINE",
"60 848 LINE",
"60 778 LINE"
);
}
);
width = 399;
}
);
},
{
color = 4;
glyphname = commaturnedabovecomb.case;
lastChange = "2021-11-08 14:02:47 +0000";
layers = (
{
anchors = (
{
name = _top;
position = "{110, 680}";
}
);
layerId = "501D5CC1-F731-4DBC-B0A3-CA82AE369B50";
paths = (
{
closed = 1;
nodes = (
"151 771 LINE",
"151 843 OFFCURVE",
"164 903 OFFCURVE",
"180 953 CURVE",
"119 953 LINE",
"90 906 OFFCURVE",
"72 846 OFFCURVE",
"66 771 CURVE"
);
}
);
width = 232;
}
);
},
{
color = 4;
glyphname = commaaccentcomb.case;
lastChange = "2021-11-08 14:02:47 +0000";
layers = (
{
anchors = (
{
name = _bottom;
position = "{136, 0}";
},
{
name = bottom;
position = "{136, -279}";
}
);
layerId = "501D5CC1-F731-4DBC-B0A3-CA82AE369B50";
paths = (
{
closed = 1;
nodes = (
"169 -243 OFFCURVE",
"181 -203 OFFCURVE",
"181 -136 CURVE SMOOTH",
"181 -72 LINE",
"91 -72 LINE",
"91 -162 LINE",
"165 -162 LINE",
"138 -150 LINE",
"141 -190 OFFCURVE",
"131 -217 OFFCURVE",
"92 -241 CURVE",
"118 -279 LINE"
);
}
);
width = 232;
}
);
},
{
color = 4;
glyphname = cedillacomb.case;
lastChange = "2021-11-08 14:02:47 +0000";
layers = (
{
anchors = (
{
name = _bottom;
position = "{168, 0}";
}
);
layerId = "501D5CC1-F731-4DBC-B0A3-CA82AE369B50";
paths = (
{
closed = 1;
nodes = (
"219 -220 OFFCURVE",
"269 -190 OFFCURVE",
"269 -130 CURVE SMOOTH",
"269 -63 OFFCURVE",
"209 -48 OFFCURVE",
"151 -48 CURVE",
"162 -67 LINE",
"201 0 LINE",
"135 0 LINE",
"103 -54 LINE",
"103 -97 LINE",
"116 -94 OFFCURVE",
"127 -93 OFFCURVE",
"137 -93 CURVE SMOOTH",
"170 -93 OFFCURVE",
"199 -103 OFFCURVE",
"199 -128 CURVE SMOOTH",
"199 -153 OFFCURVE",
"176 -160 OFFCURVE",
"148 -160 CURVE SMOOTH",
"122 -160 OFFCURVE",
"98 -151 OFFCURVE",
"77 -137 CURVE",
"48 -193 LINE",
"79 -211 OFFCURVE",
"114 -220 OFFCURVE",
"156 -220 CURVE SMOOTH"
);
}
);
width = 313;
}
);
},
{
color = 4;
glyphname = ogonekcomb.case;
lastChange = "2021-11-08 14:02:47 +0000";
layers = (
{
anchors = (
{
name = _ogonek;
position = "{168, 0}";
}
);
layerId = "501D5CC1-F731-4DBC-B0A3-CA82AE369B50";
paths = (
{
closed = 1;
nodes = (
"172 -221 OFFCURVE",
"203 -212 OFFCURVE",
"228 -197 CURVE",
"206 -130 LINE",
"193 -140 OFFCURVE",
"178 -147 OFFCURVE",
"161 -147 CURVE SMOOTH",
"136 -147 OFFCURVE",
"123 -134 OFFCURVE",
"123 -114 CURVE SMOOTH",
"123 -79 OFFCURVE",
"154 -40 OFFCURVE",
"206 0 CURVE",
"148 28 LINE",
"80 -27 OFFCURVE",
"40 -78 OFFCURVE",
"40 -133 CURVE SMOOTH",
"40 -186 OFFCURVE",
"75 -221 OFFCURVE",
"141 -221 CURVE SMOOTH"
);
}
);
width = 262;
}
);
},
{
color = 4;
glyphname = dieresiscomb.narrow;
lastChange = "2021-11-08 14:02:47 +0000";
layers = (
{
anchors = (
{
name = _top;
position = "{207, 510}";
},
{
name = top;
position = "{207, 706}";
}
);
layerId = "501D5CC1-F731-4DBC-B0A3-CA82AE369B50";
paths = (
{
closed = 1;
nodes = (
"330 605 LINE",
"330 706 LINE",
"245 706 LINE",
"245 605 LINE"
);
},
{
closed = 1;
nodes = (
"169 605 LINE",
"169 706 LINE",
"84 706 LINE",
"84 605 LINE"
);
}
);
width = 413;
}
);
},
{
color = 4;
glyphname = macroncomb.narrow;
lastChange = "2021-11-08 14:02:47 +0000";
layers = (
{
anchors = (
{
name = _top;
position = "{199, 510}";
},
{
name = top;
position = "{199, 678}";
}
);
layerId = "501D5CC1-F731-4DBC-B0A3-CA82AE369B50";
paths = (
{
closed = 1;
nodes = (
"302 608 LINE",
"302 678 LINE",
"95 678 LINE",
"95 608 LINE"
);
}
);
width = 399;
}
);
},
{
color = 4;
glyphname = dieresiscomb.case.narrow;
lastChange = "2021-11-08 14:02:47 +0000";
layers = (
{
anchors = (
{
name = _top;
position = "{206, 706}";
},
{
name = top;
position = "{206, 880}";
}
);
hints = (
{
horizontal = 1;
place = "{881, -20}";
target = down;
type = TopGhost;
}
);
layerId = "501D5CC1-F731-4DBC-B0A3-CA82AE369B50";
paths = (
{
closed = 1;
nodes = (
"164 778 LINE",
"164 880 LINE",
"74 880 LINE",
"74 778 LINE"
);
},
{
closed = 1;
nodes = (
"338 778 LINE",
"338 880 LINE",
"248 880 LINE",
"248 778 LINE"
);
}
);
width = 412;
}
);
},
{
color = 4;
glyphname = circumflexcomb.case.narrow;
lastChange = "2021-11-08 14:02:47 +0000";
layers = (
{
anchors = (
{
name = _top;
position = "{194, 706}";
},
{
name = top;
position = "{194, 900}";
}
);
layerId = "501D5CC1-F731-4DBC-B0A3-CA82AE369B50";
paths = (
{
closed = 1;
nodes = (
"129 758 LINE",
"191 851 LINE",
"252 758 LINE",
"331 758 LINE",
"241 900 LINE",
"145 900 LINE",
"57 758 LINE"
);
}
);
width = 380;
}
);
},
{
color = 4;
glyphname = brevecomb.case.narrow;
lastChange = "2021-11-08 14:02:47 +0000";
layers = (
{
anchors = (
{
name = _top;
position = "{189, 706}";
},
{
name = top;
position = "{189, 895}";
}
);
guideLines = (
{
angle = 197.8189;
position = "{83, 883}";
}
);
hints = (
{
horizontal = 1;
origin = "{0, 3}";
target = down;
type = TopGhost;
}
);
layerId = "501D5CC1-F731-4DBC-B0A3-CA82AE369B50";
paths = (
{
closed = 1;
nodes = (
"260 765 OFFCURVE",
"307 804 OFFCURVE",
"326 870 CURVE",
"255 895 LINE",
"243 853 OFFCURVE",
"224 830 OFFCURVE",
"189 830 CURVE SMOOTH",
"154 830 OFFCURVE",
"135 853 OFFCURVE",
"123 895 CURVE",
"52 870 LINE",
"71 804 OFFCURVE",
"118 765 OFFCURVE",
"189 765 CURVE SMOOTH"
);
}
);
width = 378;
}
);
},
{
color = 4;
glyphname = tildecomb.case.narrow;
lastChange = "2021-11-08 14:02:47 +0000";
layers = (
{
anchors = (
{
name = _top;
position = "{193, 706}";
},
{
name = top;
position = "{193, 880}";
}
);
guideLines = (
{
angle = -29.859;
position = "{306, 878}";
},
{
angle = -29.859;
position = "{84, 776}";
}
);
layerId = "501D5CC1-F731-4DBC-B0A3-CA82AE369B50";
paths = (
{
closed = 1;
nodes = (
"111 799 OFFCURVE",
"125 808 OFFCURVE",
"143 808 CURVE SMOOTH",
"180 808 OFFCURVE",
"196 770 OFFCURVE",
"251 770 CURVE SMOOTH",
"289 770 OFFCURVE",
"317 796 OFFCURVE",
"340 844 CURVE",
"286 875 LINE",
"274 850 OFFCURVE",
"261 841 OFFCURVE",
"246 841 CURVE SMOOTH",
"206 841 OFFCURVE",
"181 880 OFFCURVE",
"135 880 CURVE SMOOTH",
"94 880 OFFCURVE",
"66 853 OFFCURVE",
"45 804 CURVE",
"99 772 LINE"
);
}
);
width = 390;
}
);
},
{
color = 4;
glyphname = macroncomb.case.narrow;
lastChange = "2021-11-08 14:02:47 +0000";
layers = (
{
anchors = (
{
name = _top;
position = "{197, 706}";
},
{
name = top;
position = "{197, 848}";
}
);
hints = (
{
horizontal = 1;
origin = "{0, 2}";
target = "{0, 3}";
type = Stem;
}
);
layerId = "501D5CC1-F731-4DBC-B0A3-CA82AE369B50";
paths = (
{
closed = 1;
nodes = (
"307 778 LINE",
"307 848 LINE",
"87 848 LINE",
"87 778 LINE"
);
}
);
width = 399;
}
);
},
{
color = 6;
export = 0;
glyphname = pixel;
lastChange = "2021-11-08 14:02:47 +0000";
layers = (
{
layerId = "501D5CC1-F731-4DBC-B0A3-CA82AE369B50";
paths = (
{
closed = 1;
nodes = (
"85 0 LINE",
"85 85 LINE",
"0 85 LINE",
"0 0 LINE"
);
}
);
width = 255;
}
);
},
{
color = 6;
export = 0;
glyphname = pixel.small;
lastChange = "2021-11-08 14:02:47 +0000";
layers = (
{
layerId = "501D5CC1-F731-4DBC-B0A3-CA82AE369B50";
paths = (
{
closed = 1;
nodes = (
"42.5 0 LINE",
"42.5 42.5 LINE",
"0 42.5 LINE",
"0 0 LINE"
);
}
